<svg width="17" height="17" viewBox="0 0 17 17" fill="none" xmlns="http://www.w3.org/2000/svg">
<path d="M1.7065 16.7071C1.31597 17.0976 0.682807 17.0976 0.292283 16.7071C-0.0982414 16.3166 -0.0982414 15.6834 0.292283 15.2929L1.7065 16.7071ZM15.1415 0.857864C15.6938 0.857864 16.1415 1.30558 16.1415 1.85786L16.1415 10.8579C16.1415 11.4101 15.6938 11.8579 15.1415 11.8579C14.5892 11.8579 14.1415 11.4101 14.1415 10.8579L14.1415 2.85786L6.14153 2.85786C5.58924 2.85786 5.14153 2.41015 5.14153 1.85786C5.14152 1.30558 5.58924 0.857865 6.14152 0.857865L15.1415 0.857864ZM0.292283 15.2929L14.4344 1.15076L15.8486 2.56497L1.7065 16.7071L0.292283 15.2929Z" fill="#131313"/>
</svg>
