<svg width="50" height="50" viewBox="0 0 50 50" fill="none" xmlns="http://www.w3.org/2000/svg">
<path d="M25 50C38.7854 50 50 38.7854 50 25C50 11.2146 38.7854 0 25 0C11.2146 0 0 11.2146 0 25C0 38.7854 11.2146 50 25 50ZM25 5C36.0278 5 45 13.9722 45 25C45 36.0278 36.0278 45 25 45C13.9722 45 5 36.0278 5 25C5 13.9722 13.9722 5 25 5ZM19.4824 33.2336L27.7148 25L19.4824 16.7676C18.5059 15.791 18.5059 14.209 19.4824 13.2324C20.459 12.2559 22.041 12.2559 23.0176 13.2324L33.0176 23.2324C33.9941 24.209 33.9941 25.791 33.0176 26.7676L23.0176 36.7687C22.5293 37.257 21.8896 37.5012 21.25 37.5012C20.6104 37.5012 19.9707 37.257 19.4824 36.7687C18.5059 35.7923 18.5059 34.209 19.4824 33.2336Z" fill="#3024FA"/>
</svg>
