<svg width="50" height="50" viewBox="0 0 50 50" fill="none" xmlns="http://www.w3.org/2000/svg">
<path d="M25 50C11.2146 50 0 38.7854 0 25C0 11.2146 11.2146 0 25 0C38.7854 0 50 11.2146 50 25C50 38.7854 38.7854 50 25 50ZM25 5C13.9722 5 5 13.9722 5 25C5 36.0278 13.9722 45 25 45C36.0278 45 45 36.0278 45 25C45 13.9722 36.0278 5 25 5ZM30.5176 33.2336L22.2852 25L30.5176 16.7676C31.4941 15.791 31.4941 14.209 30.5176 13.2324C29.541 12.2559 27.959 12.2559 26.9824 13.2324L16.9824 23.2324C16.0059 24.209 16.0059 25.791 16.9824 26.7676L26.9824 36.7687C27.4707 37.257 28.1104 37.5012 28.75 37.5012C29.3896 37.5012 30.0293 37.257 30.5176 36.7687C31.4941 35.7923 31.4941 34.209 30.5176 33.2336Z" fill="#3024FA"/>
</svg>
