<svg width="320" height="176" viewBox="0 0 320 176" fill="none" xmlns="http://www.w3.org/2000/svg">
<rect width="320" height="176" rx="10" fill="#DBDBFF"/>
<path d="M166.571 20V25.9333H164.304C163.268 25.9102 162.259 26.2668 161.467 26.936C160.675 27.6051 160.155 28.5407 160.005 29.5666C159.947 30.134 160.008 30.7073 160.185 31.2496C160.362 31.7918 160.65 32.291 161.032 32.7149C161.413 33.1389 161.879 33.4782 162.4 33.711C162.921 33.9438 163.484 34.065 164.054 34.0666H166.554V36.8666C166.554 37.2821 166.719 37.6806 167.013 37.9744C167.306 38.2682 167.705 38.4333 168.12 38.4333H170.92V40.6999C170.897 41.739 171.256 42.7503 171.928 43.5427C172.601 44.335 173.54 44.8535 174.569 44.9999C175.136 45.0581 175.709 44.9968 176.251 44.82C176.794 44.6431 177.293 44.3546 177.717 43.973C178.14 43.5915 178.48 43.1254 178.712 42.6047C178.945 42.084 179.066 41.5203 179.068 40.9499V38.45H185V20H166.571Z" fill="#3024FA"/>
<path d="M168.42 48.3332V54.4165C168.441 55.4591 168.101 56.477 167.457 57.2973C166.813 58.1175 165.905 58.6896 164.887 58.9165C164.246 59.0444 163.584 59.0287 162.949 58.8703C162.314 58.712 161.722 58.4151 161.215 58.0008C160.709 57.5866 160.3 57.0653 160.019 56.4744C159.738 55.8835 159.591 55.2376 159.588 54.5831V48.3332H156.672V45.4165H150.607C149.562 45.4383 148.542 45.0986 147.72 44.4547C146.897 43.8109 146.321 42.9024 146.091 41.8832C145.977 41.2473 146.003 40.5943 146.168 39.9696C146.333 39.345 146.632 38.7639 147.044 38.2669C147.457 37.77 147.973 37.3693 148.557 37.0929C149.141 36.8164 149.778 36.6709 150.424 36.6665H156.672V29.9999C153.861 29.7633 151.032 30.1243 148.371 31.0591C145.709 31.9939 143.276 33.4814 141.23 35.4239C139.184 37.3663 137.572 39.7197 136.5 42.3295C135.428 44.9393 134.92 47.7465 135.01 50.5665C135.219 55.6535 137.333 60.4759 140.933 64.076C144.532 67.6762 149.353 69.7907 154.44 69.9998H155.006C157.778 70.0094 160.522 69.4424 163.064 68.3347C165.605 67.2271 167.888 65.6029 169.769 63.5655C171.649 61.5281 173.085 59.1218 173.986 56.4995C174.887 53.8773 175.233 51.0963 175.002 48.3332H168.42ZM152.423 64.3164H150.757C148.136 64.2213 145.648 63.1372 143.793 61.2821C141.938 59.4269 140.854 56.9383 140.759 54.3165V52.6498L144.092 52.5665V54.2331C144.173 55.9751 144.901 57.624 146.134 58.8571C147.367 60.0902 149.015 60.8186 150.757 60.8998H152.423V64.3164Z" fill="#3024FA"/>
<path d="M21.596 106V96.2H22.632V105.104H28.12V106H21.596ZM34.2361 106V104.376L34.1941 104.11V101.394C34.1941 100.769 34.0168 100.288 33.6621 99.952C33.3168 99.616 32.7988 99.448 32.1081 99.448C31.6321 99.448 31.1795 99.5273 30.7501 99.686C30.3208 99.8447 29.9568 100.055 29.6581 100.316L29.2101 99.574C29.5835 99.2567 30.0315 99.014 30.5541 98.846C31.0768 98.6687 31.6275 98.58 32.2061 98.58C33.1581 98.58 33.8908 98.818 34.4041 99.294C34.9268 99.7607 35.1881 100.475 35.1881 101.436V106H34.2361ZM31.7021 106.07C31.1515 106.07 30.6708 105.981 30.2601 105.804C29.8588 105.617 29.5508 105.365 29.3361 105.048C29.1215 104.721 29.0141 104.348 29.0141 103.928C29.0141 103.545 29.1028 103.2 29.2801 102.892C29.4668 102.575 29.7655 102.323 30.1761 102.136C30.5961 101.94 31.1561 101.842 31.8561 101.842H34.3901V102.584H31.8841C31.1748 102.584 30.6801 102.71 30.4001 102.962C30.1295 103.214 29.9941 103.527 29.9941 103.9C29.9941 104.32 30.1575 104.656 30.4841 104.908C30.8108 105.16 31.2681 105.286 31.8561 105.286C32.4161 105.286 32.8968 105.16 33.2981 104.908C33.7088 104.647 34.0075 104.273 34.1941 103.788L34.4181 104.474C34.2315 104.959 33.9048 105.347 33.4381 105.636C32.9808 105.925 32.4021 106.07 31.7021 106.07ZM45.346 106.07C44.7113 106.07 44.1373 105.925 43.624 105.636C43.1107 105.337 42.7 104.913 42.392 104.362C42.0933 103.802 41.944 103.121 41.944 102.318C41.944 101.515 42.0933 100.839 42.392 100.288C42.6907 99.728 43.0967 99.3033 43.61 99.014C44.1233 98.7247 44.702 98.58 45.346 98.58C46.046 98.58 46.6713 98.7387 47.222 99.056C47.782 99.364 48.2207 99.8027 48.538 100.372C48.8553 100.932 49.014 101.581 49.014 102.318C49.014 103.065 48.8553 103.718 48.538 104.278C48.2207 104.838 47.782 105.277 47.222 105.594C46.6713 105.911 46.046 106.07 45.346 106.07ZM41.552 108.716V98.65H42.504V100.862L42.406 102.332L42.546 103.816V108.716H41.552ZM45.276 105.188C45.7987 105.188 46.2653 105.071 46.676 104.838C47.0867 104.595 47.4133 104.259 47.656 103.83C47.8987 103.391 48.02 102.887 48.02 102.318C48.02 101.749 47.8987 101.249 47.656 100.82C47.4133 100.391 47.0867 100.055 46.676 99.812C46.2653 99.5693 45.7987 99.448 45.276 99.448C44.7533 99.448 44.282 99.5693 43.862 99.812C43.4513 100.055 43.1247 100.391 42.882 100.82C42.6487 101.249 42.532 101.749 42.532 102.318C42.532 102.887 42.6487 103.391 42.882 103.83C43.1247 104.259 43.4513 104.595 43.862 104.838C44.282 105.071 44.7533 105.188 45.276 105.188ZM54.0363 106.07C53.327 106.07 52.6876 105.911 52.1183 105.594C51.5583 105.267 51.115 104.824 50.7883 104.264C50.4616 103.695 50.2983 103.046 50.2983 102.318C50.2983 101.581 50.4616 100.932 50.7883 100.372C51.115 99.812 51.5583 99.3733 52.1183 99.056C52.6783 98.7387 53.3176 98.58 54.0363 98.58C54.7643 98.58 55.4083 98.7387 55.9683 99.056C56.5376 99.3733 56.981 99.812 57.2983 100.372C57.625 100.932 57.7883 101.581 57.7883 102.318C57.7883 103.046 57.625 103.695 57.2983 104.264C56.981 104.824 56.5376 105.267 55.9683 105.594C55.399 105.911 54.755 106.07 54.0363 106.07ZM54.0363 105.188C54.5683 105.188 55.0396 105.071 55.4503 104.838C55.861 104.595 56.183 104.259 56.4163 103.83C56.659 103.391 56.7803 102.887 56.7803 102.318C56.7803 101.739 56.659 101.235 56.4163 100.806C56.183 100.377 55.861 100.045 55.4503 99.812C55.0396 99.5693 54.573 99.448 54.0503 99.448C53.5276 99.448 53.061 99.5693 52.6503 99.812C52.2396 100.045 51.913 100.377 51.6703 100.806C51.4276 101.235 51.3063 101.739 51.3063 102.318C51.3063 102.887 51.4276 103.391 51.6703 103.83C51.913 104.259 52.2396 104.595 52.6503 104.838C53.061 105.071 53.523 105.188 54.0363 105.188ZM63.6116 106.07C62.9676 106.07 62.389 105.925 61.8756 105.636C61.3623 105.337 60.9563 104.908 60.6576 104.348C60.359 103.788 60.2096 103.111 60.2096 102.318C60.2096 101.515 60.359 100.839 60.6576 100.288C60.9656 99.728 61.3763 99.3033 61.8896 99.014C62.403 98.7247 62.977 98.58 63.6116 98.58C64.3116 98.58 64.937 98.7387 65.4876 99.056C66.0476 99.364 66.4863 99.798 66.8036 100.358C67.121 100.918 67.2796 101.571 67.2796 102.318C67.2796 103.055 67.121 103.709 66.8036 104.278C66.4863 104.838 66.0476 105.277 65.4876 105.594C64.937 105.911 64.3116 106.07 63.6116 106.07ZM59.8176 106V95.612H60.8116V100.82L60.6716 102.304L60.7696 103.788V106H59.8176ZM63.5416 105.188C64.0643 105.188 64.531 105.071 64.9416 104.838C65.3523 104.595 65.679 104.259 65.9216 103.83C66.1643 103.391 66.2856 102.887 66.2856 102.318C66.2856 101.739 66.1643 101.235 65.9216 100.806C65.679 100.377 65.3523 100.045 64.9416 99.812C64.531 99.5693 64.0643 99.448 63.5416 99.448C63.019 99.448 62.5476 99.5693 62.1276 99.812C61.717 100.045 61.3903 100.377 61.1476 100.806C60.9143 101.235 60.7976 101.739 60.7976 102.318C60.7976 102.887 60.9143 103.391 61.1476 103.83C61.3903 104.259 61.717 104.595 62.1276 104.838C62.5476 105.071 63.019 105.188 63.5416 105.188ZM69.3059 106V98.65H70.2579V100.652L70.1599 100.302C70.3653 99.742 70.7106 99.3173 71.1959 99.028C71.6813 98.7293 72.2833 98.58 73.0019 98.58V99.546C72.9646 99.546 72.9273 99.546 72.8899 99.546C72.8526 99.5367 72.8153 99.532 72.7779 99.532C72.0033 99.532 71.3966 99.77 70.9579 100.246C70.5193 100.713 70.2999 101.38 70.2999 102.248V106H69.3059ZM77.8693 106.07C77.104 106.07 76.432 105.911 75.8533 105.594C75.2747 105.267 74.822 104.824 74.4953 104.264C74.1687 103.695 74.0053 103.046 74.0053 102.318C74.0053 101.59 74.1593 100.946 74.4673 100.386C74.7847 99.826 75.214 99.3873 75.7553 99.07C76.306 98.7433 76.922 98.58 77.6033 98.58C78.294 98.58 78.9053 98.7387 79.4373 99.056C79.9787 99.364 80.4033 99.8027 80.7113 100.372C81.0193 100.932 81.1733 101.581 81.1733 102.318C81.1733 102.365 81.1687 102.416 81.1593 102.472C81.1593 102.519 81.1593 102.57 81.1593 102.626H74.7613V101.884H80.6273L80.2353 102.178C80.2353 101.646 80.1187 101.175 79.8853 100.764C79.6613 100.344 79.3533 100.017 78.9613 99.784C78.5693 99.5507 78.1167 99.434 77.6033 99.434C77.0993 99.434 76.6467 99.5507 76.2453 99.784C75.844 100.017 75.5313 100.344 75.3073 100.764C75.0833 101.184 74.9713 101.665 74.9713 102.206V102.36C74.9713 102.92 75.0927 103.415 75.3353 103.844C75.5873 104.264 75.9327 104.595 76.3713 104.838C76.8193 105.071 77.328 105.188 77.8973 105.188C78.3453 105.188 78.7607 105.109 79.1433 104.95C79.5353 104.791 79.8713 104.549 80.1513 104.222L80.7113 104.866C80.3847 105.258 79.974 105.557 79.4793 105.762C78.994 105.967 78.4573 106.07 77.8693 106.07ZM82.3302 106V105.342L87.2302 99.14L87.4402 99.476H82.4142V98.65H88.2242V99.294L83.3382 105.51L83.0862 105.174H88.3222V106H82.3302ZM94.8846 106V104.376L94.8426 104.11V101.394C94.8426 100.769 94.6652 100.288 94.3106 99.952C93.9652 99.616 93.4472 99.448 92.7566 99.448C92.2806 99.448 91.8279 99.5273 91.3986 99.686C90.9692 99.8447 90.6052 100.055 90.3066 100.316L89.8586 99.574C90.2319 99.2567 90.6799 99.014 91.2026 98.846C91.7252 98.6687 92.2759 98.58 92.8546 98.58C93.8066 98.58 94.5392 98.818 95.0526 99.294C95.5752 99.7607 95.8366 100.475 95.8366 101.436V106H94.8846ZM92.3506 106.07C91.7999 106.07 91.3192 105.981 90.9086 105.804C90.5072 105.617 90.1992 105.365 89.9846 105.048C89.7699 104.721 89.6626 104.348 89.6626 103.928C89.6626 103.545 89.7512 103.2 89.9286 102.892C90.1152 102.575 90.4139 102.323 90.8246 102.136C91.2446 101.94 91.8046 101.842 92.5046 101.842H95.0386V102.584H92.5326C91.8232 102.584 91.3286 102.71 91.0486 102.962C90.7779 103.214 90.6426 103.527 90.6426 103.9C90.6426 104.32 90.8059 104.656 91.1326 104.908C91.4592 105.16 91.9166 105.286 92.5046 105.286C93.0646 105.286 93.5452 105.16 93.9466 104.908C94.3572 104.647 94.6559 104.273 94.8426 103.788L95.0666 104.474C94.8799 104.959 94.5532 105.347 94.0866 105.636C93.6292 105.925 93.0506 106.07 92.3506 106.07ZM105.322 106.07C104.557 106.07 103.885 105.911 103.306 105.594C102.728 105.267 102.275 104.824 101.948 104.264C101.622 103.695 101.458 103.046 101.458 102.318C101.458 101.59 101.612 100.946 101.92 100.386C102.238 99.826 102.667 99.3873 103.208 99.07C103.759 98.7433 104.375 98.58 105.056 98.58C105.747 98.58 106.358 98.7387 106.89 99.056C107.432 99.364 107.856 99.8027 108.164 100.372C108.472 100.932 108.626 101.581 108.626 102.318C108.626 102.365 108.622 102.416 108.612 102.472C108.612 102.519 108.612 102.57 108.612 102.626H102.214V101.884H108.08L107.688 102.178C107.688 101.646 107.572 101.175 107.338 100.764C107.114 100.344 106.806 100.017 106.414 99.784C106.022 99.5507 105.57 99.434 105.056 99.434C104.552 99.434 104.1 99.5507 103.698 99.784C103.297 100.017 102.984 100.344 102.76 100.764C102.536 101.184 102.424 101.665 102.424 102.206V102.36C102.424 102.92 102.546 103.415 102.788 103.844C103.04 104.264 103.386 104.595 103.824 104.838C104.272 105.071 104.781 105.188 105.35 105.188C105.798 105.188 106.214 105.109 106.596 104.95C106.988 104.791 107.324 104.549 107.604 104.222L108.164 104.866C107.838 105.258 107.427 105.557 106.932 105.762C106.447 105.967 105.91 106.07 105.322 106.07ZM112.624 106.07C112.017 106.07 111.443 105.986 110.902 105.818C110.36 105.641 109.936 105.421 109.628 105.16L110.076 104.376C110.374 104.6 110.757 104.796 111.224 104.964C111.69 105.123 112.18 105.202 112.694 105.202C113.394 105.202 113.898 105.095 114.206 104.88C114.514 104.656 114.668 104.362 114.668 103.998C114.668 103.727 114.579 103.517 114.402 103.368C114.234 103.209 114.01 103.093 113.73 103.018C113.45 102.934 113.137 102.864 112.792 102.808C112.446 102.752 112.101 102.687 111.756 102.612C111.42 102.537 111.112 102.43 110.832 102.29C110.552 102.141 110.323 101.94 110.146 101.688C109.978 101.436 109.894 101.1 109.894 100.68C109.894 100.279 110.006 99.9193 110.23 99.602C110.454 99.2847 110.78 99.0373 111.21 98.86C111.648 98.6733 112.18 98.58 112.806 98.58C113.282 98.58 113.758 98.6453 114.234 98.776C114.71 98.8973 115.102 99.0607 115.41 99.266L114.976 100.064C114.649 99.84 114.299 99.6813 113.926 99.588C113.552 99.4853 113.179 99.434 112.806 99.434C112.143 99.434 111.653 99.5507 111.336 99.784C111.028 100.008 110.874 100.297 110.874 100.652C110.874 100.932 110.958 101.151 111.126 101.31C111.303 101.469 111.532 101.595 111.812 101.688C112.101 101.772 112.414 101.842 112.75 101.898C113.095 101.954 113.436 102.024 113.772 102.108C114.117 102.183 114.43 102.29 114.71 102.43C114.999 102.561 115.228 102.752 115.396 103.004C115.573 103.247 115.662 103.569 115.662 103.97C115.662 104.399 115.54 104.773 115.298 105.09C115.064 105.398 114.719 105.641 114.262 105.818C113.814 105.986 113.268 106.07 112.624 106.07ZM124.188 106.07C123.562 106.07 123.016 105.953 122.55 105.72C122.083 105.487 121.719 105.137 121.458 104.67C121.206 104.203 121.08 103.62 121.08 102.92V98.65H122.074V102.808C122.074 103.592 122.265 104.185 122.648 104.586C123.04 104.978 123.586 105.174 124.286 105.174C124.799 105.174 125.242 105.071 125.616 104.866C125.998 104.651 126.288 104.343 126.484 103.942C126.689 103.541 126.792 103.06 126.792 102.5V98.65H127.786V106H126.834V103.984L126.988 104.348C126.754 104.889 126.39 105.314 125.896 105.622C125.41 105.921 124.841 106.07 124.188 106.07ZM134.308 98.58C134.905 98.58 135.428 98.6967 135.876 98.93C136.333 99.154 136.688 99.4993 136.94 99.966C137.201 100.433 137.332 101.021 137.332 101.73V106H136.338V101.828C136.338 101.053 136.142 100.47 135.75 100.078C135.367 99.6767 134.826 99.476 134.126 99.476C133.603 99.476 133.146 99.5833 132.754 99.798C132.371 100.003 132.073 100.307 131.858 100.708C131.653 101.1 131.55 101.576 131.55 102.136V106H130.556V98.65H131.508V100.666L131.354 100.288C131.587 99.756 131.961 99.3407 132.474 99.042C132.987 98.734 133.599 98.58 134.308 98.58ZM147.475 106.07C146.84 106.07 146.266 105.925 145.753 105.636C145.24 105.337 144.829 104.913 144.521 104.362C144.222 103.802 144.073 103.121 144.073 102.318C144.073 101.515 144.222 100.839 144.521 100.288C144.82 99.728 145.226 99.3033 145.739 99.014C146.252 98.7247 146.831 98.58 147.475 98.58C148.175 98.58 148.8 98.7387 149.351 99.056C149.911 99.364 150.35 99.8027 150.667 100.372C150.984 100.932 151.143 101.581 151.143 102.318C151.143 103.065 150.984 103.718 150.667 104.278C150.35 104.838 149.911 105.277 149.351 105.594C148.8 105.911 148.175 106.07 147.475 106.07ZM143.681 108.716V98.65H144.633V100.862L144.535 102.332L144.675 103.816V108.716H143.681ZM147.405 105.188C147.928 105.188 148.394 105.071 148.805 104.838C149.216 104.595 149.542 104.259 149.785 103.83C150.028 103.391 150.149 102.887 150.149 102.318C150.149 101.749 150.028 101.249 149.785 100.82C149.542 100.391 149.216 100.055 148.805 99.812C148.394 99.5693 147.928 99.448 147.405 99.448C146.882 99.448 146.411 99.5693 145.991 99.812C145.58 100.055 145.254 100.391 145.011 100.82C144.778 101.249 144.661 101.749 144.661 102.318C144.661 102.887 144.778 103.391 145.011 103.83C145.254 104.259 145.58 104.595 145.991 104.838C146.411 105.071 146.882 105.188 147.405 105.188ZM153.169 106V98.65H154.121V100.652L154.023 100.302C154.229 99.742 154.574 99.3173 155.059 99.028C155.545 98.7293 156.147 98.58 156.865 98.58V99.546C156.828 99.546 156.791 99.546 156.753 99.546C156.716 99.5367 156.679 99.532 156.641 99.532C155.867 99.532 155.26 99.77 154.821 100.246C154.383 100.713 154.163 101.38 154.163 102.248V106H153.169ZM161.607 106.07C160.897 106.07 160.258 105.911 159.689 105.594C159.129 105.267 158.685 104.824 158.359 104.264C158.032 103.695 157.869 103.046 157.869 102.318C157.869 101.581 158.032 100.932 158.359 100.372C158.685 99.812 159.129 99.3733 159.689 99.056C160.249 98.7387 160.888 98.58 161.607 98.58C162.335 98.58 162.979 98.7387 163.539 99.056C164.108 99.3733 164.551 99.812 164.869 100.372C165.195 100.932 165.359 101.581 165.359 102.318C165.359 103.046 165.195 103.695 164.869 104.264C164.551 104.824 164.108 105.267 163.539 105.594C162.969 105.911 162.325 106.07 161.607 106.07ZM161.607 105.188C162.139 105.188 162.61 105.071 163.021 104.838C163.431 104.595 163.753 104.259 163.987 103.83C164.229 103.391 164.351 102.887 164.351 102.318C164.351 101.739 164.229 101.235 163.987 100.806C163.753 100.377 163.431 100.045 163.021 99.812C162.61 99.5693 162.143 99.448 161.621 99.448C161.098 99.448 160.631 99.5693 160.221 99.812C159.81 100.045 159.483 100.377 159.241 100.806C158.998 101.235 158.877 101.739 158.877 102.318C158.877 102.887 158.998 103.391 159.241 103.83C159.483 104.259 159.81 104.595 160.221 104.838C160.631 105.071 161.093 105.188 161.607 105.188ZM171.182 106.07C170.538 106.07 169.959 105.925 169.446 105.636C168.933 105.337 168.527 104.908 168.228 104.348C167.929 103.788 167.78 103.111 167.78 102.318C167.78 101.515 167.929 100.839 168.228 100.288C168.536 99.728 168.947 99.3033 169.46 99.014C169.973 98.7247 170.547 98.58 171.182 98.58C171.882 98.58 172.507 98.7387 173.058 99.056C173.618 99.364 174.057 99.798 174.374 100.358C174.691 100.918 174.85 101.571 174.85 102.318C174.85 103.055 174.691 103.709 174.374 104.278C174.057 104.838 173.618 105.277 173.058 105.594C172.507 105.911 171.882 106.07 171.182 106.07ZM167.388 106V95.612H168.382V100.82L168.242 102.304L168.34 103.788V106H167.388ZM171.112 105.188C171.635 105.188 172.101 105.071 172.512 104.838C172.923 104.595 173.249 104.259 173.492 103.83C173.735 103.391 173.856 102.887 173.856 102.318C173.856 101.739 173.735 101.235 173.492 100.806C173.249 100.377 172.923 100.045 172.512 99.812C172.101 99.5693 171.635 99.448 171.112 99.448C170.589 99.448 170.118 99.5693 169.698 99.812C169.287 100.045 168.961 100.377 168.718 100.806C168.485 101.235 168.368 101.739 168.368 102.318C168.368 102.887 168.485 103.391 168.718 103.83C168.961 104.259 169.287 104.595 169.698 104.838C170.118 105.071 170.589 105.188 171.112 105.188ZM176.876 106V95.612H177.87V106H176.876ZM183.758 106.07C182.993 106.07 182.321 105.911 181.742 105.594C181.163 105.267 180.711 104.824 180.384 104.264C180.057 103.695 179.894 103.046 179.894 102.318C179.894 101.59 180.048 100.946 180.356 100.386C180.673 99.826 181.103 99.3873 181.644 99.07C182.195 98.7433 182.811 98.58 183.492 98.58C184.183 98.58 184.794 98.7387 185.326 99.056C185.867 99.364 186.292 99.8027 186.6 100.372C186.908 100.932 187.062 101.581 187.062 102.318C187.062 102.365 187.057 102.416 187.048 102.472C187.048 102.519 187.048 102.57 187.048 102.626H180.65V101.884H186.516L186.124 102.178C186.124 101.646 186.007 101.175 185.774 100.764C185.55 100.344 185.242 100.017 184.85 99.784C184.458 99.5507 184.005 99.434 183.492 99.434C182.988 99.434 182.535 99.5507 182.134 99.784C181.733 100.017 181.42 100.344 181.196 100.764C180.972 101.184 180.86 101.665 180.86 102.206V102.36C180.86 102.92 180.981 103.415 181.224 103.844C181.476 104.264 181.821 104.595 182.26 104.838C182.708 105.071 183.217 105.188 183.786 105.188C184.234 105.188 184.649 105.109 185.032 104.95C185.424 104.791 185.76 104.549 186.04 104.222L186.6 104.866C186.273 105.258 185.863 105.557 185.368 105.762C184.883 105.967 184.346 106.07 183.758 106.07ZM198.269 98.58C198.867 98.58 199.385 98.6967 199.823 98.93C200.271 99.154 200.617 99.4993 200.859 99.966C201.111 100.433 201.237 101.021 201.237 101.73V106H200.243V101.828C200.243 101.053 200.057 100.47 199.683 100.078C199.319 99.6767 198.801 99.476 198.129 99.476C197.625 99.476 197.187 99.5833 196.813 99.798C196.449 100.003 196.165 100.307 195.959 100.708C195.763 101.1 195.665 101.576 195.665 102.136V106H194.671V101.828C194.671 101.053 194.485 100.47 194.111 100.078C193.738 99.6767 193.215 99.476 192.543 99.476C192.049 99.476 191.615 99.5833 191.241 99.798C190.868 100.003 190.579 100.307 190.373 100.708C190.177 101.1 190.079 101.576 190.079 102.136V106H189.085V98.65H190.037V100.638L189.883 100.288C190.107 99.756 190.467 99.3407 190.961 99.042C191.465 98.734 192.058 98.58 192.739 98.58C193.458 98.58 194.069 98.762 194.573 99.126C195.077 99.4807 195.404 100.017 195.553 100.736L195.161 100.582C195.376 99.9847 195.754 99.504 196.295 99.14C196.846 98.7667 197.504 98.58 198.269 98.58ZM208.539 106V104.376L208.497 104.11V101.394C208.497 100.769 208.32 100.288 207.965 99.952C207.62 99.616 207.102 99.448 206.411 99.448C205.935 99.448 205.482 99.5273 205.053 99.686C204.624 99.8447 204.26 100.055 203.961 100.316L203.513 99.574C203.886 99.2567 204.334 99.014 204.857 98.846C205.38 98.6687 205.93 98.58 206.509 98.58C207.461 98.58 208.194 98.818 208.707 99.294C209.23 99.7607 209.491 100.475 209.491 101.436V106H208.539ZM206.005 106.07C205.454 106.07 204.974 105.981 204.563 105.804C204.162 105.617 203.854 105.365 203.639 105.048C203.424 104.721 203.317 104.348 203.317 103.928C203.317 103.545 203.406 103.2 203.583 102.892C203.77 102.575 204.068 102.323 204.479 102.136C204.899 101.94 205.459 101.842 206.159 101.842H208.693V102.584H206.187C205.478 102.584 204.983 102.71 204.703 102.962C204.432 103.214 204.297 103.527 204.297 103.9C204.297 104.32 204.46 104.656 204.787 104.908C205.114 105.16 205.571 105.286 206.159 105.286C206.719 105.286 207.2 105.16 207.601 104.908C208.012 104.647 208.31 104.273 208.497 103.788L208.721 104.474C208.534 104.959 208.208 105.347 207.741 105.636C207.284 105.925 206.705 106.07 206.005 106.07ZM225.039 98.58C225.636 98.58 226.154 98.6967 226.593 98.93C227.041 99.154 227.386 99.4993 227.629 99.966C227.881 100.433 228.007 101.021 228.007 101.73V106H227.013V101.828C227.013 101.053 226.826 100.47 226.453 100.078C226.089 99.6767 225.571 99.476 224.899 99.476C224.395 99.476 223.956 99.5833 223.583 99.798C223.219 100.003 222.934 100.307 222.729 100.708C222.533 101.1 222.435 101.576 222.435 102.136V106H221.441V101.828C221.441 101.053 221.254 100.47 220.881 100.078C220.507 99.6767 219.985 99.476 219.313 99.476C218.818 99.476 218.384 99.5833 218.011 99.798C217.637 100.003 217.348 100.307 217.143 100.708C216.947 101.1 216.849 101.576 216.849 102.136V106H215.855V98.65H216.807V100.638L216.653 100.288C216.877 99.756 217.236 99.3407 217.731 99.042C218.235 98.734 218.827 98.58 219.509 98.58C220.227 98.58 220.839 98.762 221.343 99.126C221.847 99.4807 222.173 100.017 222.323 100.736L221.931 100.582C222.145 99.9847 222.523 99.504 223.065 99.14C223.615 98.7667 224.273 98.58 225.039 98.58ZM233.74 106.07C233.115 106.07 232.569 105.953 232.102 105.72C231.636 105.487 231.272 105.137 231.01 104.67C230.758 104.203 230.632 103.62 230.632 102.92V98.65H231.626V102.808C231.626 103.592 231.818 104.185 232.2 104.586C232.592 104.978 233.138 105.174 233.838 105.174C234.352 105.174 234.795 105.071 235.168 104.866C235.551 104.651 235.84 104.343 236.036 103.942C236.242 103.541 236.344 103.06 236.344 102.5V98.65H237.338V106H236.386V103.984L236.54 104.348C236.307 104.889 235.943 105.314 235.448 105.622C234.963 105.921 234.394 106.07 233.74 106.07ZM243.861 98.58C244.458 98.58 244.981 98.6967 245.429 98.93C245.886 99.154 246.241 99.4993 246.493 99.966C246.754 100.433 246.885 101.021 246.885 101.73V106H245.891V101.828C245.891 101.053 245.695 100.47 245.303 100.078C244.92 99.6767 244.379 99.476 243.679 99.476C243.156 99.476 242.699 99.5833 242.307 99.798C241.924 100.003 241.625 100.307 241.411 100.708C241.205 101.1 241.103 101.576 241.103 102.136V106H240.109V98.65H241.061V100.666L240.907 100.288C241.14 99.756 241.513 99.3407 242.027 99.042C242.54 98.734 243.151 98.58 243.861 98.58ZM252.496 106.07C251.796 106.07 251.166 105.911 250.606 105.594C250.055 105.277 249.621 104.838 249.304 104.278C248.986 103.709 248.828 103.055 248.828 102.318C248.828 101.571 248.986 100.918 249.304 100.358C249.621 99.798 250.055 99.364 250.606 99.056C251.166 98.7387 251.796 98.58 252.496 98.58C253.14 98.58 253.714 98.7247 254.218 99.014C254.731 99.3033 255.137 99.728 255.436 100.288C255.744 100.839 255.898 101.515 255.898 102.318C255.898 103.111 255.748 103.788 255.45 104.348C255.151 104.908 254.745 105.337 254.232 105.636C253.728 105.925 253.149 106.07 252.496 106.07ZM252.566 105.188C253.088 105.188 253.555 105.071 253.966 104.838C254.386 104.595 254.712 104.259 254.946 103.83C255.188 103.391 255.31 102.887 255.31 102.318C255.31 101.739 255.188 101.235 254.946 100.806C254.712 100.377 254.386 100.045 253.966 99.812C253.555 99.5693 253.088 99.448 252.566 99.448C252.052 99.448 251.59 99.5693 251.18 99.812C250.769 100.045 250.442 100.377 250.2 100.806C249.957 101.235 249.836 101.739 249.836 102.318C249.836 102.887 249.957 103.391 250.2 103.83C250.442 104.259 250.769 104.595 251.18 104.838C251.59 105.071 252.052 105.188 252.566 105.188ZM255.338 106V103.788L255.436 102.304L255.296 100.82V95.612H256.29V106H255.338ZM259.058 106V98.65H260.052V106H259.058ZM259.562 97.026C259.357 97.026 259.184 96.956 259.044 96.816C258.904 96.676 258.834 96.508 258.834 96.312C258.834 96.116 258.904 95.9527 259.044 95.822C259.184 95.682 259.357 95.612 259.562 95.612C259.767 95.612 259.94 95.6773 260.08 95.808C260.22 95.9387 260.29 96.102 260.29 96.298C260.29 96.5033 260.22 96.676 260.08 96.816C259.949 96.956 259.777 97.026 259.562 97.026ZM267.424 106V104.376L267.382 104.11V101.394C267.382 100.769 267.204 100.288 266.85 99.952C266.504 99.616 265.986 99.448 265.296 99.448C264.82 99.448 264.367 99.5273 263.938 99.686C263.508 99.8447 263.144 100.055 262.846 100.316L262.398 99.574C262.771 99.2567 263.219 99.014 263.742 98.846C264.264 98.6687 264.815 98.58 265.394 98.58C266.346 98.58 267.078 98.818 267.592 99.294C268.114 99.7607 268.376 100.475 268.376 101.436V106H267.424ZM264.89 106.07C264.339 106.07 263.858 105.981 263.448 105.804C263.046 105.617 262.738 105.365 262.524 105.048C262.309 104.721 262.202 104.348 262.202 103.928C262.202 103.545 262.29 103.2 262.468 102.892C262.654 102.575 262.953 102.323 263.364 102.136C263.784 101.94 264.344 101.842 265.044 101.842H267.578V102.584H265.072C264.362 102.584 263.868 102.71 263.588 102.962C263.317 103.214 263.182 103.527 263.182 103.9C263.182 104.32 263.345 104.656 263.672 104.908C263.998 105.16 264.456 105.286 265.044 105.286C265.604 105.286 266.084 105.16 266.486 104.908C266.896 104.647 267.195 104.273 267.382 103.788L267.606 104.474C267.419 104.959 267.092 105.347 266.626 105.636C266.168 105.925 265.59 106.07 264.89 106.07ZM271.075 106V95.612H272.069V106H271.075ZM24.312 128.07C23.612 128.07 22.982 127.911 22.422 127.594C21.8713 127.277 21.4373 126.838 21.12 126.278C20.8027 125.718 20.644 125.065 20.644 124.318C20.644 123.581 20.8027 122.932 21.12 122.372C21.4373 121.803 21.8713 121.364 22.422 121.056C22.982 120.739 23.612 120.58 24.312 120.58C24.9653 120.58 25.544 120.725 26.048 121.014C26.5613 121.303 26.9673 121.728 27.266 122.288C27.5647 122.839 27.714 123.515 27.714 124.318C27.714 125.121 27.56 125.802 27.252 126.362C26.9533 126.913 26.5473 127.337 26.034 127.636C25.53 127.925 24.956 128.07 24.312 128.07ZM24.382 127.188C24.9047 127.188 25.3713 127.071 25.782 126.838C26.202 126.595 26.5287 126.259 26.762 125.83C27.0047 125.391 27.126 124.887 27.126 124.318C27.126 123.749 27.0047 123.249 26.762 122.82C26.5287 122.391 26.202 122.055 25.782 121.812C25.3713 121.569 24.9047 121.448 24.382 121.448C23.8687 121.448 23.4067 121.569 22.996 121.812C22.5853 122.055 22.2587 122.391 22.016 122.82C21.7733 123.249 21.652 123.749 21.652 124.318C21.652 124.887 21.7733 125.391 22.016 125.83C22.2587 126.259 22.5853 126.595 22.996 126.838C23.4067 127.071 23.8687 127.188 24.382 127.188ZM27.112 130.716V125.816L27.252 124.332L27.154 122.862V120.65H28.106V130.716H27.112ZM33.9123 128.07C33.2869 128.07 32.7409 127.953 32.2743 127.72C31.8076 127.487 31.4436 127.137 31.1823 126.67C30.9303 126.203 30.8043 125.62 30.8043 124.92V120.65H31.7983V124.808C31.7983 125.592 31.9896 126.185 32.3723 126.586C32.7643 126.978 33.3103 127.174 34.0103 127.174C34.5236 127.174 34.9669 127.071 35.3403 126.866C35.7229 126.651 36.0123 126.343 36.2083 125.942C36.4136 125.541 36.5163 125.06 36.5163 124.5V120.65H37.5103V128H36.5583V125.984L36.7123 126.348C36.4789 126.889 36.1149 127.314 35.6203 127.622C35.1349 127.921 34.5656 128.07 33.9123 128.07ZM43.4025 128.07C42.6372 128.07 41.9652 127.911 41.3865 127.594C40.8079 127.267 40.3552 126.824 40.0285 126.264C39.7019 125.695 39.5385 125.046 39.5385 124.318C39.5385 123.59 39.6925 122.946 40.0005 122.386C40.3179 121.826 40.7472 121.387 41.2885 121.07C41.8392 120.743 42.4552 120.58 43.1365 120.58C43.8272 120.58 44.4385 120.739 44.9705 121.056C45.5119 121.364 45.9365 121.803 46.2445 122.372C46.5525 122.932 46.7065 123.581 46.7065 124.318C46.7065 124.365 46.7019 124.416 46.6925 124.472C46.6925 124.519 46.6925 124.57 46.6925 124.626H40.2945V123.884H46.1605L45.7685 124.178C45.7685 123.646 45.6519 123.175 45.4185 122.764C45.1945 122.344 44.8865 122.017 44.4945 121.784C44.1025 121.551 43.6499 121.434 43.1365 121.434C42.6325 121.434 42.1799 121.551 41.7785 121.784C41.3772 122.017 41.0645 122.344 40.8405 122.764C40.6165 123.184 40.5045 123.665 40.5045 124.206V124.36C40.5045 124.92 40.6259 125.415 40.8685 125.844C41.1205 126.264 41.4659 126.595 41.9045 126.838C42.3525 127.071 42.8612 127.188 43.4305 127.188C43.8785 127.188 44.2939 127.109 44.6765 126.95C45.0685 126.791 45.4045 126.549 45.6845 126.222L46.2445 126.866C45.9179 127.258 45.5072 127.557 45.0125 127.762C44.5272 127.967 43.9905 128.07 43.4025 128.07ZM55.3198 128.07C54.6198 128.07 53.9898 127.911 53.4298 127.594C52.8791 127.277 52.4451 126.838 52.1278 126.278C51.8105 125.718 51.6518 125.065 51.6518 124.318C51.6518 123.581 51.8105 122.932 52.1278 122.372C52.4451 121.803 52.8791 121.364 53.4298 121.056C53.9898 120.739 54.6198 120.58 55.3198 120.58C55.9731 120.58 56.5518 120.725 57.0558 121.014C57.5691 121.303 57.9751 121.728 58.2738 122.288C58.5725 122.839 58.7218 123.515 58.7218 124.318C58.7218 125.121 58.5678 125.802 58.2598 126.362C57.9611 126.913 57.5551 127.337 57.0418 127.636C56.5378 127.925 55.9638 128.07 55.3198 128.07ZM55.3898 127.188C55.9125 127.188 56.3791 127.071 56.7898 126.838C57.2098 126.595 57.5365 126.259 57.7698 125.83C58.0125 125.391 58.1338 124.887 58.1338 124.318C58.1338 123.749 58.0125 123.249 57.7698 122.82C57.5365 122.391 57.2098 122.055 56.7898 121.812C56.3791 121.569 55.9125 121.448 55.3898 121.448C54.8765 121.448 54.4145 121.569 54.0038 121.812C53.5931 122.055 53.2665 122.391 53.0238 122.82C52.7811 123.249 52.6598 123.749 52.6598 124.318C52.6598 124.887 52.7811 125.391 53.0238 125.83C53.2665 126.259 53.5931 126.595 54.0038 126.838C54.4145 127.071 54.8765 127.188 55.3898 127.188ZM58.1198 130.716V125.816L58.2598 124.332L58.1618 122.862V120.65H59.1138V130.716H58.1198ZM64.9201 128.07C64.2948 128.07 63.7488 127.953 63.2821 127.72C62.8154 127.487 62.4514 127.137 62.1901 126.67C61.9381 126.203 61.8121 125.62 61.8121 124.92V120.65H62.8061V124.808C62.8061 125.592 62.9974 126.185 63.3801 126.586C63.7721 126.978 64.3181 127.174 65.0181 127.174C65.5314 127.174 65.9748 127.071 66.3481 126.866C66.7308 126.651 67.0201 126.343 67.2161 125.942C67.4214 125.541 67.5241 125.06 67.5241 124.5V120.65H68.5181V128H67.5661V125.984L67.7201 126.348C67.4868 126.889 67.1228 127.314 66.6281 127.622C66.1428 127.921 65.5734 128.07 64.9201 128.07ZM74.4103 128.07C73.645 128.07 72.973 127.911 72.3943 127.594C71.8157 127.267 71.363 126.824 71.0363 126.264C70.7097 125.695 70.5463 125.046 70.5463 124.318C70.5463 123.59 70.7003 122.946 71.0083 122.386C71.3257 121.826 71.755 121.387 72.2963 121.07C72.847 120.743 73.463 120.58 74.1443 120.58C74.835 120.58 75.4463 120.739 75.9783 121.056C76.5197 121.364 76.9443 121.803 77.2523 122.372C77.5603 122.932 77.7143 123.581 77.7143 124.318C77.7143 124.365 77.7097 124.416 77.7003 124.472C77.7003 124.519 77.7003 124.57 77.7003 124.626H71.3023V123.884H77.1683L76.7763 124.178C76.7763 123.646 76.6597 123.175 76.4263 122.764C76.2023 122.344 75.8943 122.017 75.5023 121.784C75.1103 121.551 74.6577 121.434 74.1443 121.434C73.6403 121.434 73.1877 121.551 72.7863 121.784C72.385 122.017 72.0723 122.344 71.8483 122.764C71.6243 123.184 71.5123 123.665 71.5123 124.206V124.36C71.5123 124.92 71.6337 125.415 71.8763 125.844C72.1283 126.264 72.4737 126.595 72.9123 126.838C73.3603 127.071 73.869 127.188 74.4383 127.188C74.8863 127.188 75.3017 127.109 75.6843 126.95C76.0763 126.791 76.4123 126.549 76.6923 126.222L77.2523 126.866C76.9257 127.258 76.515 127.557 76.0203 127.762C75.535 127.967 74.9983 128.07 74.4103 128.07ZM79.7376 128V120.65H80.6896V122.652L80.5916 122.302C80.7969 121.742 81.1422 121.317 81.6276 121.028C82.1129 120.729 82.7149 120.58 83.4336 120.58V121.546C83.3962 121.546 83.3589 121.546 83.3216 121.546C83.2842 121.537 83.2469 121.532 83.2096 121.532C82.4349 121.532 81.8282 121.77 81.3896 122.246C80.9509 122.713 80.7316 123.38 80.7316 124.248V128H79.7376ZM88.301 128.07C87.5356 128.07 86.8636 127.911 86.285 127.594C85.7063 127.267 85.2536 126.824 84.927 126.264C84.6003 125.695 84.437 125.046 84.437 124.318C84.437 123.59 84.591 122.946 84.899 122.386C85.2163 121.826 85.6456 121.387 86.187 121.07C86.7376 120.743 87.3536 120.58 88.035 120.58C88.7256 120.58 89.337 120.739 89.869 121.056C90.4103 121.364 90.835 121.803 91.143 122.372C91.451 122.932 91.605 123.581 91.605 124.318C91.605 124.365 91.6003 124.416 91.591 124.472C91.591 124.519 91.591 124.57 91.591 124.626H85.193V123.884H91.059L90.667 124.178C90.667 123.646 90.5503 123.175 90.317 122.764C90.093 122.344 89.785 122.017 89.393 121.784C89.001 121.551 88.5483 121.434 88.035 121.434C87.531 121.434 87.0783 121.551 86.677 121.784C86.2756 122.017 85.963 122.344 85.739 122.764C85.515 123.184 85.403 123.665 85.403 124.206V124.36C85.403 124.92 85.5243 125.415 85.767 125.844C86.019 126.264 86.3643 126.595 86.803 126.838C87.251 127.071 87.7596 127.188 88.329 127.188C88.777 127.188 89.1923 127.109 89.575 126.95C89.967 126.791 90.303 126.549 90.583 126.222L91.143 126.866C90.8163 127.258 90.4056 127.557 89.911 127.762C89.4256 127.967 88.889 128.07 88.301 128.07ZM102.812 120.58C103.41 120.58 103.928 120.697 104.366 120.93C104.814 121.154 105.16 121.499 105.402 121.966C105.654 122.433 105.78 123.021 105.78 123.73V128H104.786V123.828C104.786 123.053 104.6 122.47 104.226 122.078C103.862 121.677 103.344 121.476 102.672 121.476C102.168 121.476 101.73 121.583 101.356 121.798C100.992 122.003 100.708 122.307 100.502 122.708C100.306 123.1 100.208 123.576 100.208 124.136V128H99.2142V123.828C99.2142 123.053 99.0275 122.47 98.6542 122.078C98.2809 121.677 97.7582 121.476 97.0862 121.476C96.5915 121.476 96.1575 121.583 95.7842 121.798C95.4109 122.003 95.1215 122.307 94.9162 122.708C94.7202 123.1 94.6222 123.576 94.6222 124.136V128H93.6282V120.65H94.5802V122.638L94.4262 122.288C94.6502 121.756 95.0095 121.341 95.5042 121.042C96.0082 120.734 96.6009 120.58 97.2822 120.58C98.0009 120.58 98.6122 120.762 99.1162 121.126C99.6202 121.481 99.9469 122.017 100.096 122.736L99.7042 122.582C99.9189 121.985 100.297 121.504 100.838 121.14C101.389 120.767 102.047 120.58 102.812 120.58ZM111.472 128.07C110.763 128.07 110.123 127.911 109.554 127.594C108.994 127.267 108.551 126.824 108.224 126.264C107.897 125.695 107.734 125.046 107.734 124.318C107.734 123.581 107.897 122.932 108.224 122.372C108.551 121.812 108.994 121.373 109.554 121.056C110.114 120.739 110.753 120.58 111.472 120.58C112.2 120.58 112.844 120.739 113.404 121.056C113.973 121.373 114.417 121.812 114.734 122.372C115.061 122.932 115.224 123.581 115.224 124.318C115.224 125.046 115.061 125.695 114.734 126.264C114.417 126.824 113.973 127.267 113.404 127.594C112.835 127.911 112.191 128.07 111.472 128.07ZM111.472 127.188C112.004 127.188 112.475 127.071 112.886 126.838C113.297 126.595 113.619 126.259 113.852 125.83C114.095 125.391 114.216 124.887 114.216 124.318C114.216 123.739 114.095 123.235 113.852 122.806C113.619 122.377 113.297 122.045 112.886 121.812C112.475 121.569 112.009 121.448 111.486 121.448C110.963 121.448 110.497 121.569 110.086 121.812C109.675 122.045 109.349 122.377 109.106 122.806C108.863 123.235 108.742 123.739 108.742 124.318C108.742 124.887 108.863 125.391 109.106 125.83C109.349 126.259 109.675 126.595 110.086 126.838C110.497 127.071 110.959 127.188 111.472 127.188ZM119.227 128.07C118.621 128.07 118.047 127.986 117.505 127.818C116.964 127.641 116.539 127.421 116.231 127.16L116.679 126.376C116.978 126.6 117.361 126.796 117.827 126.964C118.294 127.123 118.784 127.202 119.297 127.202C119.997 127.202 120.501 127.095 120.809 126.88C121.117 126.656 121.271 126.362 121.271 125.998C121.271 125.727 121.183 125.517 121.005 125.368C120.837 125.209 120.613 125.093 120.333 125.018C120.053 124.934 119.741 124.864 119.395 124.808C119.05 124.752 118.705 124.687 118.359 124.612C118.023 124.537 117.715 124.43 117.435 124.29C117.155 124.141 116.927 123.94 116.749 123.688C116.581 123.436 116.497 123.1 116.497 122.68C116.497 122.279 116.609 121.919 116.833 121.602C117.057 121.285 117.384 121.037 117.813 120.86C118.252 120.673 118.784 120.58 119.409 120.58C119.885 120.58 120.361 120.645 120.837 120.776C121.313 120.897 121.705 121.061 122.013 121.266L121.579 122.064C121.253 121.84 120.903 121.681 120.529 121.588C120.156 121.485 119.783 121.434 119.409 121.434C118.747 121.434 118.257 121.551 117.939 121.784C117.631 122.008 117.477 122.297 117.477 122.652C117.477 122.932 117.561 123.151 117.729 123.31C117.907 123.469 118.135 123.595 118.415 123.688C118.705 123.772 119.017 123.842 119.353 123.898C119.699 123.954 120.039 124.024 120.375 124.108C120.721 124.183 121.033 124.29 121.313 124.43C121.603 124.561 121.831 124.752 121.999 125.004C122.177 125.247 122.265 125.569 122.265 125.97C122.265 126.399 122.144 126.773 121.901 127.09C121.668 127.398 121.323 127.641 120.865 127.818C120.417 127.986 119.871 128.07 119.227 128.07ZM127.753 128V120.65H128.705V122.652L128.607 122.302C128.813 121.742 129.158 121.317 129.643 121.028C130.129 120.729 130.731 120.58 131.449 120.58V121.546C131.412 121.546 131.375 121.546 131.337 121.546C131.3 121.537 131.263 121.532 131.225 121.532C130.451 121.532 129.844 121.77 129.405 122.246C128.967 122.713 128.747 123.38 128.747 124.248V128H127.753ZM136.317 128.07C135.551 128.07 134.879 127.911 134.301 127.594C133.722 127.267 133.269 126.824 132.943 126.264C132.616 125.695 132.453 125.046 132.453 124.318C132.453 123.59 132.607 122.946 132.915 122.386C133.232 121.826 133.661 121.387 134.203 121.07C134.753 120.743 135.369 120.58 136.051 120.58C136.741 120.58 137.353 120.739 137.885 121.056C138.426 121.364 138.851 121.803 139.159 122.372C139.467 122.932 139.621 123.581 139.621 124.318C139.621 124.365 139.616 124.416 139.607 124.472C139.607 124.519 139.607 124.57 139.607 124.626H133.209V123.884H139.075L138.683 124.178C138.683 123.646 138.566 123.175 138.333 122.764C138.109 122.344 137.801 122.017 137.409 121.784C137.017 121.551 136.564 121.434 136.051 121.434C135.547 121.434 135.094 121.551 134.693 121.784C134.291 122.017 133.979 122.344 133.755 122.764C133.531 123.184 133.419 123.665 133.419 124.206V124.36C133.419 124.92 133.54 125.415 133.783 125.844C134.035 126.264 134.38 126.595 134.819 126.838C135.267 127.071 135.775 127.188 136.345 127.188C136.793 127.188 137.208 127.109 137.591 126.95C137.983 126.791 138.319 126.549 138.599 126.222L139.159 126.866C138.832 127.258 138.421 127.557 137.927 127.762C137.441 127.967 136.905 128.07 136.317 128.07ZM143.618 128.07C143.011 128.07 142.437 127.986 141.896 127.818C141.354 127.641 140.93 127.421 140.622 127.16L141.07 126.376C141.368 126.6 141.751 126.796 142.218 126.964C142.684 127.123 143.174 127.202 143.688 127.202C144.388 127.202 144.892 127.095 145.2 126.88C145.508 126.656 145.662 126.362 145.662 125.998C145.662 125.727 145.573 125.517 145.396 125.368C145.228 125.209 145.004 125.093 144.724 125.018C144.444 124.934 144.131 124.864 143.786 124.808C143.44 124.752 143.095 124.687 142.75 124.612C142.414 124.537 142.106 124.43 141.826 124.29C141.546 124.141 141.317 123.94 141.14 123.688C140.972 123.436 140.888 123.1 140.888 122.68C140.888 122.279 141 121.919 141.224 121.602C141.448 121.285 141.774 121.037 142.204 120.86C142.642 120.673 143.174 120.58 143.8 120.58C144.276 120.58 144.752 120.645 145.228 120.776C145.704 120.897 146.096 121.061 146.404 121.266L145.97 122.064C145.643 121.84 145.293 121.681 144.92 121.588C144.546 121.485 144.173 121.434 143.8 121.434C143.137 121.434 142.647 121.551 142.33 121.784C142.022 122.008 141.868 122.297 141.868 122.652C141.868 122.932 141.952 123.151 142.12 123.31C142.297 123.469 142.526 123.595 142.806 123.688C143.095 123.772 143.408 123.842 143.744 123.898C144.089 123.954 144.43 124.024 144.766 124.108C145.111 124.183 145.424 124.29 145.704 124.43C145.993 124.561 146.222 124.752 146.39 125.004C146.567 125.247 146.656 125.569 146.656 125.97C146.656 126.399 146.534 126.773 146.292 127.09C146.058 127.398 145.713 127.641 145.256 127.818C144.808 127.986 144.262 128.07 143.618 128.07ZM151.476 128.07C150.766 128.07 150.127 127.911 149.558 127.594C148.998 127.267 148.554 126.824 148.228 126.264C147.901 125.695 147.738 125.046 147.738 124.318C147.738 123.581 147.901 122.932 148.228 122.372C148.554 121.812 148.998 121.373 149.558 121.056C150.118 120.739 150.757 120.58 151.476 120.58C152.204 120.58 152.848 120.739 153.408 121.056C153.977 121.373 154.42 121.812 154.738 122.372C155.064 122.932 155.228 123.581 155.228 124.318C155.228 125.046 155.064 125.695 154.738 126.264C154.42 126.824 153.977 127.267 153.408 127.594C152.838 127.911 152.194 128.07 151.476 128.07ZM151.476 127.188C152.008 127.188 152.479 127.071 152.89 126.838C153.3 126.595 153.622 126.259 153.856 125.83C154.098 125.391 154.22 124.887 154.22 124.318C154.22 123.739 154.098 123.235 153.856 122.806C153.622 122.377 153.3 122.045 152.89 121.812C152.479 121.569 152.012 121.448 151.49 121.448C150.967 121.448 150.5 121.569 150.09 121.812C149.679 122.045 149.352 122.377 149.11 122.806C148.867 123.235 148.746 123.739 148.746 124.318C148.746 124.887 148.867 125.391 149.11 125.83C149.352 126.259 149.679 126.595 150.09 126.838C150.5 127.071 150.962 127.188 151.476 127.188ZM157.257 128V117.612H158.251V128H157.257ZM162.907 128L159.645 120.65H160.681L163.677 127.468H163.187L166.225 120.65H167.205L163.929 128H162.907ZM171.522 128.07C170.756 128.07 170.084 127.911 169.506 127.594C168.927 127.267 168.474 126.824 168.148 126.264C167.821 125.695 167.658 125.046 167.658 124.318C167.658 123.59 167.812 122.946 168.12 122.386C168.437 121.826 168.866 121.387 169.408 121.07C169.958 120.743 170.574 120.58 171.256 120.58C171.946 120.58 172.558 120.739 173.09 121.056C173.631 121.364 174.056 121.803 174.364 122.372C174.672 122.932 174.826 123.581 174.826 124.318C174.826 124.365 174.821 124.416 174.812 124.472C174.812 124.519 174.812 124.57 174.812 124.626H168.414V123.884H174.28L173.888 124.178C173.888 123.646 173.771 123.175 173.538 122.764C173.314 122.344 173.006 122.017 172.614 121.784C172.222 121.551 171.769 121.434 171.256 121.434C170.752 121.434 170.299 121.551 169.898 121.784C169.496 122.017 169.184 122.344 168.96 122.764C168.736 123.184 168.624 123.665 168.624 124.206V124.36C168.624 124.92 168.745 125.415 168.988 125.844C169.24 126.264 169.585 126.595 170.024 126.838C170.472 127.071 170.98 127.188 171.55 127.188C171.998 127.188 172.413 127.109 172.796 126.95C173.188 126.791 173.524 126.549 173.804 126.222L174.364 126.866C174.037 127.258 173.626 127.557 173.132 127.762C172.646 127.967 172.11 128.07 171.522 128.07ZM176.849 128V120.65H177.801V122.652L177.703 122.302C177.908 121.742 178.254 121.317 178.739 121.028C179.224 120.729 179.826 120.58 180.545 120.58V121.546C180.508 121.546 180.47 121.546 180.433 121.546C180.396 121.537 180.358 121.532 180.321 121.532C179.546 121.532 178.94 121.77 178.501 122.246C178.062 122.713 177.843 123.38 177.843 124.248V128H176.849ZM189.926 128.07C189.291 128.07 188.717 127.925 188.204 127.636C187.691 127.337 187.28 126.913 186.972 126.362C186.673 125.802 186.524 125.121 186.524 124.318C186.524 123.515 186.673 122.839 186.972 122.288C187.271 121.728 187.677 121.303 188.19 121.014C188.703 120.725 189.282 120.58 189.926 120.58C190.626 120.58 191.251 120.739 191.802 121.056C192.362 121.364 192.801 121.803 193.118 122.372C193.435 122.932 193.594 123.581 193.594 124.318C193.594 125.065 193.435 125.718 193.118 126.278C192.801 126.838 192.362 127.277 191.802 127.594C191.251 127.911 190.626 128.07 189.926 128.07ZM186.132 130.716V120.65H187.084V122.862L186.986 124.332L187.126 125.816V130.716H186.132ZM189.856 127.188C190.379 127.188 190.845 127.071 191.256 126.838C191.667 126.595 191.993 126.259 192.236 125.83C192.479 125.391 192.6 124.887 192.6 124.318C192.6 123.749 192.479 123.249 192.236 122.82C191.993 122.391 191.667 122.055 191.256 121.812C190.845 121.569 190.379 121.448 189.856 121.448C189.333 121.448 188.862 121.569 188.442 121.812C188.031 122.055 187.705 122.391 187.462 122.82C187.229 123.249 187.112 123.749 187.112 124.318C187.112 124.887 187.229 125.391 187.462 125.83C187.705 126.259 188.031 126.595 188.442 126.838C188.862 127.071 189.333 127.188 189.856 127.188ZM200.185 128V126.376L200.143 126.11V123.394C200.143 122.769 199.966 122.288 199.611 121.952C199.266 121.616 198.748 121.448 198.057 121.448C197.581 121.448 197.129 121.527 196.699 121.686C196.27 121.845 195.906 122.055 195.607 122.316L195.159 121.574C195.533 121.257 195.981 121.014 196.503 120.846C197.026 120.669 197.577 120.58 198.155 120.58C199.107 120.58 199.84 120.818 200.353 121.294C200.876 121.761 201.137 122.475 201.137 123.436V128H200.185ZM197.651 128.07C197.101 128.07 196.62 127.981 196.209 127.804C195.808 127.617 195.5 127.365 195.285 127.048C195.071 126.721 194.963 126.348 194.963 125.928C194.963 125.545 195.052 125.2 195.229 124.892C195.416 124.575 195.715 124.323 196.125 124.136C196.545 123.94 197.105 123.842 197.805 123.842H200.339V124.584H197.833C197.124 124.584 196.629 124.71 196.349 124.962C196.079 125.214 195.943 125.527 195.943 125.9C195.943 126.32 196.107 126.656 196.433 126.908C196.76 127.16 197.217 127.286 197.805 127.286C198.365 127.286 198.846 127.16 199.247 126.908C199.658 126.647 199.957 126.273 200.143 125.788L200.367 126.474C200.181 126.959 199.854 127.347 199.387 127.636C198.93 127.925 198.351 128.07 197.651 128.07ZM203.837 128V120.65H204.789V122.652L204.691 122.302C204.897 121.742 205.242 121.317 205.727 121.028C206.213 120.729 206.815 120.58 207.533 120.58V121.546C207.496 121.546 207.459 121.546 207.421 121.546C207.384 121.537 207.347 121.532 207.309 121.532C206.535 121.532 205.928 121.77 205.489 122.246C205.051 122.713 204.831 123.38 204.831 124.248V128H203.837ZM213.406 128V126.376L213.364 126.11V123.394C213.364 122.769 213.187 122.288 212.832 121.952C212.487 121.616 211.969 121.448 211.278 121.448C210.802 121.448 210.349 121.527 209.92 121.686C209.491 121.845 209.127 122.055 208.828 122.316L208.38 121.574C208.753 121.257 209.201 121.014 209.724 120.846C210.247 120.669 210.797 120.58 211.376 120.58C212.328 120.58 213.061 120.818 213.574 121.294C214.097 121.761 214.358 122.475 214.358 123.436V128H213.406ZM210.872 128.07C210.321 128.07 209.841 127.981 209.43 127.804C209.029 127.617 208.721 127.365 208.506 127.048C208.291 126.721 208.184 126.348 208.184 125.928C208.184 125.545 208.273 125.2 208.45 124.892C208.637 124.575 208.935 124.323 209.346 124.136C209.766 123.94 210.326 123.842 211.026 123.842H213.56V124.584H211.054C210.345 124.584 209.85 124.71 209.57 124.962C209.299 125.214 209.164 125.527 209.164 125.9C209.164 126.32 209.327 126.656 209.654 126.908C209.981 127.16 210.438 127.286 211.026 127.286C211.586 127.286 212.067 127.16 212.468 126.908C212.879 126.647 213.177 126.273 213.364 125.788L213.588 126.474C213.401 126.959 213.075 127.347 212.608 127.636C212.151 127.925 211.572 128.07 210.872 128.07ZM222.696 128.07C222.089 128.07 221.515 127.986 220.974 127.818C220.433 127.641 220.008 127.421 219.7 127.16L220.148 126.376C220.447 126.6 220.829 126.796 221.296 126.964C221.763 127.123 222.253 127.202 222.766 127.202C223.466 127.202 223.97 127.095 224.278 126.88C224.586 126.656 224.74 126.362 224.74 125.998C224.74 125.727 224.651 125.517 224.474 125.368C224.306 125.209 224.082 125.093 223.802 125.018C223.522 124.934 223.209 124.864 222.864 124.808C222.519 124.752 222.173 124.687 221.828 124.612C221.492 124.537 221.184 124.43 220.904 124.29C220.624 124.141 220.395 123.94 220.218 123.688C220.05 123.436 219.966 123.1 219.966 122.68C219.966 122.279 220.078 121.919 220.302 121.602C220.526 121.285 220.853 121.037 221.282 120.86C221.721 120.673 222.253 120.58 222.878 120.58C223.354 120.58 223.83 120.645 224.306 120.776C224.782 120.897 225.174 121.061 225.482 121.266L225.048 122.064C224.721 121.84 224.371 121.681 223.998 121.588C223.625 121.485 223.251 121.434 222.878 121.434C222.215 121.434 221.725 121.551 221.408 121.784C221.1 122.008 220.946 122.297 220.946 122.652C220.946 122.932 221.03 123.151 221.198 123.31C221.375 123.469 221.604 123.595 221.884 123.688C222.173 123.772 222.486 123.842 222.822 123.898C223.167 123.954 223.508 124.024 223.844 124.108C224.189 124.183 224.502 124.29 224.782 124.43C225.071 124.561 225.3 124.752 225.468 125.004C225.645 125.247 225.734 125.569 225.734 125.97C225.734 126.399 225.613 126.773 225.37 127.09C225.137 127.398 224.791 127.641 224.334 127.818C223.886 127.986 223.34 128.07 222.696 128.07ZM227.558 128V120.65H228.552V128H227.558ZM228.062 119.026C227.857 119.026 227.684 118.956 227.544 118.816C227.404 118.676 227.334 118.508 227.334 118.312C227.334 118.116 227.404 117.953 227.544 117.822C227.684 117.682 227.857 117.612 228.062 117.612C228.267 117.612 228.44 117.677 228.58 117.808C228.72 117.939 228.79 118.102 228.79 118.298C228.79 118.503 228.72 118.676 228.58 118.816C228.449 118.956 228.277 119.026 228.062 119.026ZM234.44 128.07C233.674 128.07 233.002 127.911 232.424 127.594C231.845 127.267 231.392 126.824 231.066 126.264C230.739 125.695 230.576 125.046 230.576 124.318C230.576 123.59 230.73 122.946 231.038 122.386C231.355 121.826 231.784 121.387 232.326 121.07C232.876 120.743 233.492 120.58 234.174 120.58C234.864 120.58 235.476 120.739 236.008 121.056C236.549 121.364 236.974 121.803 237.282 122.372C237.59 122.932 237.744 123.581 237.744 124.318C237.744 124.365 237.739 124.416 237.73 124.472C237.73 124.519 237.73 124.57 237.73 124.626H231.332V123.884H237.198L236.806 124.178C236.806 123.646 236.689 123.175 236.456 122.764C236.232 122.344 235.924 122.017 235.532 121.784C235.14 121.551 234.687 121.434 234.174 121.434C233.67 121.434 233.217 121.551 232.816 121.784C232.414 122.017 232.102 122.344 231.878 122.764C231.654 123.184 231.542 123.665 231.542 124.206V124.36C231.542 124.92 231.663 125.415 231.906 125.844C232.158 126.264 232.503 126.595 232.942 126.838C233.39 127.071 233.898 127.188 234.468 127.188C234.916 127.188 235.331 127.109 235.714 126.95C236.106 126.791 236.442 126.549 236.722 126.222L237.282 126.866C236.955 127.258 236.544 127.557 236.05 127.762C235.564 127.967 235.028 128.07 234.44 128.07ZM248.951 120.58C249.548 120.58 250.066 120.697 250.505 120.93C250.953 121.154 251.298 121.499 251.541 121.966C251.793 122.433 251.919 123.021 251.919 123.73V128H250.925V123.828C250.925 123.053 250.738 122.47 250.365 122.078C250.001 121.677 249.483 121.476 248.811 121.476C248.307 121.476 247.868 121.583 247.495 121.798C247.131 122.003 246.846 122.307 246.641 122.708C246.445 123.1 246.347 123.576 246.347 124.136V128H245.353V123.828C245.353 123.053 245.166 122.47 244.793 122.078C244.42 121.677 243.897 121.476 243.225 121.476C242.73 121.476 242.296 121.583 241.923 121.798C241.55 122.003 241.26 122.307 241.055 122.708C240.859 123.1 240.761 123.576 240.761 124.136V128H239.767V120.65H240.719V122.638L240.565 122.288C240.789 121.756 241.148 121.341 241.643 121.042C242.147 120.734 242.74 120.58 243.421 120.58C244.14 120.58 244.751 120.762 245.255 121.126C245.759 121.481 246.086 122.017 246.235 122.736L245.843 122.582C246.058 121.985 246.436 121.504 246.977 121.14C247.528 120.767 248.186 120.58 248.951 120.58ZM258.409 128.07C257.774 128.07 257.2 127.925 256.687 127.636C256.173 127.337 255.763 126.913 255.455 126.362C255.156 125.802 255.007 125.121 255.007 124.318C255.007 123.515 255.156 122.839 255.455 122.288C255.753 121.728 256.159 121.303 256.673 121.014C257.186 120.725 257.765 120.58 258.409 120.58C259.109 120.58 259.734 120.739 260.285 121.056C260.845 121.364 261.283 121.803 261.601 122.372C261.918 122.932 262.077 123.581 262.077 124.318C262.077 125.065 261.918 125.718 261.601 126.278C261.283 126.838 260.845 127.277 260.285 127.594C259.734 127.911 259.109 128.07 258.409 128.07ZM254.615 130.716V120.65H255.567V122.862L255.469 124.332L255.609 125.816V130.716H254.615ZM258.339 127.188C258.861 127.188 259.328 127.071 259.739 126.838C260.149 126.595 260.476 126.259 260.719 125.83C260.961 125.391 261.083 124.887 261.083 124.318C261.083 123.749 260.961 123.249 260.719 122.82C260.476 122.391 260.149 122.055 259.739 121.812C259.328 121.569 258.861 121.448 258.339 121.448C257.816 121.448 257.345 121.569 256.925 121.812C256.514 122.055 256.187 122.391 255.945 122.82C255.711 123.249 255.595 123.749 255.595 124.318C255.595 124.887 255.711 125.391 255.945 125.83C256.187 126.259 256.514 126.595 256.925 126.838C257.345 127.071 257.816 127.188 258.339 127.188ZM264.103 128V120.65H265.055V122.652L264.957 122.302C265.162 121.742 265.507 121.317 265.993 121.028C266.478 120.729 267.08 120.58 267.799 120.58V121.546C267.761 121.546 267.724 121.546 267.687 121.546C267.649 121.537 267.612 121.532 267.575 121.532C266.8 121.532 266.193 121.77 265.755 122.246C265.316 122.713 265.097 123.38 265.097 124.248V128H264.103ZM272.666 128.07C271.901 128.07 271.229 127.911 270.65 127.594C270.072 127.267 269.619 126.824 269.292 126.264C268.966 125.695 268.802 125.046 268.802 124.318C268.802 123.59 268.956 122.946 269.264 122.386C269.582 121.826 270.011 121.387 270.552 121.07C271.103 120.743 271.719 120.58 272.4 120.58C273.091 120.58 273.702 120.739 274.234 121.056C274.776 121.364 275.2 121.803 275.508 122.372C275.816 122.932 275.97 123.581 275.97 124.318C275.97 124.365 275.966 124.416 275.956 124.472C275.956 124.519 275.956 124.57 275.956 124.626H269.558V123.884H275.424L275.032 124.178C275.032 123.646 274.916 123.175 274.682 122.764C274.458 122.344 274.15 122.017 273.758 121.784C273.366 121.551 272.914 121.434 272.4 121.434C271.896 121.434 271.444 121.551 271.042 121.784C270.641 122.017 270.328 122.344 270.104 122.764C269.88 123.184 269.768 123.665 269.768 124.206V124.36C269.768 124.92 269.89 125.415 270.132 125.844C270.384 126.264 270.73 126.595 271.168 126.838C271.616 127.071 272.125 127.188 272.694 127.188C273.142 127.188 273.558 127.109 273.94 126.95C274.332 126.791 274.668 126.549 274.948 126.222L275.508 126.866C275.182 127.258 274.771 127.557 274.276 127.762C273.791 127.967 273.254 128.07 272.666 128.07ZM278.091 128.07C277.886 128.07 277.709 127.995 277.559 127.846C277.419 127.697 277.349 127.515 277.349 127.3C277.349 127.076 277.419 126.894 277.559 126.754C277.709 126.614 277.886 126.544 278.091 126.544C278.297 126.544 278.469 126.614 278.609 126.754C278.759 126.894 278.833 127.076 278.833 127.3C278.833 127.515 278.759 127.697 278.609 127.846C278.469 127.995 278.297 128.07 278.091 128.07ZM25.852 150.084C25.1147 150.084 24.4333 149.963 23.808 149.72C23.1827 149.468 22.6413 149.118 22.184 148.67C21.7267 148.222 21.3673 147.695 21.106 147.088C20.854 146.481 20.728 145.819 20.728 145.1C20.728 144.381 20.854 143.719 21.106 143.112C21.3673 142.505 21.7267 141.978 22.184 141.53C22.6507 141.082 23.1967 140.737 23.822 140.494C24.4473 140.242 25.1287 140.116 25.866 140.116C26.5753 140.116 27.2427 140.237 27.868 140.48C28.4933 140.713 29.0207 141.068 29.45 141.544L28.792 142.202C28.3907 141.791 27.9473 141.497 27.462 141.32C26.9767 141.133 26.454 141.04 25.894 141.04C25.306 141.04 24.76 141.143 24.256 141.348C23.752 141.544 23.3133 141.829 22.94 142.202C22.5667 142.566 22.2727 142.995 22.058 143.49C21.8527 143.975 21.75 144.512 21.75 145.1C21.75 145.688 21.8527 146.229 22.058 146.724C22.2727 147.209 22.5667 147.639 22.94 148.012C23.3133 148.376 23.752 148.661 24.256 148.866C24.76 149.062 25.306 149.16 25.894 149.16C26.454 149.16 26.9767 149.067 27.462 148.88C27.9473 148.693 28.3907 148.395 28.792 147.984L29.45 148.642C29.0207 149.118 28.4933 149.477 27.868 149.72C27.2427 149.963 26.5707 150.084 25.852 150.084ZM34.2404 150.07C33.6151 150.07 33.0691 149.953 32.6024 149.72C32.1357 149.487 31.7717 149.137 31.5104 148.67C31.2584 148.203 31.1324 147.62 31.1324 146.92V142.65H32.1264V146.808C32.1264 147.592 32.3177 148.185 32.7004 148.586C33.0924 148.978 33.6384 149.174 34.3384 149.174C34.8517 149.174 35.2951 149.071 35.6684 148.866C36.0511 148.651 36.3404 148.343 36.5364 147.942C36.7417 147.541 36.8444 147.06 36.8444 146.5V142.65H37.8384V150H36.8864V147.984L37.0404 148.348C36.8071 148.889 36.4431 149.314 35.9484 149.622C35.4631 149.921 34.8937 150.07 34.2404 150.07ZM45.2147 150V148.376L45.1727 148.11V145.394C45.1727 144.769 44.9953 144.288 44.6407 143.952C44.2953 143.616 43.7773 143.448 43.0867 143.448C42.6107 143.448 42.158 143.527 41.7287 143.686C41.2993 143.845 40.9353 144.055 40.6367 144.316L40.1887 143.574C40.562 143.257 41.01 143.014 41.5327 142.846C42.0553 142.669 42.606 142.58 43.1847 142.58C44.1367 142.58 44.8693 142.818 45.3827 143.294C45.9053 143.761 46.1667 144.475 46.1667 145.436V150H45.2147ZM42.6807 150.07C42.13 150.07 41.6493 149.981 41.2387 149.804C40.8373 149.617 40.5293 149.365 40.3147 149.048C40.1 148.721 39.9927 148.348 39.9927 147.928C39.9927 147.545 40.0813 147.2 40.2587 146.892C40.4453 146.575 40.744 146.323 41.1547 146.136C41.5747 145.94 42.1347 145.842 42.8347 145.842H45.3687V146.584H42.8627C42.1533 146.584 41.6587 146.71 41.3787 146.962C41.108 147.214 40.9727 147.527 40.9727 147.9C40.9727 148.32 41.136 148.656 41.4627 148.908C41.7893 149.16 42.2467 149.286 42.8347 149.286C43.3947 149.286 43.8753 149.16 44.2767 148.908C44.6873 148.647 44.986 148.273 45.1727 147.788L45.3967 148.474C45.21 148.959 44.8833 149.347 44.4167 149.636C43.9593 149.925 43.3807 150.07 42.6807 150.07ZM52.6185 142.58C53.2158 142.58 53.7385 142.697 54.1865 142.93C54.6438 143.154 54.9985 143.499 55.2505 143.966C55.5118 144.433 55.6425 145.021 55.6425 145.73V150H54.6485V145.828C54.6485 145.053 54.4525 144.47 54.0605 144.078C53.6778 143.677 53.1365 143.476 52.4365 143.476C51.9138 143.476 51.4565 143.583 51.0645 143.798C50.6818 144.003 50.3831 144.307 50.1685 144.708C49.9631 145.1 49.8605 145.576 49.8605 146.136V150H48.8665V142.65H49.8185V144.666L49.6645 144.288C49.8978 143.756 50.2711 143.341 50.7845 143.042C51.2978 142.734 51.9091 142.58 52.6185 142.58ZM61.2534 150.07C60.5534 150.07 59.9234 149.911 59.3634 149.594C58.8127 149.277 58.3787 148.838 58.0614 148.278C57.7441 147.709 57.5854 147.055 57.5854 146.318C57.5854 145.571 57.7441 144.918 58.0614 144.358C58.3787 143.798 58.8127 143.364 59.3634 143.056C59.9234 142.739 60.5534 142.58 61.2534 142.58C61.8974 142.58 62.4714 142.725 62.9754 143.014C63.4887 143.303 63.8947 143.728 64.1934 144.288C64.5014 144.839 64.6554 145.515 64.6554 146.318C64.6554 147.111 64.5061 147.788 64.2074 148.348C63.9087 148.908 63.5027 149.337 62.9894 149.636C62.4854 149.925 61.9067 150.07 61.2534 150.07ZM61.3234 149.188C61.8461 149.188 62.3127 149.071 62.7234 148.838C63.1434 148.595 63.4701 148.259 63.7034 147.83C63.9461 147.391 64.0674 146.887 64.0674 146.318C64.0674 145.739 63.9461 145.235 63.7034 144.806C63.4701 144.377 63.1434 144.045 62.7234 143.812C62.3127 143.569 61.8461 143.448 61.3234 143.448C60.8101 143.448 60.3481 143.569 59.9374 143.812C59.5267 144.045 59.2001 144.377 58.9574 144.806C58.7147 145.235 58.5934 145.739 58.5934 146.318C58.5934 146.887 58.7147 147.391 58.9574 147.83C59.2001 148.259 59.5267 148.595 59.9374 148.838C60.3481 149.071 60.8101 149.188 61.3234 149.188ZM64.0954 150V147.788L64.1934 146.304L64.0534 144.82V139.612H65.0474V150H64.0954ZM70.8117 150.07C70.1024 150.07 69.463 149.911 68.8937 149.594C68.3337 149.267 67.8904 148.824 67.5637 148.264C67.237 147.695 67.0737 147.046 67.0737 146.318C67.0737 145.581 67.237 144.932 67.5637 144.372C67.8904 143.812 68.3337 143.373 68.8937 143.056C69.4537 142.739 70.093 142.58 70.8117 142.58C71.5397 142.58 72.1837 142.739 72.7437 143.056C73.313 143.373 73.7564 143.812 74.0737 144.372C74.4004 144.932 74.5637 145.581 74.5637 146.318C74.5637 147.046 74.4004 147.695 74.0737 148.264C73.7564 148.824 73.313 149.267 72.7437 149.594C72.1744 149.911 71.5304 150.07 70.8117 150.07ZM70.8117 149.188C71.3437 149.188 71.815 149.071 72.2257 148.838C72.6364 148.595 72.9584 148.259 73.1917 147.83C73.4344 147.391 73.5557 146.887 73.5557 146.318C73.5557 145.739 73.4344 145.235 73.1917 144.806C72.9584 144.377 72.6364 144.045 72.2257 143.812C71.815 143.569 71.3484 143.448 70.8257 143.448C70.303 143.448 69.8364 143.569 69.4257 143.812C69.015 144.045 68.6884 144.377 68.4457 144.806C68.203 145.235 68.0817 145.739 68.0817 146.318C68.0817 146.887 68.203 147.391 68.4457 147.83C68.6884 148.259 69.015 148.595 69.4257 148.838C69.8364 149.071 70.2984 149.188 70.8117 149.188ZM80.2571 150V142.65H81.2511V150H80.2571ZM80.7611 141.026C80.5558 141.026 80.3831 140.956 80.2431 140.816C80.1031 140.676 80.0331 140.508 80.0331 140.312C80.0331 140.116 80.1031 139.953 80.2431 139.822C80.3831 139.682 80.5558 139.612 80.7611 139.612C80.9664 139.612 81.1391 139.677 81.2791 139.808C81.4191 139.939 81.4891 140.102 81.4891 140.298C81.4891 140.503 81.4191 140.676 81.2791 140.816C81.1484 140.956 80.9758 141.026 80.7611 141.026ZM87.7689 142.58C88.3662 142.58 88.8889 142.697 89.3369 142.93C89.7942 143.154 90.1489 143.499 90.4009 143.966C90.6622 144.433 90.7929 145.021 90.7929 145.73V150H89.7989V145.828C89.7989 145.053 89.6029 144.47 89.2109 144.078C88.8282 143.677 88.2869 143.476 87.5869 143.476C87.0642 143.476 86.6069 143.583 86.2149 143.798C85.8322 144.003 85.5335 144.307 85.3189 144.708C85.1135 145.1 85.0109 145.576 85.0109 146.136V150H84.0169V142.65H84.9689V144.666L84.8149 144.288C85.0482 143.756 85.4215 143.341 85.9349 143.042C86.4482 142.734 87.0595 142.58 87.7689 142.58ZM95.2311 150L91.9691 142.65H93.0051L96.0011 149.468H95.5111L98.5491 142.65H99.5291L96.2531 150H95.2311ZM100.929 150V142.65H101.923V150H100.929ZM101.433 141.026C101.228 141.026 101.055 140.956 100.915 140.816C100.775 140.676 100.705 140.508 100.705 140.312C100.705 140.116 100.775 139.953 100.915 139.822C101.055 139.682 101.228 139.612 101.433 139.612C101.638 139.612 101.811 139.677 101.951 139.808C102.091 139.939 102.161 140.102 102.161 140.298C102.161 140.503 102.091 140.676 101.951 140.816C101.82 140.956 101.648 141.026 101.433 141.026ZM107.811 150.07C107.045 150.07 106.373 149.911 105.795 149.594C105.216 149.267 104.763 148.824 104.437 148.264C104.11 147.695 103.947 147.046 103.947 146.318C103.947 145.59 104.101 144.946 104.409 144.386C104.726 143.826 105.155 143.387 105.697 143.07C106.247 142.743 106.863 142.58 107.545 142.58C108.235 142.58 108.847 142.739 109.379 143.056C109.92 143.364 110.345 143.803 110.653 144.372C110.961 144.932 111.115 145.581 111.115 146.318C111.115 146.365 111.11 146.416 111.101 146.472C111.101 146.519 111.101 146.57 111.101 146.626H104.703V145.884H110.569L110.177 146.178C110.177 145.646 110.06 145.175 109.827 144.764C109.603 144.344 109.295 144.017 108.903 143.784C108.511 143.551 108.058 143.434 107.545 143.434C107.041 143.434 106.588 143.551 106.187 143.784C105.785 144.017 105.473 144.344 105.249 144.764C105.025 145.184 104.913 145.665 104.913 146.206V146.36C104.913 146.92 105.034 147.415 105.277 147.844C105.529 148.264 105.874 148.595 106.313 148.838C106.761 149.071 107.269 149.188 107.839 149.188C108.287 149.188 108.702 149.109 109.085 148.95C109.477 148.791 109.813 148.549 110.093 148.222L110.653 148.866C110.326 149.258 109.915 149.557 109.421 149.762C108.935 149.967 108.399 150.07 107.811 150.07ZM113.138 150V142.65H114.09V144.652L113.992 144.302C114.197 143.742 114.543 143.317 115.028 143.028C115.513 142.729 116.115 142.58 116.834 142.58V143.546C116.797 143.546 116.759 143.546 116.722 143.546C116.685 143.537 116.647 143.532 116.61 143.532C115.835 143.532 115.229 143.77 114.79 144.246C114.351 144.713 114.132 145.38 114.132 146.248V150H113.138ZM121.286 150.07C120.596 150.07 120.064 149.883 119.69 149.51C119.317 149.137 119.13 148.609 119.13 147.928V141.026H120.124V147.872C120.124 148.301 120.232 148.633 120.446 148.866C120.67 149.099 120.988 149.216 121.398 149.216C121.837 149.216 122.201 149.09 122.49 148.838L122.84 149.552C122.644 149.729 122.406 149.86 122.126 149.944C121.856 150.028 121.576 150.07 121.286 150.07ZM117.814 143.476V142.65H122.364V143.476H117.814ZM127.512 150.07C126.747 150.07 126.075 149.911 125.496 149.594C124.917 149.267 124.465 148.824 124.138 148.264C123.811 147.695 123.648 147.046 123.648 146.318C123.648 145.59 123.802 144.946 124.11 144.386C124.427 143.826 124.857 143.387 125.398 143.07C125.949 142.743 126.565 142.58 127.246 142.58C127.937 142.58 128.548 142.739 129.08 143.056C129.621 143.364 130.046 143.803 130.354 144.372C130.662 144.932 130.816 145.581 130.816 146.318C130.816 146.365 130.811 146.416 130.802 146.472C130.802 146.519 130.802 146.57 130.802 146.626H124.404V145.884H130.27L129.878 146.178C129.878 145.646 129.761 145.175 129.528 144.764C129.304 144.344 128.996 144.017 128.604 143.784C128.212 143.551 127.759 143.434 127.246 143.434C126.742 143.434 126.289 143.551 125.888 143.784C125.487 144.017 125.174 144.344 124.95 144.764C124.726 145.184 124.614 145.665 124.614 146.206V146.36C124.614 146.92 124.735 147.415 124.978 147.844C125.23 148.264 125.575 148.595 126.014 148.838C126.462 149.071 126.971 149.188 127.54 149.188C127.988 149.188 128.403 149.109 128.786 148.95C129.178 148.791 129.514 148.549 129.794 148.222L130.354 148.866C130.027 149.258 129.617 149.557 129.122 149.762C128.637 149.967 128.1 150.07 127.512 150.07ZM134.813 150.07C134.206 150.07 133.632 149.986 133.091 149.818C132.55 149.641 132.125 149.421 131.817 149.16L132.265 148.376C132.564 148.6 132.946 148.796 133.413 148.964C133.88 149.123 134.37 149.202 134.883 149.202C135.583 149.202 136.087 149.095 136.395 148.88C136.703 148.656 136.857 148.362 136.857 147.998C136.857 147.727 136.768 147.517 136.591 147.368C136.423 147.209 136.199 147.093 135.919 147.018C135.639 146.934 135.326 146.864 134.981 146.808C134.636 146.752 134.29 146.687 133.945 146.612C133.609 146.537 133.301 146.43 133.021 146.29C132.741 146.141 132.512 145.94 132.335 145.688C132.167 145.436 132.083 145.1 132.083 144.68C132.083 144.279 132.195 143.919 132.419 143.602C132.643 143.285 132.97 143.037 133.399 142.86C133.838 142.673 134.37 142.58 134.995 142.58C135.471 142.58 135.947 142.645 136.423 142.776C136.899 142.897 137.291 143.061 137.599 143.266L137.165 144.064C136.838 143.84 136.488 143.681 136.115 143.588C135.742 143.485 135.368 143.434 134.995 143.434C134.332 143.434 133.842 143.551 133.525 143.784C133.217 144.008 133.063 144.297 133.063 144.652C133.063 144.932 133.147 145.151 133.315 145.31C133.492 145.469 133.721 145.595 134.001 145.688C134.29 145.772 134.603 145.842 134.939 145.898C135.284 145.954 135.625 146.024 135.961 146.108C136.306 146.183 136.619 146.29 136.899 146.43C137.188 146.561 137.417 146.752 137.585 147.004C137.762 147.247 137.851 147.569 137.851 147.97C137.851 148.399 137.73 148.773 137.487 149.09C137.254 149.398 136.908 149.641 136.451 149.818C136.003 149.986 135.457 150.07 134.813 150.07ZM146.391 150.07C145.663 150.07 145.01 149.911 144.431 149.594C143.862 149.267 143.414 148.824 143.087 148.264C142.76 147.695 142.597 147.046 142.597 146.318C142.597 145.581 142.76 144.932 143.087 144.372C143.414 143.812 143.862 143.373 144.431 143.056C145.01 142.739 145.663 142.58 146.391 142.58C147.016 142.58 147.581 142.701 148.085 142.944C148.589 143.187 148.986 143.551 149.275 144.036L148.533 144.54C148.281 144.167 147.968 143.891 147.595 143.714C147.222 143.537 146.816 143.448 146.377 143.448C145.854 143.448 145.383 143.569 144.963 143.812C144.543 144.045 144.212 144.377 143.969 144.806C143.726 145.235 143.605 145.739 143.605 146.318C143.605 146.897 143.726 147.401 143.969 147.83C144.212 148.259 144.543 148.595 144.963 148.838C145.383 149.071 145.854 149.188 146.377 149.188C146.816 149.188 147.222 149.099 147.595 148.922C147.968 148.745 148.281 148.474 148.533 148.11L149.275 148.614C148.986 149.09 148.589 149.454 148.085 149.706C147.581 149.949 147.016 150.07 146.391 150.07ZM154.101 150.07C153.391 150.07 152.752 149.911 152.183 149.594C151.623 149.267 151.179 148.824 150.853 148.264C150.526 147.695 150.363 147.046 150.363 146.318C150.363 145.581 150.526 144.932 150.853 144.372C151.179 143.812 151.623 143.373 152.183 143.056C152.743 142.739 153.382 142.58 154.101 142.58C154.829 142.58 155.473 142.739 156.033 143.056C156.602 143.373 157.045 143.812 157.363 144.372C157.689 144.932 157.853 145.581 157.853 146.318C157.853 147.046 157.689 147.695 157.363 148.264C157.045 148.824 156.602 149.267 156.033 149.594C155.463 149.911 154.819 150.07 154.101 150.07ZM154.101 149.188C154.633 149.188 155.104 149.071 155.515 148.838C155.925 148.595 156.247 148.259 156.481 147.83C156.723 147.391 156.845 146.887 156.845 146.318C156.845 145.739 156.723 145.235 156.481 144.806C156.247 144.377 155.925 144.045 155.515 143.812C155.104 143.569 154.637 143.448 154.115 143.448C153.592 143.448 153.125 143.569 152.715 143.812C152.304 144.045 151.977 144.377 151.735 144.806C151.492 145.235 151.371 145.739 151.371 146.318C151.371 146.887 151.492 147.391 151.735 147.83C151.977 148.259 152.304 148.595 152.715 148.838C153.125 149.071 153.587 149.188 154.101 149.188ZM163.634 142.58C164.231 142.58 164.754 142.697 165.202 142.93C165.659 143.154 166.014 143.499 166.266 143.966C166.527 144.433 166.658 145.021 166.658 145.73V150H165.664V145.828C165.664 145.053 165.468 144.47 165.076 144.078C164.693 143.677 164.152 143.476 163.452 143.476C162.929 143.476 162.472 143.583 162.08 143.798C161.697 144.003 161.399 144.307 161.184 144.708C160.979 145.1 160.876 145.576 160.876 146.136V150H159.882V142.65H160.834V144.666L160.68 144.288C160.913 143.756 161.287 143.341 161.8 143.042C162.313 142.734 162.925 142.58 163.634 142.58ZM176.759 142.58C177.356 142.58 177.879 142.697 178.327 142.93C178.784 143.154 179.139 143.499 179.391 143.966C179.652 144.433 179.783 145.021 179.783 145.73V150H178.789V145.828C178.789 145.053 178.593 144.47 178.201 144.078C177.818 143.677 177.277 143.476 176.577 143.476C176.054 143.476 175.597 143.583 175.205 143.798C174.822 144.003 174.524 144.307 174.309 144.708C174.104 145.1 174.001 145.576 174.001 146.136V150H173.007V142.65H173.959V144.666L173.805 144.288C174.038 143.756 174.412 143.341 174.925 143.042C175.438 142.734 176.05 142.58 176.759 142.58ZM185.464 150.07C184.755 150.07 184.115 149.911 183.546 149.594C182.986 149.267 182.543 148.824 182.216 148.264C181.889 147.695 181.726 147.046 181.726 146.318C181.726 145.581 181.889 144.932 182.216 144.372C182.543 143.812 182.986 143.373 183.546 143.056C184.106 142.739 184.745 142.58 185.464 142.58C186.192 142.58 186.836 142.739 187.396 143.056C187.965 143.373 188.409 143.812 188.726 144.372C189.053 144.932 189.216 145.581 189.216 146.318C189.216 147.046 189.053 147.695 188.726 148.264C188.409 148.824 187.965 149.267 187.396 149.594C186.827 149.911 186.183 150.07 185.464 150.07ZM185.464 149.188C185.996 149.188 186.467 149.071 186.878 148.838C187.289 148.595 187.611 148.259 187.844 147.83C188.087 147.391 188.208 146.887 188.208 146.318C188.208 145.739 188.087 145.235 187.844 144.806C187.611 144.377 187.289 144.045 186.878 143.812C186.467 143.569 186.001 143.448 185.478 143.448C184.955 143.448 184.489 143.569 184.078 143.812C183.667 144.045 183.341 144.377 183.098 144.806C182.855 145.235 182.734 145.739 182.734 146.318C182.734 146.887 182.855 147.391 183.098 147.83C183.341 148.259 183.667 148.595 184.078 148.838C184.489 149.071 184.951 149.188 185.464 149.188ZM193.219 150.07C192.613 150.07 192.039 149.986 191.497 149.818C190.956 149.641 190.531 149.421 190.223 149.16L190.671 148.376C190.97 148.6 191.353 148.796 191.819 148.964C192.286 149.123 192.776 149.202 193.289 149.202C193.989 149.202 194.493 149.095 194.801 148.88C195.109 148.656 195.263 148.362 195.263 147.998C195.263 147.727 195.175 147.517 194.997 147.368C194.829 147.209 194.605 147.093 194.325 147.018C194.045 146.934 193.733 146.864 193.387 146.808C193.042 146.752 192.697 146.687 192.351 146.612C192.015 146.537 191.707 146.43 191.427 146.29C191.147 146.141 190.919 145.94 190.741 145.688C190.573 145.436 190.489 145.1 190.489 144.68C190.489 144.279 190.601 143.919 190.825 143.602C191.049 143.285 191.376 143.037 191.805 142.86C192.244 142.673 192.776 142.58 193.401 142.58C193.877 142.58 194.353 142.645 194.829 142.776C195.305 142.897 195.697 143.061 196.005 143.266L195.571 144.064C195.245 143.84 194.895 143.681 194.521 143.588C194.148 143.485 193.775 143.434 193.401 143.434C192.739 143.434 192.249 143.551 191.931 143.784C191.623 144.008 191.469 144.297 191.469 144.652C191.469 144.932 191.553 145.151 191.721 145.31C191.899 145.469 192.127 145.595 192.407 145.688C192.697 145.772 193.009 145.842 193.345 145.898C193.691 145.954 194.031 146.024 194.367 146.108C194.713 146.183 195.025 146.29 195.305 146.43C195.595 146.561 195.823 146.752 195.991 147.004C196.169 147.247 196.257 147.569 196.257 147.97C196.257 148.399 196.136 148.773 195.893 149.09C195.66 149.398 195.315 149.641 194.857 149.818C194.409 149.986 193.863 150.07 193.219 150.07ZM201.077 150.07C200.368 150.07 199.729 149.911 199.159 149.594C198.599 149.267 198.156 148.824 197.829 148.264C197.503 147.695 197.339 147.046 197.339 146.318C197.339 145.581 197.503 144.932 197.829 144.372C198.156 143.812 198.599 143.373 199.159 143.056C199.719 142.739 200.359 142.58 201.077 142.58C201.805 142.58 202.449 142.739 203.009 143.056C203.579 143.373 204.022 143.812 204.339 144.372C204.666 144.932 204.829 145.581 204.829 146.318C204.829 147.046 204.666 147.695 204.339 148.264C204.022 148.824 203.579 149.267 203.009 149.594C202.44 149.911 201.796 150.07 201.077 150.07ZM201.077 149.188C201.609 149.188 202.081 149.071 202.491 148.838C202.902 148.595 203.224 148.259 203.457 147.83C203.7 147.391 203.821 146.887 203.821 146.318C203.821 145.739 203.7 145.235 203.457 144.806C203.224 144.377 202.902 144.045 202.491 143.812C202.081 143.569 201.614 143.448 201.091 143.448C200.569 143.448 200.102 143.569 199.691 143.812C199.281 144.045 198.954 144.377 198.711 144.806C198.469 145.235 198.347 145.739 198.347 146.318C198.347 146.887 198.469 147.391 198.711 147.83C198.954 148.259 199.281 148.595 199.691 148.838C200.102 149.071 200.564 149.188 201.077 149.188ZM209.183 150.07C208.492 150.07 207.96 149.883 207.587 149.51C207.213 149.137 207.027 148.609 207.027 147.928V141.026H208.021V147.872C208.021 148.301 208.128 148.633 208.343 148.866C208.567 149.099 208.884 149.216 209.295 149.216C209.733 149.216 210.097 149.09 210.387 148.838L210.737 149.552C210.541 149.729 210.303 149.86 210.023 149.944C209.752 150.028 209.472 150.07 209.183 150.07ZM205.711 143.476V142.65H210.261V143.476H205.711ZM212.546 150V142.65H213.498V144.652L213.4 144.302C213.605 143.742 213.951 143.317 214.436 143.028C214.921 142.729 215.523 142.58 216.242 142.58V143.546C216.205 143.546 216.167 143.546 216.13 143.546C216.093 143.537 216.055 143.532 216.018 143.532C215.243 143.532 214.637 143.77 214.198 144.246C213.759 144.713 213.54 145.38 213.54 146.248V150H212.546ZM220.984 150.07C220.274 150.07 219.635 149.911 219.066 149.594C218.506 149.267 218.062 148.824 217.736 148.264C217.409 147.695 217.246 147.046 217.246 146.318C217.246 145.581 217.409 144.932 217.736 144.372C218.062 143.812 218.506 143.373 219.066 143.056C219.626 142.739 220.265 142.58 220.984 142.58C221.712 142.58 222.356 142.739 222.916 143.056C223.485 143.373 223.928 143.812 224.246 144.372C224.572 144.932 224.736 145.581 224.736 146.318C224.736 147.046 224.572 147.695 224.246 148.264C223.928 148.824 223.485 149.267 222.916 149.594C222.346 149.911 221.702 150.07 220.984 150.07ZM220.984 149.188C221.516 149.188 221.987 149.071 222.398 148.838C222.808 148.595 223.13 148.259 223.364 147.83C223.606 147.391 223.728 146.887 223.728 146.318C223.728 145.739 223.606 145.235 223.364 144.806C223.13 144.377 222.808 144.045 222.398 143.812C221.987 143.569 221.52 143.448 220.998 143.448C220.475 143.448 220.008 143.569 219.598 143.812C219.187 144.045 218.86 144.377 218.618 144.806C218.375 145.235 218.254 145.739 218.254 146.318C218.254 146.887 218.375 147.391 218.618 147.83C218.86 148.259 219.187 148.595 219.598 148.838C220.008 149.071 220.47 149.188 220.984 149.188ZM228.739 150.07C228.132 150.07 227.558 149.986 227.017 149.818C226.476 149.641 226.051 149.421 225.743 149.16L226.191 148.376C226.49 148.6 226.872 148.796 227.339 148.964C227.806 149.123 228.296 149.202 228.809 149.202C229.509 149.202 230.013 149.095 230.321 148.88C230.629 148.656 230.783 148.362 230.783 147.998C230.783 147.727 230.694 147.517 230.517 147.368C230.349 147.209 230.125 147.093 229.845 147.018C229.565 146.934 229.252 146.864 228.907 146.808C228.562 146.752 228.216 146.687 227.871 146.612C227.535 146.537 227.227 146.43 226.947 146.29C226.667 146.141 226.438 145.94 226.261 145.688C226.093 145.436 226.009 145.1 226.009 144.68C226.009 144.279 226.121 143.919 226.345 143.602C226.569 143.285 226.896 143.037 227.325 142.86C227.764 142.673 228.296 142.58 228.921 142.58C229.397 142.58 229.873 142.645 230.349 142.776C230.825 142.897 231.217 143.061 231.525 143.266L231.091 144.064C230.764 143.84 230.414 143.681 230.041 143.588C229.668 143.485 229.294 143.434 228.921 143.434C228.258 143.434 227.768 143.551 227.451 143.784C227.143 144.008 226.989 144.297 226.989 144.652C226.989 144.932 227.073 145.151 227.241 145.31C227.418 145.469 227.647 145.595 227.927 145.688C228.216 145.772 228.529 145.842 228.865 145.898C229.21 145.954 229.551 146.024 229.887 146.108C230.232 146.183 230.545 146.29 230.825 146.43C231.114 146.561 231.343 146.752 231.511 147.004C231.688 147.247 231.777 147.569 231.777 147.97C231.777 148.399 231.656 148.773 231.413 149.09C231.18 149.398 230.834 149.641 230.377 149.818C229.929 149.986 229.383 150.07 228.739 150.07Z" fill="#131313"/>
</svg>
