<svg width="59" height="22" viewBox="0 0 59 22" fill="none" xmlns="http://www.w3.org/2000/svg">
<rect width="58.7765" height="21.7021" rx="5" fill="#DBDBFF"/>
<path d="M38.4677 17.8511L44.3677 9.73107V11.6911L38.7477 3.85107H41.6877L45.8677 9.65107L44.6677 9.67107L48.8077 3.85107H51.6277L46.0477 11.5511V9.67107L51.9877 17.8511H48.9877L44.5877 11.6911H45.7677L41.4277 17.8511H38.4677Z" fill="#3024FA"/>
<path d="M23.9104 17.8511L30.2104 3.85107H32.7704L39.0904 17.8511H36.3704L30.9504 5.23107H31.9904L26.5904 17.8511H23.9104ZM26.8104 14.6111L27.5104 12.5711H35.0704L35.7704 14.6111H26.8104Z" fill="#3024FA"/>
<path d="M6.78882 17.8511V3.85107H8.92882L15.0488 14.0711H13.9288L19.9488 3.85107H22.0888L22.1088 17.8511H19.6488L19.6288 7.71107H20.1488L15.0288 16.2511H13.8688L8.66882 7.71107H9.26882V17.8511H6.78882Z" fill="#3024FA"/>
</svg>
