<svg width="359" height="36" viewBox="0 0 359 36" fill="none" xmlns="http://www.w3.org/2000/svg">
<path d="M0.0539063 29V0.999998H6.57391L18.1739 20.04H14.7339L26.0139 0.999998H32.5339L32.6139 29H25.3339L25.2539 12.08H26.4939L18.0539 26.24H14.5339L5.85391 12.08H7.37391V29H0.0539063ZM34.858 29L47.218 0.999998H55.018L67.418 29H59.178L49.498 4.88H52.618L42.938 29H34.858ZM41.618 23.56L43.658 17.72H57.338L59.378 23.56H41.618ZM65.2598 29L77.4998 12L77.4598 17.64L65.6998 0.999998H74.6198L82.1398 11.84L78.3398 11.88L85.7398 0.999998H94.2998L82.5398 17.32V11.72L94.9398 29H85.8198L78.1798 17.6H81.8198L74.2998 29H65.2598Z" fill="#3024FA"/>
<path d="M110.736 29.56C108.496 29.56 106.43 29.2 104.536 28.48C102.643 27.76 100.99 26.7467 99.5764 25.44C98.1897 24.1067 97.1097 22.56 96.3364 20.8C95.5631 19.04 95.1764 17.1067 95.1764 15C95.1764 12.8933 95.5631 10.96 96.3364 9.2C97.1097 7.44 98.1897 5.90667 99.5764 4.6C100.99 3.26667 102.643 2.24 104.536 1.52C106.43 0.799998 108.496 0.439998 110.736 0.439998C113.003 0.439998 115.07 0.799998 116.936 1.52C118.83 2.24 120.47 3.25333 121.856 4.56C123.243 5.86667 124.323 7.41333 125.096 9.2C125.896 10.96 126.296 12.8933 126.296 15C126.296 17.1067 125.896 19.0533 125.096 20.84C124.323 22.6 123.243 24.1333 121.856 25.44C120.47 26.7467 118.83 27.76 116.936 28.48C115.07 29.2 113.003 29.56 110.736 29.56ZM119.896 35.76C118.696 35.76 117.576 35.6267 116.536 35.36C115.496 35.12 114.47 34.72 113.456 34.16C112.47 33.6 111.43 32.84 110.336 31.88C109.27 30.92 108.07 29.7333 106.736 28.32L115.016 26.24C115.683 27.2267 116.283 28 116.816 28.56C117.35 29.12 117.87 29.52 118.376 29.76C118.91 30 119.47 30.12 120.056 30.12C121.603 30.12 123.016 29.4667 124.296 28.16L127.736 32.24C125.79 34.5867 123.176 35.76 119.896 35.76ZM110.736 23C111.803 23 112.79 22.8133 113.696 22.44C114.63 22.0667 115.43 21.5333 116.096 20.84C116.79 20.12 117.323 19.2667 117.696 18.28C118.096 17.2933 118.296 16.2 118.296 15C118.296 13.7733 118.096 12.68 117.696 11.72C117.323 10.7333 116.79 9.89333 116.096 9.2C115.43 8.48 114.63 7.93333 113.696 7.56C112.79 7.18667 111.803 7 110.736 7C109.67 7 108.67 7.18667 107.736 7.56C106.83 7.93333 106.03 8.48 105.336 9.2C104.67 9.89333 104.136 10.7333 103.736 11.72C103.363 12.68 103.176 13.7733 103.176 15C103.176 16.2 103.363 17.2933 103.736 18.28C104.136 19.2667 104.67 20.12 105.336 20.84C106.03 21.5333 106.83 22.0667 107.736 22.44C108.67 22.8133 109.67 23 110.736 23ZM143.365 29.56C139.231 29.56 136.005 28.4267 133.685 26.16C131.365 23.8933 130.205 20.68 130.205 16.52V0.999998H138.125V16.28C138.125 18.68 138.591 20.4 139.525 21.44C140.485 22.48 141.791 23 143.445 23C145.098 23 146.391 22.48 147.325 21.44C148.258 20.4 148.725 18.68 148.725 16.28V0.999998H156.525V16.52C156.525 20.68 155.365 23.8933 153.045 26.16C150.725 28.4267 147.498 29.56 143.365 29.56ZM157.944 29L170.304 0.999998H178.104L190.504 29H182.264L172.584 4.88H175.704L166.024 29H157.944ZM164.704 23.56L166.744 17.72H180.424L182.464 23.56H164.704ZM192.749 29V0.999998H199.269L214.709 19.64H211.629V0.999998H219.389V29H212.869L197.429 10.36H200.509V29H192.749ZM230.936 29V7.28H222.336V0.999998H247.416V7.28H238.856V29H230.936ZM262.857 29.56C258.723 29.56 255.497 28.4267 253.177 26.16C250.857 23.8933 249.697 20.68 249.697 16.52V0.999998H257.617V16.28C257.617 18.68 258.083 20.4 259.017 21.44C259.977 22.48 261.283 23 262.937 23C264.59 23 265.883 22.48 266.817 21.44C267.75 20.4 268.217 18.68 268.217 16.28V0.999998H276.017V16.52C276.017 20.68 274.857 23.8933 272.537 26.16C270.217 28.4267 266.99 29.56 262.857 29.56ZM281.382 29V0.999998H287.902L299.502 20.04H296.062L307.342 0.999998H313.862L313.942 29H306.662L306.582 12.08H307.822L299.382 26.24H295.862L287.182 12.08H288.702V29H281.382ZM316.186 29L328.546 0.999998H336.346L348.746 29H340.506L330.826 4.88H333.946L324.266 29H316.186ZM322.946 23.56L324.986 17.72H338.666L340.706 23.56H322.946ZM350.991 29V0.999998H358.911V29H350.991Z" fill="#131313"/>
</svg>
