<svg width="360" height="377" viewBox="0 0 360 377" fill="none" xmlns="http://www.w3.org/2000/svg">
<path d="M65.5 131C101.675 131 131 101.675 131 65.5C131 29.3253 101.675 0 65.5 0C29.3253 0 0 29.3253 0 65.5C0 101.675 29.3253 131 65.5 131Z" fill="url(#paint0_linear_160_4290)"/>
<path d="M305 358C285.67 358 270 342.33 270 323C270 303.67 285.67 288 305 288C324.33 288 340 303.67 340 323C340 342.33 324.33 358 305 358Z" fill="url(#paint1_linear_160_4290)"/>
<path d="M180 91.8988C237.5 91.8988 284.101 138.517 284.101 196C284.101 253.5 237.483 300.101 180 300.101V376C279.417 376 360 295.417 360 196C360 96.5831 279.417 16 180 16C80.5831 16 0 96.5831 0 196H75.8987C75.8987 138.517 122.5 91.8988 180 91.8988Z" stroke="#3024FA" stroke-miterlimit="10"/>
<path d="M180 360.885C271.063 360.885 344.885 287.063 344.885 196C344.885 104.937 271.063 31.1157 180 31.1157C88.937 31.1157 15.1157 104.937 15.1157 196C15.1157 287.063 88.937 360.885 180 360.885Z" fill="#DBDBFF"/>
<path d="M36.4431 87V64.6H41.6591L50.9391 79.832H48.1871L57.2111 64.6H62.4271L62.4911 87H56.6671L56.6031 73.464H57.5951L50.8431 84.792H48.0271L41.0831 73.464H42.2991V87H36.4431ZM64.2864 87L74.1744 64.6H80.4144L90.3344 87H83.7424L75.9984 67.704H78.4944L70.7504 87H64.2864ZM69.6944 82.648L71.3264 77.976H82.2704L83.9024 82.648H69.6944ZM88.6079 87L98.3999 73.4L98.3679 77.912L88.9599 64.6H96.0959L102.112 73.272L99.0719 73.304L104.992 64.6H111.84L102.432 77.656V73.176L112.352 87H105.056L98.9439 77.88H101.856L95.8399 87H88.6079Z" fill="#3024FA"/>
<path d="M124.989 87.448C123.197 87.448 121.544 87.16 120.029 86.584C118.514 86.008 117.192 85.1973 116.061 84.152C114.952 83.0853 114.088 81.848 113.469 80.44C112.85 79.032 112.541 77.4853 112.541 75.8C112.541 74.1147 112.85 72.568 113.469 71.16C114.088 69.752 114.952 68.5253 116.061 67.48C117.192 66.4133 118.514 65.592 120.029 65.016C121.544 64.44 123.197 64.152 124.989 64.152C126.802 64.152 128.456 64.44 129.949 65.016C131.464 65.592 132.776 66.4027 133.885 67.448C134.994 68.4933 135.858 69.7307 136.477 71.16C137.117 72.568 137.437 74.1147 137.437 75.8C137.437 77.4853 137.117 79.0427 136.477 80.472C135.858 81.88 134.994 83.1067 133.885 84.152C132.776 85.1973 131.464 86.008 129.949 86.584C128.456 87.16 126.802 87.448 124.989 87.448ZM132.317 92.408C131.357 92.408 130.461 92.3013 129.629 92.088C128.797 91.896 127.976 91.576 127.165 91.128C126.376 90.68 125.544 90.072 124.669 89.304C123.816 88.536 122.856 87.5867 121.789 86.456L128.413 84.792C128.946 85.5813 129.426 86.2 129.853 86.648C130.28 87.096 130.696 87.416 131.101 87.608C131.528 87.8 131.976 87.896 132.445 87.896C133.682 87.896 134.813 87.3733 135.837 86.328L138.589 89.592C137.032 91.4693 134.941 92.408 132.317 92.408ZM124.989 82.2C125.842 82.2 126.632 82.0507 127.357 81.752C128.104 81.4533 128.744 81.0267 129.277 80.472C129.832 79.896 130.258 79.2133 130.557 78.424C130.877 77.6347 131.037 76.76 131.037 75.8C131.037 74.8187 130.877 73.944 130.557 73.176C130.258 72.3867 129.832 71.7147 129.277 71.16C128.744 70.584 128.104 70.1467 127.357 69.848C126.632 69.5493 125.842 69.4 124.989 69.4C124.136 69.4 123.336 69.5493 122.589 69.848C121.864 70.1467 121.224 70.584 120.669 71.16C120.136 71.7147 119.709 72.3867 119.389 73.176C119.09 73.944 118.941 74.8187 118.941 75.8C118.941 76.76 119.09 77.6347 119.389 78.424C119.709 79.2133 120.136 79.896 120.669 80.472C121.224 81.0267 121.864 81.4533 122.589 81.752C123.336 82.0507 124.136 82.2 124.989 82.2ZM151.092 87.448C147.785 87.448 145.204 86.5413 143.348 84.728C141.492 82.9147 140.564 80.344 140.564 77.016V64.6H146.9V76.824C146.9 78.744 147.273 80.12 148.02 80.952C148.788 81.784 149.833 82.2 151.156 82.2C152.478 82.2 153.513 81.784 154.26 80.952C155.006 80.12 155.38 78.744 155.38 76.824V64.6H161.62V77.016C161.62 80.344 160.692 82.9147 158.836 84.728C156.98 86.5413 154.398 87.448 151.092 87.448ZM162.755 87L172.643 64.6H178.883L188.803 87H182.211L174.467 67.704H176.963L169.219 87H162.755ZM168.163 82.648L169.795 77.976H180.739L182.371 82.648H168.163ZM190.599 87V64.6H195.815L208.167 79.512H205.703V64.6H211.911V87H206.695L194.343 72.088H196.807V87H190.599ZM221.149 87V69.624H214.269V64.6H234.333V69.624H227.485V87H221.149ZM246.685 87.448C243.379 87.448 240.797 86.5413 238.941 84.728C237.085 82.9147 236.157 80.344 236.157 77.016V64.6H242.493V76.824C242.493 78.744 242.867 80.12 243.613 80.952C244.381 81.784 245.427 82.2 246.749 82.2C248.072 82.2 249.107 81.784 249.853 80.952C250.6 80.12 250.973 78.744 250.973 76.824V64.6H257.213V77.016C257.213 80.344 256.285 82.9147 254.429 84.728C252.573 86.5413 249.992 87.448 246.685 87.448ZM261.506 87V64.6H266.722L276.002 79.832H273.25L282.274 64.6H287.49L287.554 87H281.73L281.666 73.464H282.658L275.906 84.792H273.09L266.146 73.464H267.362V87H261.506ZM289.349 87L299.237 64.6H305.477L315.397 87H308.805L301.061 67.704H303.557L295.813 87H289.349ZM294.757 82.648L296.389 77.976H307.333L308.965 82.648H294.757ZM317.193 87V64.6H323.529V87H317.193Z" fill="#131313"/>
<path d="M101.319 170H96.3271V148.24H101.319V170ZM111.6 170H106.608V148.24H111.408L119.152 159.28L120.656 161.392L120.624 148.24H125.616V170H120.816L112.848 158.768L111.6 157.04V170ZM133.546 147.92L139.306 163.632L144.906 148.24H149.866L141.578 170H136.874L128.586 148.496L133.546 147.92ZM168.412 170H152.796V148.24H166.524L167.132 152.176H157.788V157.072H164.7L165.308 161.008H157.788V166.096H167.772L168.412 170ZM179.511 152.272H176.663V158.448H179.607C180.311 158.448 180.93 158.331 181.463 158.096C182.018 157.861 182.455 157.52 182.775 157.072C183.095 156.624 183.255 156.069 183.255 155.408C183.255 154.683 183.106 154.085 182.807 153.616C182.508 153.147 182.082 152.805 181.527 152.592C180.994 152.379 180.322 152.272 179.511 152.272ZM171.671 148.24H179.671C181.292 148.24 182.764 148.496 184.087 149.008C185.41 149.499 186.466 150.267 187.255 151.312C188.066 152.336 188.471 153.669 188.471 155.312C188.471 156.635 188.162 157.787 187.543 158.768C186.924 159.728 186.135 160.485 185.175 161.04L190.231 170H184.599L180.567 162.448C180.226 162.469 179.895 162.48 179.575 162.48C179.255 162.459 178.935 162.448 178.615 162.448H176.663V170H171.671V148.24ZM191.827 168.624L193.267 164.72C193.672 164.933 194.174 165.157 194.771 165.392C195.368 165.605 195.998 165.787 196.659 165.936C197.32 166.085 197.928 166.16 198.483 166.16C199.23 166.16 199.848 166.075 200.339 165.904C200.851 165.733 201.224 165.499 201.459 165.2C201.715 164.88 201.843 164.528 201.843 164.144C201.843 163.781 201.651 163.44 201.267 163.12C200.904 162.8 200.435 162.48 199.859 162.16C199.283 161.819 198.696 161.467 198.099 161.104C197.374 160.656 196.627 160.197 195.859 159.728C195.091 159.237 194.376 158.704 193.715 158.128C193.075 157.552 192.552 156.912 192.147 156.208C191.763 155.483 191.571 154.683 191.571 153.808C191.592 152.656 191.912 151.632 192.531 150.736C193.15 149.819 194.046 149.104 195.219 148.592C196.392 148.059 197.779 147.792 199.379 147.792C200.467 147.792 201.576 147.952 202.707 148.272C203.838 148.592 204.819 148.997 205.651 149.488L204.083 153.136C203.486 152.88 202.942 152.677 202.451 152.528C201.96 152.357 201.47 152.229 200.979 152.144C200.51 152.037 199.998 151.984 199.443 151.984C198.654 151.984 198.003 152.155 197.491 152.496C197 152.816 196.755 153.264 196.755 153.84C196.755 154.267 196.926 154.64 197.267 154.96C197.608 155.28 198.067 155.589 198.643 155.888C199.219 156.187 199.816 156.539 200.435 156.944C201.203 157.392 201.971 157.851 202.739 158.32C203.528 158.789 204.243 159.312 204.883 159.888C205.523 160.464 206.035 161.104 206.419 161.808C206.824 162.491 207.027 163.291 207.027 164.208C207.027 165.403 206.686 166.469 206.003 167.408C205.342 168.325 204.382 169.061 203.123 169.616C201.886 170.149 200.382 170.416 198.611 170.416C198.099 170.416 197.534 170.363 196.915 170.256C196.296 170.171 195.667 170.043 195.027 169.872C194.408 169.701 193.811 169.509 193.235 169.296C192.68 169.083 192.211 168.859 191.827 168.624ZM215.35 170H210.358V148.24H215.35V170ZM230.016 170.448C227.733 170.448 225.77 169.947 224.128 168.944C222.485 167.941 221.226 166.587 220.352 164.88C219.477 163.173 219.04 161.285 219.04 159.216C219.04 156.976 219.509 155.003 220.448 153.296C221.386 151.568 222.677 150.224 224.32 149.264C225.962 148.283 227.861 147.781 230.016 147.76C232.341 147.76 234.314 148.261 235.936 149.264C237.578 150.267 238.826 151.621 239.68 153.328C240.554 155.013 240.992 156.901 240.992 158.992C240.992 161.232 240.522 163.216 239.584 164.944C238.666 166.651 237.386 167.995 235.744 168.976C234.101 169.936 232.192 170.427 230.016 170.448ZM229.984 166.256C231.072 166.256 232.053 165.989 232.928 165.456C233.802 164.923 234.496 164.123 235.008 163.056C235.541 161.968 235.808 160.613 235.808 158.992C235.808 157.627 235.573 156.421 235.104 155.376C234.656 154.331 234.005 153.509 233.152 152.912C232.298 152.293 231.264 151.984 230.048 151.984C229.024 151.984 228.064 152.283 227.168 152.88C226.272 153.477 225.557 154.309 225.024 155.376C224.49 156.443 224.224 157.712 224.224 159.184C224.224 160.549 224.448 161.765 224.896 162.832C225.365 163.899 226.026 164.741 226.88 165.36C227.754 165.957 228.789 166.256 229.984 166.256ZM231.488 146.448L234.848 140.624H229.792L227.936 145.712L231.488 146.448ZM249.632 170H244.64V148.24H249.44L257.184 159.28L258.688 161.392L258.656 148.24H263.648V170H258.848L250.88 158.768L249.632 157.04V170ZM49.3504 222H44.3584V200.24H49.3504V222ZM59.6316 222H54.6396V200.24H59.4396L67.1836 211.28L68.6876 213.392L68.6556 200.24H73.6476V222H68.8476L60.8796 210.768L59.6316 209.04V222ZM94.7289 200.24L95.3369 204.176H88.1369V222H83.1449V204.176H76.6169V200.24H94.7289ZM113.912 222H98.2959V200.24H112.024L112.632 204.176H103.288V209.072H110.2L110.808 213.008H103.288V218.096H113.272L113.912 222ZM131.603 218.096L132.179 222H117.171V200.24H122.163V218.096H131.603ZM140.1 222H135.108V200.24H140.1V222ZM153.518 213.52L153.934 209.776H162.158V220.848C161.603 221.147 160.92 221.424 160.11 221.68C159.299 221.915 158.446 222.096 157.55 222.224C156.675 222.352 155.832 222.416 155.022 222.416C152.718 222.416 150.723 221.947 149.038 221.008C147.352 220.069 146.051 218.757 145.134 217.072C144.238 215.387 143.79 213.435 143.79 211.216C143.79 209.488 144.078 207.931 144.654 206.544C145.251 205.136 146.083 203.931 147.15 202.928C148.216 201.925 149.443 201.157 150.83 200.624C152.238 200.091 153.752 199.824 155.374 199.824C155.95 199.824 156.632 199.888 157.422 200.016C158.211 200.123 159 200.293 159.79 200.528C160.6 200.763 161.304 201.061 161.902 201.424L160.366 204.88C159.662 204.645 159.043 204.464 158.51 204.336C157.976 204.208 157.475 204.112 157.006 204.048C156.536 203.984 156.014 203.952 155.438 203.952C154.648 203.952 153.859 204.101 153.07 204.4C152.302 204.699 151.608 205.147 150.99 205.744C150.392 206.341 149.902 207.099 149.518 208.016C149.155 208.912 148.974 209.968 148.974 211.184C148.974 212.741 149.251 214.053 149.806 215.12C150.382 216.187 151.128 216.987 152.046 217.52C152.984 218.032 153.987 218.288 155.054 218.288C155.566 218.288 156.035 218.267 156.462 218.224C156.888 218.16 157.294 218.096 157.678 218.032V213.52H153.518ZM181.756 222H166.14V200.24H179.868L180.476 204.176H171.132V209.072H178.044L178.652 213.008H171.132V218.096H181.116L181.756 222ZM190.007 222H185.015V200.24H189.815L197.559 211.28L199.063 213.392L199.031 200.24H204.023V222H199.223L191.255 210.768L190.007 209.04V222ZM225.104 200.24L225.712 204.176H218.512V222H213.52V204.176H206.992V200.24H225.104ZM244.287 222H228.671V200.24H242.399L243.007 204.176H233.663V209.072H240.575L241.183 213.008H233.663V218.096H243.647L244.287 222ZM266.576 212.592L274.448 220.784L271.408 223.408L263.248 215.312L266.576 212.592ZM264.016 199.76C266.341 199.76 268.314 200.261 269.936 201.264C271.578 202.267 272.826 203.621 273.68 205.328C274.554 207.013 274.992 208.901 274.992 210.992C274.992 213.232 274.522 215.216 273.584 216.944C272.666 218.651 271.386 219.995 269.744 220.976C268.101 221.936 266.192 222.427 264.016 222.448C261.733 222.448 259.77 221.947 258.128 220.944C256.485 219.941 255.226 218.587 254.352 216.88C253.477 215.173 253.04 213.285 253.04 211.216C253.04 208.976 253.509 207.003 254.448 205.296C255.386 203.568 256.677 202.224 258.32 201.264C259.962 200.283 261.861 199.781 264.016 199.76ZM258.224 211.184C258.224 212.549 258.448 213.765 258.896 214.832C259.365 215.899 260.026 216.741 260.88 217.36C261.754 217.957 262.789 218.256 263.984 218.256C265.072 218.256 266.053 217.989 266.928 217.456C267.802 216.923 268.496 216.123 269.008 215.056C269.541 213.968 269.808 212.613 269.808 210.992C269.808 209.627 269.573 208.421 269.104 207.376C268.656 206.331 268.005 205.509 267.152 204.912C266.298 204.293 265.264 203.984 264.048 203.984C263.024 203.984 262.064 204.283 261.168 204.88C260.272 205.477 259.557 206.309 259.024 207.376C258.49 208.443 258.224 209.712 258.224 211.184ZM283.344 200.24V213.584C283.344 214.629 283.525 215.504 283.888 216.208C284.272 216.891 284.794 217.403 285.456 217.744C286.117 218.085 286.864 218.256 287.696 218.256C288.549 218.256 289.296 218.085 289.936 217.744C290.597 217.381 291.109 216.859 291.472 216.176C291.856 215.472 292.048 214.608 292.048 213.584V200.24H297.072V213.872C297.072 215.6 296.677 217.104 295.888 218.384C295.12 219.664 294.032 220.656 292.624 221.36C291.237 222.043 289.594 222.395 287.696 222.416C285.84 222.416 284.208 222.064 282.8 221.36C281.392 220.656 280.293 219.664 279.504 218.384C278.736 217.104 278.352 215.6 278.352 213.872L278.32 200.24H283.344ZM317.631 222H302.015V200.24H315.743L316.351 204.176H307.007V209.072H313.919L314.527 213.008H307.007V218.096H316.991L317.631 222Z" fill="#131313"/>
<path d="M148.448 272.288C146.912 272.288 145.576 271.968 144.44 271.328C143.32 270.688 142.456 269.752 141.848 268.52C141.24 267.288 140.936 265.768 140.936 263.96C140.936 262.024 141.296 260.384 142.016 259.04C142.752 257.696 143.76 256.672 145.04 255.968C146.336 255.264 147.824 254.912 149.504 254.912C150.4 254.912 151.256 255.008 152.072 255.2C152.888 255.392 153.592 255.68 154.184 256.064L152.744 258.92C152.28 258.6 151.784 258.384 151.256 258.272C150.728 258.144 150.176 258.08 149.6 258.08C148.144 258.08 146.992 258.52 146.144 259.4C145.296 260.28 144.872 261.584 144.872 263.312C144.872 263.6 144.872 263.92 144.872 264.272C144.888 264.624 144.936 264.976 145.016 265.328L143.936 264.32C144.24 263.696 144.632 263.176 145.112 262.76C145.592 262.328 146.16 262.008 146.816 261.8C147.488 261.576 148.224 261.464 149.024 261.464C150.112 261.464 151.088 261.68 151.952 262.112C152.816 262.544 153.504 263.152 154.016 263.936C154.544 264.72 154.808 265.64 154.808 266.696C154.808 267.832 154.52 268.824 153.944 269.672C153.384 270.504 152.624 271.152 151.664 271.616C150.72 272.064 149.648 272.288 148.448 272.288ZM148.232 269.384C148.776 269.384 149.256 269.288 149.672 269.096C150.104 268.888 150.44 268.592 150.68 268.208C150.92 267.824 151.04 267.384 151.04 266.888C151.04 266.12 150.776 265.512 150.248 265.064C149.736 264.6 149.048 264.368 148.184 264.368C147.608 264.368 147.104 264.48 146.672 264.704C146.24 264.912 145.896 265.208 145.64 265.592C145.4 265.96 145.28 266.392 145.28 266.888C145.28 267.368 145.4 267.8 145.64 268.184C145.88 268.552 146.216 268.848 146.648 269.072C147.08 269.28 147.608 269.384 148.232 269.384ZM156.073 272V269.48L162.553 263.36C163.065 262.896 163.441 262.48 163.681 262.112C163.921 261.744 164.081 261.408 164.161 261.104C164.257 260.8 164.305 260.52 164.305 260.264C164.305 259.592 164.073 259.08 163.609 258.728C163.161 258.36 162.497 258.176 161.617 258.176C160.913 258.176 160.257 258.312 159.649 258.584C159.057 258.856 158.553 259.28 158.137 259.856L155.305 258.032C155.945 257.072 156.841 256.312 157.993 255.752C159.145 255.192 160.473 254.912 161.977 254.912C163.225 254.912 164.313 255.12 165.241 255.536C166.185 255.936 166.913 256.504 167.425 257.24C167.953 257.976 168.217 258.856 168.217 259.88C168.217 260.424 168.145 260.968 168.001 261.512C167.873 262.04 167.601 262.6 167.185 263.192C166.785 263.784 166.193 264.448 165.409 265.184L160.033 270.248L159.289 268.832H168.769V272H156.073ZM177.334 272.288C175.926 272.288 174.694 272.08 173.638 271.664C172.582 271.232 171.758 270.632 171.166 269.864C170.574 269.08 170.278 268.168 170.278 267.128C170.278 266.088 170.566 265.208 171.142 264.488C171.734 263.752 172.558 263.2 173.614 262.832C174.67 262.448 175.91 262.256 177.334 262.256C178.774 262.256 180.022 262.448 181.078 262.832C182.15 263.2 182.974 263.752 183.549 264.488C184.141 265.208 184.438 266.088 184.438 267.128C184.438 268.168 184.141 269.08 183.549 269.864C182.957 270.632 182.126 271.232 181.054 271.664C179.998 272.08 178.758 272.288 177.334 272.288ZM177.334 269.432C178.31 269.432 179.078 269.216 179.638 268.784C180.214 268.352 180.502 267.76 180.502 267.008C180.502 266.256 180.214 265.672 179.638 265.256C179.078 264.824 178.31 264.608 177.334 264.608C176.374 264.608 175.614 264.824 175.054 265.256C174.494 265.672 174.214 266.256 174.214 267.008C174.214 267.76 174.494 268.352 175.054 268.784C175.614 269.216 176.374 269.432 177.334 269.432ZM177.334 264.224C176.038 264.224 174.902 264.048 173.926 263.696C172.966 263.344 172.214 262.832 171.67 262.16C171.142 261.472 170.878 260.656 170.878 259.712C170.878 258.72 171.15 257.872 171.694 257.168C172.238 256.448 172.998 255.896 173.974 255.512C174.95 255.112 176.07 254.912 177.334 254.912C178.63 254.912 179.758 255.112 180.718 255.512C181.694 255.896 182.454 256.448 182.997 257.168C183.558 257.872 183.838 258.72 183.838 259.712C183.838 260.656 183.566 261.472 183.022 262.16C182.494 262.832 181.742 263.344 180.766 263.696C179.79 264.048 178.646 264.224 177.334 264.224ZM177.334 261.944C178.15 261.944 178.79 261.76 179.254 261.392C179.734 261.024 179.974 260.52 179.974 259.88C179.974 259.208 179.726 258.688 179.23 258.32C178.75 257.952 178.118 257.768 177.334 257.768C176.566 257.768 175.942 257.952 175.462 258.32C174.982 258.688 174.742 259.208 174.742 259.88C174.742 260.52 174.974 261.024 175.438 261.392C175.902 261.76 176.534 261.944 177.334 261.944ZM193.177 272.288C191.769 272.288 190.537 272.08 189.481 271.664C188.425 271.232 187.601 270.632 187.009 269.864C186.417 269.08 186.121 268.168 186.121 267.128C186.121 266.088 186.409 265.208 186.985 264.488C187.577 263.752 188.401 263.2 189.457 262.832C190.513 262.448 191.753 262.256 193.177 262.256C194.617 262.256 195.865 262.448 196.921 262.832C197.993 263.2 198.817 263.752 199.393 264.488C199.985 265.208 200.281 266.088 200.281 267.128C200.281 268.168 199.985 269.08 199.393 269.864C198.801 270.632 197.969 271.232 196.897 271.664C195.841 272.08 194.601 272.288 193.177 272.288ZM193.177 269.432C194.153 269.432 194.921 269.216 195.481 268.784C196.057 268.352 196.345 267.76 196.345 267.008C196.345 266.256 196.057 265.672 195.481 265.256C194.921 264.824 194.153 264.608 193.177 264.608C192.217 264.608 191.457 264.824 190.897 265.256C190.337 265.672 190.057 266.256 190.057 267.008C190.057 267.76 190.337 268.352 190.897 268.784C191.457 269.216 192.217 269.432 193.177 269.432ZM193.177 264.224C191.881 264.224 190.745 264.048 189.769 263.696C188.809 263.344 188.057 262.832 187.513 262.16C186.985 261.472 186.721 260.656 186.721 259.712C186.721 258.72 186.993 257.872 187.537 257.168C188.081 256.448 188.841 255.896 189.817 255.512C190.793 255.112 191.913 254.912 193.177 254.912C194.473 254.912 195.601 255.112 196.561 255.512C197.537 255.896 198.297 256.448 198.841 257.168C199.401 257.872 199.681 258.72 199.681 259.712C199.681 260.656 199.409 261.472 198.865 262.16C198.337 262.832 197.585 263.344 196.609 263.696C195.633 264.048 194.489 264.224 193.177 264.224ZM193.177 261.944C193.993 261.944 194.633 261.76 195.097 261.392C195.577 261.024 195.817 260.52 195.817 259.88C195.817 259.208 195.569 258.688 195.073 258.32C194.593 257.952 193.961 257.768 193.177 257.768C192.409 257.768 191.785 257.952 191.305 258.32C190.825 258.688 190.585 259.208 190.585 259.88C190.585 260.52 190.817 261.024 191.281 261.392C191.745 261.76 192.377 261.944 193.177 261.944ZM201.845 266.264V264.248H214.781V266.264H201.845ZM201.845 262.952V260.936H214.781V262.952H201.845ZM213.269 272.288C211.957 272.288 210.741 272.08 209.621 271.664C208.517 271.232 207.557 270.624 206.741 269.84C205.925 269.056 205.293 268.136 204.845 267.08C204.397 266.024 204.173 264.864 204.173 263.6C204.173 262.336 204.397 261.176 204.845 260.12C205.293 259.064 205.925 258.144 206.741 257.36C207.557 256.576 208.517 255.976 209.621 255.56C210.741 255.128 211.957 254.912 213.269 254.912C214.725 254.912 216.045 255.168 217.229 255.68C218.413 256.176 219.397 256.912 220.181 257.888L217.709 260.192C217.133 259.536 216.493 259.048 215.789 258.728C215.085 258.392 214.309 258.224 213.461 258.224C212.677 258.224 211.957 258.352 211.301 258.608C210.645 258.864 210.077 259.232 209.597 259.712C209.117 260.192 208.741 260.76 208.469 261.416C208.213 262.072 208.085 262.8 208.085 263.6C208.085 264.4 208.213 265.128 208.469 265.784C208.741 266.44 209.117 267.008 209.597 267.488C210.077 267.968 210.645 268.336 211.301 268.592C211.957 268.848 212.677 268.976 213.461 268.976C214.309 268.976 215.085 268.816 215.789 268.496C216.493 268.16 217.133 267.656 217.709 266.984L220.181 269.288C219.397 270.264 218.413 271.008 217.229 271.52C216.045 272.032 214.725 272.288 213.269 272.288Z" fill="#3024FA"/>
<path d="M140 275H220.805V276.2H140V275Z" fill="#3024FA"/>
<path d="M86.578 302.084C85.7847 302.084 85.0847 301.921 84.478 301.594C83.8807 301.267 83.414 300.819 83.078 300.25C82.7513 299.681 82.588 299.027 82.588 298.29C82.588 297.553 82.7467 296.899 83.064 296.33C83.3907 295.761 83.834 295.317 84.394 295C84.9633 294.673 85.6027 294.51 86.312 294.51C87.0307 294.51 87.6653 294.669 88.216 294.986C88.7667 295.303 89.196 295.751 89.504 296.33C89.8213 296.899 89.98 297.567 89.98 298.332C89.98 298.388 89.9753 298.453 89.966 298.528C89.966 298.603 89.9613 298.673 89.952 298.738H83.638V297.772H89.252L88.706 298.108C88.7153 297.632 88.6173 297.207 88.412 296.834C88.2067 296.461 87.922 296.171 87.558 295.966C87.2033 295.751 86.788 295.644 86.312 295.644C85.8453 295.644 85.43 295.751 85.066 295.966C84.702 296.171 84.4173 296.465 84.212 296.848C84.0067 297.221 83.904 297.651 83.904 298.136V298.36C83.904 298.855 84.016 299.298 84.24 299.69C84.4733 300.073 84.7953 300.371 85.206 300.586C85.6167 300.801 86.088 300.908 86.62 300.908C87.0587 300.908 87.4553 300.833 87.81 300.684C88.174 300.535 88.4913 300.311 88.762 300.012L89.504 300.88C89.168 301.272 88.748 301.571 88.244 301.776C87.7493 301.981 87.194 302.084 86.578 302.084ZM95.8083 294.51C96.4149 294.51 96.9469 294.627 97.4043 294.86C97.8709 295.093 98.2349 295.448 98.4963 295.924C98.7576 296.4 98.8883 297.002 98.8883 297.73V302H97.5443V297.884C97.5443 297.165 97.3669 296.624 97.0123 296.26C96.6669 295.896 96.1769 295.714 95.5423 295.714C95.0663 295.714 94.6509 295.807 94.2963 295.994C93.9416 296.181 93.6663 296.456 93.4703 296.82C93.2836 297.184 93.1903 297.637 93.1903 298.178V302H91.8463V294.58H93.1343V296.582L92.9243 296.05C93.1669 295.565 93.5403 295.187 94.0443 294.916C94.5483 294.645 95.1363 294.51 95.8083 294.51ZM107.697 302.112C107.007 302.112 106.335 302.005 105.681 301.79C105.037 301.575 104.51 301.286 104.099 300.922L104.743 299.816C105.07 300.124 105.495 300.376 106.017 300.572C106.54 300.768 107.095 300.866 107.683 300.866C108.43 300.866 109.004 300.707 109.405 300.39C109.807 300.073 110.007 299.648 110.007 299.116C110.007 298.752 109.919 298.435 109.741 298.164C109.564 297.893 109.256 297.688 108.817 297.548C108.388 297.399 107.795 297.324 107.039 297.324H104.813L105.331 292.2H110.861V293.418H105.849L106.577 292.732L106.171 296.778L105.443 296.106H107.333C108.313 296.106 109.102 296.232 109.699 296.484C110.297 296.736 110.731 297.086 111.001 297.534C111.272 297.973 111.407 298.481 111.407 299.06C111.407 299.62 111.272 300.133 111.001 300.6C110.731 301.057 110.32 301.426 109.769 301.706C109.228 301.977 108.537 302.112 107.697 302.112ZM120.896 294.51C121.503 294.51 122.035 294.627 122.492 294.86C122.959 295.093 123.323 295.448 123.584 295.924C123.845 296.4 123.976 297.002 123.976 297.73V302H122.632V297.884C122.632 297.165 122.455 296.624 122.1 296.26C121.755 295.896 121.265 295.714 120.63 295.714C120.154 295.714 119.739 295.807 119.384 295.994C119.029 296.181 118.754 296.456 118.558 296.82C118.371 297.184 118.278 297.637 118.278 298.178V302H116.934V291.612H118.278V296.582L118.012 296.05C118.255 295.565 118.628 295.187 119.132 294.916C119.636 294.645 120.224 294.51 120.896 294.51ZM129.641 302.084C128.895 302.084 128.232 301.921 127.653 301.594C127.075 301.267 126.617 300.819 126.281 300.25C125.945 299.671 125.777 299.018 125.777 298.29C125.777 297.553 125.945 296.899 126.281 296.33C126.617 295.761 127.075 295.317 127.653 295C128.232 294.673 128.895 294.51 129.641 294.51C130.379 294.51 131.037 294.673 131.615 295C132.203 295.317 132.661 295.761 132.987 296.33C133.323 296.89 133.491 297.543 133.491 298.29C133.491 299.027 133.323 299.681 132.987 300.25C132.661 300.819 132.203 301.267 131.615 301.594C131.037 301.921 130.379 302.084 129.641 302.084ZM129.641 300.908C130.117 300.908 130.542 300.801 130.915 300.586C131.298 300.371 131.597 300.068 131.811 299.676C132.026 299.275 132.133 298.813 132.133 298.29C132.133 297.758 132.026 297.301 131.811 296.918C131.597 296.526 131.298 296.223 130.915 296.008C130.542 295.793 130.117 295.686 129.641 295.686C129.165 295.686 128.741 295.793 128.367 296.008C127.994 296.223 127.695 296.526 127.471 296.918C127.247 297.301 127.135 297.758 127.135 298.29C127.135 298.813 127.247 299.275 127.471 299.676C127.695 300.068 127.994 300.371 128.367 300.586C128.741 300.801 129.165 300.908 129.641 300.908ZM135.35 302V294.58H136.638V296.596L136.512 296.092C136.718 295.579 137.063 295.187 137.548 294.916C138.034 294.645 138.631 294.51 139.34 294.51V295.812C139.284 295.803 139.228 295.798 139.172 295.798C139.126 295.798 139.079 295.798 139.032 295.798C138.314 295.798 137.744 296.013 137.324 296.442C136.904 296.871 136.694 297.492 136.694 298.304V302H135.35ZM145.056 302V300.432L144.986 300.138V297.464C144.986 296.895 144.818 296.456 144.482 296.148C144.155 295.831 143.66 295.672 142.998 295.672C142.559 295.672 142.13 295.747 141.71 295.896C141.29 296.036 140.935 296.227 140.646 296.47L140.086 295.462C140.468 295.154 140.926 294.921 141.458 294.762C141.999 294.594 142.564 294.51 143.152 294.51C144.169 294.51 144.953 294.757 145.504 295.252C146.054 295.747 146.33 296.503 146.33 297.52V302H145.056ZM142.62 302.084C142.069 302.084 141.584 301.991 141.164 301.804C140.753 301.617 140.436 301.361 140.212 301.034C139.988 300.698 139.876 300.32 139.876 299.9C139.876 299.499 139.969 299.135 140.156 298.808C140.352 298.481 140.664 298.22 141.094 298.024C141.532 297.828 142.12 297.73 142.858 297.73H145.21V298.696H142.914C142.242 298.696 141.789 298.808 141.556 299.032C141.322 299.256 141.206 299.527 141.206 299.844C141.206 300.208 141.35 300.502 141.64 300.726C141.929 300.941 142.33 301.048 142.844 301.048C143.348 301.048 143.786 300.936 144.16 300.712C144.542 300.488 144.818 300.161 144.986 299.732L145.252 300.656C145.074 301.095 144.762 301.445 144.314 301.706C143.866 301.958 143.301 302.084 142.62 302.084ZM150.945 302.084C150.329 302.084 149.741 302 149.181 301.832C148.63 301.664 148.196 301.459 147.879 301.216L148.439 300.152C148.756 300.367 149.148 300.549 149.615 300.698C150.082 300.847 150.558 300.922 151.043 300.922C151.668 300.922 152.116 300.833 152.387 300.656C152.667 300.479 152.807 300.231 152.807 299.914C152.807 299.681 152.723 299.499 152.555 299.368C152.387 299.237 152.163 299.139 151.883 299.074C151.612 299.009 151.309 298.953 150.973 298.906C150.637 298.85 150.301 298.785 149.965 298.71C149.629 298.626 149.321 298.514 149.041 298.374C148.761 298.225 148.537 298.024 148.369 297.772C148.201 297.511 148.117 297.165 148.117 296.736C148.117 296.288 148.243 295.896 148.495 295.56C148.747 295.224 149.102 294.967 149.559 294.79C150.026 294.603 150.576 294.51 151.211 294.51C151.696 294.51 152.186 294.571 152.681 294.692C153.185 294.804 153.596 294.967 153.913 295.182L153.339 296.246C153.003 296.022 152.653 295.868 152.289 295.784C151.925 295.7 151.561 295.658 151.197 295.658C150.609 295.658 150.17 295.756 149.881 295.952C149.592 296.139 149.447 296.381 149.447 296.68C149.447 296.932 149.531 297.128 149.699 297.268C149.876 297.399 150.1 297.501 150.371 297.576C150.651 297.651 150.959 297.716 151.295 297.772C151.631 297.819 151.967 297.884 152.303 297.968C152.639 298.043 152.942 298.15 153.213 298.29C153.493 298.43 153.717 298.626 153.885 298.878C154.062 299.13 154.151 299.466 154.151 299.886C154.151 300.334 154.02 300.721 153.759 301.048C153.498 301.375 153.129 301.631 152.653 301.818C152.177 301.995 151.608 302.084 150.945 302.084ZM159.912 304.8C159.558 304.8 159.212 304.739 158.876 304.618C158.54 304.506 158.251 304.338 158.008 304.114L158.582 303.106C158.769 303.283 158.974 303.419 159.198 303.512C159.422 303.605 159.66 303.652 159.912 303.652C160.239 303.652 160.51 303.568 160.724 303.4C160.939 303.232 161.14 302.933 161.326 302.504L161.788 301.482L161.928 301.314L164.84 294.58H166.156L162.558 302.742C162.344 303.265 162.101 303.675 161.83 303.974C161.569 304.273 161.28 304.483 160.962 304.604C160.645 304.735 160.295 304.8 159.912 304.8ZM161.676 302.238L158.288 294.58H159.688L162.572 301.188L161.676 302.238ZM174.404 302.084C173.648 302.084 172.972 301.921 172.374 301.594C171.786 301.267 171.324 300.819 170.988 300.25C170.652 299.681 170.484 299.027 170.484 298.29C170.484 297.553 170.652 296.899 170.988 296.33C171.324 295.761 171.786 295.317 172.374 295C172.972 294.673 173.648 294.51 174.404 294.51C175.076 294.51 175.674 294.645 176.196 294.916C176.728 295.177 177.139 295.569 177.428 296.092L176.406 296.75C176.164 296.386 175.865 296.12 175.51 295.952C175.165 295.775 174.792 295.686 174.39 295.686C173.905 295.686 173.471 295.793 173.088 296.008C172.706 296.223 172.402 296.526 172.178 296.918C171.954 297.301 171.842 297.758 171.842 298.29C171.842 298.822 171.954 299.284 172.178 299.676C172.402 300.068 172.706 300.371 173.088 300.586C173.471 300.801 173.905 300.908 174.39 300.908C174.792 300.908 175.165 300.824 175.51 300.656C175.865 300.479 176.164 300.208 176.406 299.844L177.428 300.488C177.139 301.001 176.728 301.398 176.196 301.678C175.674 301.949 175.076 302.084 174.404 302.084ZM182.291 302.084C181.656 302.084 181.096 301.967 180.611 301.734C180.135 301.501 179.761 301.146 179.491 300.67C179.229 300.185 179.099 299.578 179.099 298.85V294.58H180.443V298.696C180.443 299.424 180.615 299.97 180.961 300.334C181.315 300.698 181.81 300.88 182.445 300.88C182.911 300.88 183.317 300.787 183.663 300.6C184.008 300.404 184.274 300.124 184.461 299.76C184.647 299.387 184.741 298.939 184.741 298.416V294.58H186.085V302H184.811V299.998L185.021 300.53C184.778 301.025 184.414 301.407 183.929 301.678C183.443 301.949 182.897 302.084 182.291 302.084ZM188.643 302V294.58H189.931V296.596L189.805 296.092C190.01 295.579 190.356 295.187 190.841 294.916C191.326 294.645 191.924 294.51 192.633 294.51V295.812C192.577 295.803 192.521 295.798 192.465 295.798C192.418 295.798 192.372 295.798 192.325 295.798C191.606 295.798 191.037 296.013 190.617 296.442C190.197 296.871 189.987 297.492 189.987 298.304V302H188.643ZM198.349 302V300.432L198.279 300.138V297.464C198.279 296.895 198.111 296.456 197.775 296.148C197.448 295.831 196.953 295.672 196.291 295.672C195.852 295.672 195.423 295.747 195.003 295.896C194.583 296.036 194.228 296.227 193.939 296.47L193.379 295.462C193.761 295.154 194.219 294.921 194.751 294.762C195.292 294.594 195.857 294.51 196.445 294.51C197.462 294.51 198.246 294.757 198.797 295.252C199.347 295.747 199.623 296.503 199.623 297.52V302H198.349ZM195.913 302.084C195.362 302.084 194.877 301.991 194.457 301.804C194.046 301.617 193.729 301.361 193.505 301.034C193.281 300.698 193.169 300.32 193.169 299.9C193.169 299.499 193.262 299.135 193.449 298.808C193.645 298.481 193.957 298.22 194.387 298.024C194.825 297.828 195.413 297.73 196.151 297.73H198.503V298.696H196.207C195.535 298.696 195.082 298.808 194.849 299.032C194.615 299.256 194.499 299.527 194.499 299.844C194.499 300.208 194.643 300.502 194.933 300.726C195.222 300.941 195.623 301.048 196.137 301.048C196.641 301.048 197.079 300.936 197.453 300.712C197.835 300.488 198.111 300.161 198.279 299.732L198.545 300.656C198.367 301.095 198.055 301.445 197.607 301.706C197.159 301.958 196.594 302.084 195.913 302.084ZM205.87 302V291.612H207.214V302H205.87ZM214.386 302V300.432L214.316 300.138V297.464C214.316 296.895 214.148 296.456 213.812 296.148C213.485 295.831 212.991 295.672 212.328 295.672C211.889 295.672 211.46 295.747 211.04 295.896C210.62 296.036 210.265 296.227 209.976 296.47L209.416 295.462C209.799 295.154 210.256 294.921 210.788 294.762C211.329 294.594 211.894 294.51 212.482 294.51C213.499 294.51 214.283 294.757 214.834 295.252C215.385 295.747 215.66 296.503 215.66 297.52V302H214.386ZM211.95 302.084C211.399 302.084 210.914 301.991 210.494 301.804C210.083 301.617 209.766 301.361 209.542 301.034C209.318 300.698 209.206 300.32 209.206 299.9C209.206 299.499 209.299 299.135 209.486 298.808C209.682 298.481 209.995 298.22 210.424 298.024C210.863 297.828 211.451 297.73 212.188 297.73H214.54V298.696H212.244C211.572 298.696 211.119 298.808 210.886 299.032C210.653 299.256 210.536 299.527 210.536 299.844C210.536 300.208 210.681 300.502 210.97 300.726C211.259 300.941 211.661 301.048 212.174 301.048C212.678 301.048 213.117 300.936 213.49 300.712C213.873 300.488 214.148 300.161 214.316 299.732L214.582 300.656C214.405 301.095 214.092 301.445 213.644 301.706C213.196 301.958 212.631 302.084 211.95 302.084ZM225.841 302.084C225.225 302.084 224.66 301.944 224.147 301.664C223.643 301.375 223.237 300.95 222.929 300.39C222.63 299.83 222.481 299.13 222.481 298.29C222.481 297.45 222.625 296.75 222.915 296.19C223.213 295.63 223.615 295.21 224.119 294.93C224.632 294.65 225.206 294.51 225.841 294.51C226.569 294.51 227.213 294.669 227.773 294.986C228.333 295.303 228.776 295.747 229.103 296.316C229.429 296.876 229.593 297.534 229.593 298.29C229.593 299.046 229.429 299.709 229.103 300.278C228.776 300.847 228.333 301.291 227.773 301.608C227.213 301.925 226.569 302.084 225.841 302.084ZM221.907 304.716V294.58H223.195V296.582L223.111 298.304L223.251 300.026V304.716H221.907ZM225.729 300.908C226.205 300.908 226.629 300.801 227.003 300.586C227.385 300.371 227.684 300.068 227.899 299.676C228.123 299.275 228.235 298.813 228.235 298.29C228.235 297.758 228.123 297.301 227.899 296.918C227.684 296.526 227.385 296.223 227.003 296.008C226.629 295.793 226.205 295.686 225.729 295.686C225.262 295.686 224.837 295.793 224.455 296.008C224.081 296.223 223.783 296.526 223.559 296.918C223.344 297.301 223.237 297.758 223.237 298.29C223.237 298.813 223.344 299.275 223.559 299.676C223.783 300.068 224.081 300.371 224.455 300.586C224.837 300.801 225.262 300.908 225.729 300.908ZM234.628 302.084C233.881 302.084 233.218 301.921 232.64 301.594C232.061 301.267 231.604 300.819 231.268 300.25C230.932 299.671 230.764 299.018 230.764 298.29C230.764 297.553 230.932 296.899 231.268 296.33C231.604 295.761 232.061 295.317 232.64 295C233.218 294.673 233.881 294.51 234.628 294.51C235.365 294.51 236.023 294.673 236.602 295C237.19 295.317 237.647 295.761 237.974 296.33C238.31 296.89 238.478 297.543 238.478 298.29C238.478 299.027 238.31 299.681 237.974 300.25C237.647 300.819 237.19 301.267 236.602 301.594C236.023 301.921 235.365 302.084 234.628 302.084ZM234.628 300.908C235.104 300.908 235.528 300.801 235.902 300.586C236.284 300.371 236.583 300.068 236.798 299.676C237.012 299.275 237.12 298.813 237.12 298.29C237.12 297.758 237.012 297.301 236.798 296.918C236.583 296.526 236.284 296.223 235.902 296.008C235.528 295.793 235.104 295.686 234.628 295.686C234.152 295.686 233.727 295.793 233.354 296.008C232.98 296.223 232.682 296.526 232.458 296.918C232.234 297.301 232.122 297.758 232.122 298.29C232.122 298.813 232.234 299.275 232.458 299.676C232.682 300.068 232.98 300.371 233.354 300.586C233.727 300.801 234.152 300.908 234.628 300.908ZM244.271 302.084C243.636 302.084 243.062 301.944 242.549 301.664C242.045 301.375 241.643 300.95 241.345 300.39C241.055 299.83 240.91 299.13 240.91 298.29C240.91 297.45 241.06 296.75 241.359 296.19C241.667 295.63 242.073 295.21 242.577 294.93C243.09 294.65 243.655 294.51 244.271 294.51C244.999 294.51 245.643 294.669 246.203 294.986C246.763 295.303 247.206 295.747 247.533 296.316C247.859 296.876 248.023 297.534 248.023 298.29C248.023 299.046 247.859 299.709 247.533 300.278C247.206 300.847 246.763 301.291 246.203 301.608C245.643 301.925 244.999 302.084 244.271 302.084ZM240.337 302V291.612H241.681V296.554L241.541 298.276L241.625 299.998V302H240.337ZM244.159 300.908C244.635 300.908 245.059 300.801 245.433 300.586C245.815 300.371 246.114 300.068 246.329 299.676C246.553 299.275 246.665 298.813 246.665 298.29C246.665 297.758 246.553 297.301 246.329 296.918C246.114 296.526 245.815 296.223 245.433 296.008C245.059 295.793 244.635 295.686 244.159 295.686C243.692 295.686 243.267 295.793 242.885 296.008C242.511 296.223 242.213 296.526 241.989 296.918C241.774 297.301 241.667 297.758 241.667 298.29C241.667 298.813 241.774 299.275 241.989 299.676C242.213 300.068 242.511 300.371 242.885 300.586C243.267 300.801 243.692 300.908 244.159 300.908ZM249.879 302V294.58H251.167V296.596L251.041 296.092C251.247 295.579 251.592 295.187 252.077 294.916C252.563 294.645 253.16 294.51 253.869 294.51V295.812C253.813 295.803 253.757 295.798 253.701 295.798C253.655 295.798 253.608 295.798 253.561 295.798C252.843 295.798 252.273 296.013 251.853 296.442C251.433 296.871 251.223 297.492 251.223 298.304V302H249.879ZM258.762 302.084C257.968 302.084 257.268 301.921 256.662 301.594C256.064 301.267 255.598 300.819 255.262 300.25C254.935 299.681 254.772 299.027 254.772 298.29C254.772 297.553 254.93 296.899 255.248 296.33C255.574 295.761 256.018 295.317 256.578 295C257.147 294.673 257.786 294.51 258.496 294.51C259.214 294.51 259.849 294.669 260.4 294.986C260.95 295.303 261.38 295.751 261.688 296.33C262.005 296.899 262.164 297.567 262.164 298.332C262.164 298.388 262.159 298.453 262.15 298.528C262.15 298.603 262.145 298.673 262.136 298.738H255.822V297.772H261.436L260.89 298.108C260.899 297.632 260.801 297.207 260.596 296.834C260.39 296.461 260.106 296.171 259.742 295.966C259.387 295.751 258.972 295.644 258.496 295.644C258.029 295.644 257.614 295.751 257.25 295.966C256.886 296.171 256.601 296.465 256.396 296.848C256.19 297.221 256.088 297.651 256.088 298.136V298.36C256.088 298.855 256.2 299.298 256.424 299.69C256.657 300.073 256.979 300.371 257.39 300.586C257.8 300.801 258.272 300.908 258.804 300.908C259.242 300.908 259.639 300.833 259.994 300.684C260.358 300.535 260.675 300.311 260.946 300.012L261.688 300.88C261.352 301.272 260.932 301.571 260.428 301.776C259.933 301.981 259.378 302.084 258.762 302.084ZM263.248 302V301.132L268.008 295.224L268.274 295.686H263.332V294.58H269.352V295.462L264.592 301.356L264.284 300.894H269.464V302H263.248ZM275.868 302V300.432L275.798 300.138V297.464C275.798 296.895 275.63 296.456 275.294 296.148C274.968 295.831 274.473 295.672 273.81 295.672C273.372 295.672 272.942 295.747 272.522 295.896C272.102 296.036 271.748 296.227 271.458 296.47L270.898 295.462C271.281 295.154 271.738 294.921 272.27 294.762C272.812 294.594 273.376 294.51 273.964 294.51C274.982 294.51 275.766 294.757 276.316 295.252C276.867 295.747 277.142 296.503 277.142 297.52V302H275.868ZM273.432 302.084C272.882 302.084 272.396 301.991 271.976 301.804C271.566 301.617 271.248 301.361 271.024 301.034C270.8 300.698 270.688 300.32 270.688 299.9C270.688 299.499 270.782 299.135 270.968 298.808C271.164 298.481 271.477 298.22 271.906 298.024C272.345 297.828 272.933 297.73 273.67 297.73H276.022V298.696H273.726C273.054 298.696 272.602 298.808 272.368 299.032C272.135 299.256 272.018 299.527 272.018 299.844C272.018 300.208 272.163 300.502 272.452 300.726C272.742 300.941 273.143 301.048 273.656 301.048C274.16 301.048 274.599 300.936 274.972 300.712C275.355 300.488 275.63 300.161 275.798 299.732L276.064 300.656C275.887 301.095 275.574 301.445 275.126 301.706C274.678 301.958 274.114 302.084 273.432 302.084Z" fill="#131313"/>
<defs>
<linearGradient id="paint0_linear_160_4290" x1="0" y1="0" x2="131" y2="131" gradientUnits="userSpaceOnUse">
<stop stop-color="#C3F7BD"/>
<stop offset="1" stop-color="#C3F7BD" stop-opacity="0"/>
</linearGradient>
<linearGradient id="paint1_linear_160_4290" x1="340" y1="288" x2="270" y2="358" gradientUnits="userSpaceOnUse">
<stop stop-color="#C3F7BD"/>
<stop offset="1" stop-color="#C3F7BD" stop-opacity="0"/>
</linearGradient>
</defs>
</svg>
