<svg width="469" height="406" viewBox="0 0 469 406" fill="none" xmlns="http://www.w3.org/2000/svg">
<path d="M468.979 64.5092C468.974 64.6197 468.967 64.7303 468.956 64.8409C468.946 64.936 468.933 65.0338 468.92 65.1289C468.905 65.2395 468.89 65.3475 468.869 65.4581C468.851 65.5558 468.831 65.6509 468.808 65.7487C468.784 65.8567 468.759 65.9621 468.731 66.0701C468.705 66.1678 468.677 66.263 468.646 66.3607C468.613 66.4661 468.579 66.5716 468.541 66.6796C468.507 66.7747 468.471 66.8698 468.433 66.9624C468.389 67.073 468.343 67.1836 468.294 67.2942C468.253 67.3867 468.21 67.4793 468.166 67.5719C468.112 67.6825 468.056 67.7905 467.997 67.901C467.933 68.0168 467.871 68.1351 467.802 68.2508C467.786 68.2765 467.771 68.3048 467.753 68.3305C467.65 68.4976 467.543 68.6648 467.43 68.8294C467.409 68.8602 467.386 68.8911 467.363 68.9219C467.248 69.0865 467.124 69.2511 466.996 69.4131C466.973 69.444 466.945 69.4748 466.922 69.5031C466.809 69.6446 466.688 69.7834 466.565 69.9223C466.532 69.9609 466.498 69.9994 466.463 70.0354C466.316 70.1949 466.165 70.3543 466.006 70.5137C465.978 70.542 465.947 70.5703 465.919 70.5986C465.798 70.7169 465.672 70.8326 465.544 70.9483C465.441 71.0409 465.336 71.1335 465.228 71.2235C465.128 71.3084 465.028 71.3932 464.926 71.4755C464.815 71.5655 464.7 71.6555 464.582 71.743C464.474 71.8252 464.366 71.9075 464.256 71.9873C464.135 72.0747 464.012 72.1621 463.887 72.247C463.771 72.3267 463.656 72.4064 463.538 72.4836C463.407 72.5684 463.273 72.6533 463.14 72.7356C462.973 72.841 462.806 72.9439 462.632 73.0467L397.009 111.275C396.68 111.466 396.344 111.648 396 111.823C395.903 111.875 395.803 111.924 395.703 111.972C395.436 112.104 395.167 112.232 394.892 112.356C394.8 112.397 394.707 112.44 394.615 112.482C394.256 112.638 393.894 112.788 393.522 112.929C393.458 112.955 393.391 112.975 393.324 113.001C393.011 113.117 392.693 113.23 392.373 113.335C392.242 113.379 392.108 113.423 391.977 113.464C391.8 113.52 391.623 113.574 391.444 113.626C391.292 113.67 391.141 113.713 390.99 113.757C390.81 113.808 390.628 113.855 390.443 113.904C390.289 113.942 390.138 113.983 389.984 114.019C389.799 114.063 389.612 114.107 389.425 114.148C389.271 114.181 389.117 114.217 388.96 114.251C388.77 114.289 388.578 114.328 388.388 114.364C388.242 114.392 388.095 114.421 387.947 114.446C387.536 114.518 387.123 114.585 386.707 114.644C386.648 114.652 386.589 114.66 386.528 114.667C386.166 114.716 385.802 114.76 385.437 114.799C385.299 114.814 385.158 114.827 385.019 114.84C384.786 114.86 384.55 114.881 384.316 114.899C384.167 114.909 384.021 114.919 383.872 114.93C383.626 114.945 383.382 114.955 383.136 114.966C382.997 114.971 382.859 114.979 382.72 114.984C382.507 114.991 382.294 114.994 382.081 114.997C381.933 114.999 381.781 115.002 381.632 115.002C381.404 115.002 381.178 114.999 380.95 114.994C380.814 114.991 380.678 114.991 380.542 114.989C380.334 114.984 380.124 114.973 379.916 114.963C379.77 114.958 379.624 114.953 379.477 114.945C379.251 114.932 379.028 114.914 378.802 114.899C378.674 114.889 378.543 114.883 378.415 114.873C378.143 114.85 377.871 114.822 377.599 114.793C377.52 114.786 377.44 114.778 377.361 114.77C377.009 114.732 376.66 114.688 376.314 114.637C376.255 114.629 376.198 114.619 376.139 114.608C375.842 114.565 375.547 114.518 375.254 114.469C375.131 114.449 375.008 114.423 374.885 114.4C374.659 114.359 374.433 114.318 374.207 114.271C374.089 114.248 373.974 114.22 373.856 114.194C373.609 114.14 373.363 114.086 373.119 114.027C372.983 113.994 372.847 113.958 372.711 113.924C372.491 113.868 372.268 113.808 372.05 113.749C371.924 113.713 371.798 113.677 371.675 113.641C371.326 113.538 370.982 113.433 370.641 113.32C370.579 113.299 370.518 113.281 370.456 113.261C370.064 113.127 369.679 112.986 369.299 112.836C369.143 112.775 368.989 112.713 368.837 112.649C368.717 112.6 368.596 112.551 368.476 112.497C368.304 112.422 368.134 112.345 367.965 112.268C367.855 112.217 367.742 112.168 367.634 112.116C367.449 112.029 367.27 111.936 367.087 111.844C366.998 111.798 366.905 111.754 366.818 111.708C366.551 111.566 366.287 111.422 366.028 111.273L299.974 73.0544C297.544 71.6478 295.799 69.9943 294.737 68.2353C294.501 67.8445 294.298 67.4485 294.132 67.0473C294.047 66.8467 293.972 66.6461 293.906 66.4455C293.636 65.6381 293.505 64.8178 293.505 64L293 242.993C292.99 246.269 295.148 249.551 299.468 252.05L365.52 290.271C365.779 290.42 366.041 290.564 366.31 290.706C366.4 290.752 366.49 290.796 366.582 290.842C366.762 290.935 366.944 291.025 367.129 291.112C367.239 291.164 367.352 291.215 367.462 291.264C367.631 291.341 367.798 291.418 367.97 291.493C368.091 291.544 368.211 291.593 368.334 291.644C368.45 291.693 368.565 291.742 368.683 291.788C368.719 291.804 368.758 291.814 368.796 291.83C369.176 291.979 369.561 292.12 369.953 292.254C370.015 292.274 370.077 292.293 370.138 292.313C370.479 292.426 370.823 292.534 371.172 292.635C371.231 292.653 371.285 292.671 371.344 292.689C371.411 292.707 371.48 292.725 371.547 292.743C371.767 292.804 371.988 292.861 372.211 292.92C372.347 292.953 372.481 292.989 372.617 293.023C372.86 293.082 373.107 293.136 373.353 293.19C373.445 293.211 373.535 293.234 373.627 293.252C373.653 293.257 373.679 293.262 373.702 293.267C373.925 293.313 374.151 293.355 374.377 293.396C374.5 293.419 374.623 293.445 374.749 293.465C375.046 293.517 375.344 293.563 375.644 293.607C375.695 293.614 375.747 293.625 375.801 293.632C375.803 293.632 375.806 293.632 375.808 293.632C376.155 293.681 376.506 293.725 376.855 293.766C376.935 293.774 377.014 293.781 377.094 293.789C377.366 293.817 377.638 293.846 377.91 293.869C377.917 293.869 377.922 293.871 377.93 293.871C378.053 293.882 378.176 293.887 378.3 293.897C378.523 293.913 378.746 293.931 378.972 293.943C379.118 293.951 379.264 293.956 379.413 293.961C379.621 293.969 379.831 293.979 380.039 293.987C380.057 293.987 380.073 293.99 380.09 293.99C380.209 293.992 380.327 293.992 380.445 293.992C380.673 293.995 380.901 294 381.13 294C381.278 294 381.43 293.995 381.579 293.995C381.792 293.992 382.005 293.99 382.217 293.982C382.256 293.982 382.297 293.982 382.335 293.979C382.436 293.977 382.533 293.969 382.633 293.964C382.879 293.954 383.123 293.941 383.369 293.928C383.518 293.918 383.667 293.907 383.816 293.897C384.052 293.879 384.285 293.861 384.519 293.838C384.601 293.83 384.683 293.825 384.765 293.817C384.822 293.812 384.881 293.802 384.937 293.797C385.301 293.758 385.666 293.715 386.025 293.666C386.084 293.658 386.146 293.65 386.205 293.643C386.62 293.583 387.033 293.517 387.444 293.445C387.482 293.437 387.521 293.432 387.559 293.427C387.67 293.406 387.777 293.383 387.885 293.362C388.078 293.326 388.267 293.29 388.457 293.249C388.614 293.216 388.768 293.182 388.924 293.146C389.111 293.105 389.296 293.061 389.481 293.018C389.635 292.979 389.789 292.941 389.943 292.902C390.125 292.856 390.307 292.807 390.487 292.755C390.641 292.712 390.792 292.668 390.943 292.624C391.12 292.573 391.3 292.519 391.475 292.462C391.551 292.437 391.631 292.416 391.708 292.39C391.764 292.372 391.816 292.352 391.872 292.334C392.193 292.228 392.509 292.115 392.822 291.999C392.888 291.974 392.955 291.953 393.022 291.927C393.391 291.786 393.755 291.637 394.115 291.48C394.21 291.439 394.299 291.395 394.392 291.354C394.666 291.23 394.938 291.102 395.203 290.971C395.303 290.922 395.403 290.873 395.5 290.822C395.844 290.647 396.18 290.464 396.508 290.274L462.132 252.05C462.221 251.999 462.311 251.945 462.398 251.891C462.481 251.842 462.557 251.788 462.64 251.739C462.773 251.657 462.906 251.572 463.037 251.487C463.155 251.41 463.273 251.33 463.389 251.25C463.515 251.163 463.638 251.078 463.758 250.991C463.869 250.908 463.976 250.829 464.084 250.746C464.2 250.656 464.315 250.569 464.428 250.479C464.531 250.397 464.631 250.312 464.731 250.227C464.838 250.134 464.944 250.044 465.046 249.952C465.087 249.913 465.136 249.877 465.177 249.839C465.262 249.762 465.341 249.682 465.423 249.602C465.452 249.574 465.482 249.546 465.511 249.517C465.67 249.36 465.821 249.201 465.967 249.042C466.003 249.003 466.034 248.964 466.07 248.928C466.193 248.789 466.311 248.651 466.427 248.509C466.452 248.478 466.478 248.447 466.501 248.417C466.511 248.404 466.524 248.388 466.534 248.375C466.65 248.226 466.76 248.077 466.865 247.928C466.888 247.897 466.909 247.866 466.932 247.835C467.045 247.671 467.155 247.504 467.255 247.337C467.271 247.311 467.286 247.283 467.304 247.257C467.343 247.193 467.381 247.131 467.417 247.067C467.448 247.013 467.471 246.961 467.499 246.907C467.558 246.797 467.615 246.689 467.668 246.578C467.715 246.485 467.756 246.393 467.797 246.3C467.845 246.19 467.892 246.079 467.938 245.968C467.958 245.92 467.981 245.868 467.999 245.819C468.017 245.776 468.028 245.729 468.043 245.686C468.081 245.58 468.115 245.475 468.148 245.367C468.179 245.269 468.207 245.174 468.233 245.076C468.261 244.971 468.287 244.863 468.31 244.755C468.323 244.698 468.341 244.639 468.351 244.582C468.359 244.544 468.361 244.505 468.369 244.467C468.389 244.356 468.405 244.248 468.42 244.138C468.433 244.042 468.446 243.945 468.456 243.85C468.466 243.739 468.474 243.628 468.479 243.518C468.482 243.454 468.492 243.389 468.492 243.325C468.495 243.261 468.495 243.196 468.495 243.132L469 64.1389C468.997 64.2494 468.987 64.3806 468.979 64.5092Z" fill="url(#paint0_linear_140_3520)"/>
<path d="M462.514 54.9969C471.123 59.9709 471.167 68.0317 462.614 73.0056L396.803 111.271C388.25 116.242 374.339 116.244 365.73 111.271L299.486 73.0056C290.877 68.0317 290.833 59.9709 299.386 54.9969L365.2 16.7295C373.753 11.7581 387.663 11.7555 396.273 16.7295L462.514 54.9969Z" fill="url(#paint1_linear_140_3520)"/>
<path d="M388.5 33.1306C388.546 33.1306 388.592 33.1306 388.639 33.1306C388.803 33.1332 388.967 33.1383 389.128 33.1485C389.149 33.151 389.17 33.151 389.19 33.1536C389.321 33.1638 389.449 33.174 389.577 33.1893C389.626 33.1944 389.672 33.202 389.718 33.2071C389.821 33.2199 389.921 33.2352 390.021 33.2505C390.067 33.2581 390.113 33.2658 390.16 33.2735C390.313 33.3015 390.465 33.3321 390.614 33.3653C390.742 33.3959 390.867 33.4316 390.991 33.4698C391.037 33.4826 391.08 33.4979 391.124 33.5132C391.214 33.5438 391.301 33.5744 391.388 33.6076C391.429 33.6229 391.47 33.6382 391.511 33.6561C391.619 33.6994 391.727 33.7453 391.832 33.7963C391.847 33.804 391.863 33.8091 391.878 33.8167C392.006 33.878 392.132 33.9443 392.255 34.0157L382.919 28.621C382.896 28.6083 382.875 28.5955 382.852 28.5828C382.75 28.5267 382.647 28.4731 382.542 28.4195C382.526 28.4119 382.511 28.4068 382.496 28.3991C382.411 28.3583 382.324 28.3201 382.237 28.2818C382.216 28.2741 382.196 28.2665 382.175 28.2588C382.134 28.2435 382.093 28.2282 382.052 28.2104C381.965 28.1772 381.875 28.1466 381.788 28.116C381.744 28.1007 381.698 28.0879 381.654 28.0726C381.626 28.065 381.598 28.0548 381.57 28.0446C381.475 28.0165 381.377 27.991 381.277 27.9681C381.129 27.9324 380.977 27.9017 380.823 27.8762C380.805 27.8737 380.787 27.8686 380.77 27.866C380.741 27.8609 380.713 27.8584 380.685 27.8533C380.585 27.838 380.482 27.8227 380.382 27.8099C380.336 27.8048 380.287 27.7972 380.241 27.7921C380.113 27.7768 379.985 27.7666 379.854 27.7564C379.836 27.7564 379.82 27.7538 379.803 27.7513C379.8 27.7513 379.797 27.7513 379.795 27.7513C379.633 27.7411 379.469 27.7359 379.305 27.7334C379.259 27.7334 379.213 27.7334 379.166 27.7334C379.036 27.7334 378.905 27.736 378.774 27.7411C378.746 27.7411 378.718 27.7411 378.687 27.7436C378.671 27.7436 378.653 27.7462 378.638 27.7462C378.479 27.7538 378.317 27.764 378.153 27.7793L387.49 33.174C387.654 33.1587 387.815 33.1485 387.974 33.1408C388.02 33.1383 388.064 33.1383 388.11 33.1357C388.238 33.1332 388.372 33.1306 388.5 33.1306Z" fill="#A69CFC"/>
<path d="M367.678 71.3575C366.288 70.2046 365.221 68.6105 364.472 66.5699C364.19 65.8073 363.962 65.0013 363.785 64.1544C363.667 63.5882 363.572 63.0066 363.5 62.4021C363.464 62.1012 363.434 61.7951 363.41 61.4839C363.362 60.8615 363.336 60.2213 363.336 59.5632L354 54.1686C354.008 56.8034 354.385 59.1398 355.134 61.1753C355.883 63.2132 356.95 64.81 358.34 65.9629C358.494 66.0904 358.653 66.2128 358.814 66.3251C358.976 66.4373 359.143 66.5444 359.312 66.6413L368.648 72.036C368.312 71.8421 367.989 71.6151 367.678 71.3575Z" fill="#A69CFC"/>
<path d="M363.339 59.5658L354.002 54.1712L363.985 48.4373L373.321 53.8345L363.339 59.5658Z" fill="#A69CFC"/>
<path d="M376.961 41.6753L376.943 35.1482L367.607 29.751L367.625 36.2807L367.632 39.117L376.968 44.5117L376.961 41.6753Z" fill="#A69CFC"/>
<path d="M384.53 24.3869C384.545 24.2977 384.558 24.2084 384.571 24.1191C384.576 24.0783 384.584 24.0375 384.589 23.9967C384.591 23.9814 384.591 23.9661 384.594 23.9508C384.619 23.7493 384.64 23.5478 384.653 23.3488C384.655 23.3106 384.658 23.2698 384.66 23.2315C384.673 23.0249 384.681 22.8208 384.681 22.6168C384.678 21.4715 384.494 20.5456 384.132 19.834C383.96 19.5024 383.755 19.2372 383.514 19.0407C383.434 18.9744 383.35 18.9158 383.26 18.8648L373.924 13.4701C374.278 13.6741 374.568 13.9981 374.796 14.4393C375.16 15.151 375.342 16.0769 375.345 17.2221C375.345 17.4262 375.337 17.6302 375.324 17.8368C375.322 17.8751 375.319 17.9159 375.317 17.9542C375.304 18.1531 375.283 18.3546 375.258 18.5561C375.25 18.6122 375.242 18.6684 375.235 18.7245C375.222 18.8137 375.209 18.903 375.194 18.9923C375.183 19.0561 375.17 19.1198 375.16 19.1836C375.145 19.2729 375.127 19.3621 375.109 19.4514C375.099 19.505 375.086 19.5585 375.076 19.6121C375.027 19.834 374.97 20.0585 374.909 20.2855C374.878 20.3977 374.847 20.5125 374.811 20.6247C374.77 20.7599 374.727 20.8951 374.681 21.0277C374.619 21.2063 374.555 21.3874 374.486 21.5659C374.468 21.6144 374.447 21.6603 374.429 21.7087C374.378 21.8363 374.327 21.9638 374.273 22.0913C374.25 22.1475 374.224 22.2036 374.198 22.2597C374.144 22.3821 374.086 22.5071 374.029 22.6295C374.006 22.678 373.985 22.7239 373.962 22.7724C373.88 22.9407 373.796 23.1091 373.706 23.2774C373.691 23.3055 373.675 23.331 373.662 23.359C373.583 23.5044 373.501 23.6524 373.416 23.7977C373.352 23.9074 373.29 24.0146 373.224 24.1217C373.08 24.3563 372.931 24.5833 372.777 24.8104C372.726 24.8843 372.677 24.9608 372.626 25.0348C372.485 25.2389 372.336 25.4378 372.187 25.6368C372.146 25.6903 372.108 25.7465 372.067 25.7975C371.972 25.9199 371.869 26.0372 371.772 26.1597C371.657 26.2999 371.544 26.4428 371.423 26.5805C371.21 26.8254 370.99 27.0651 370.764 27.2998C370.595 27.4733 370.418 27.6365 370.241 27.8023C370.141 27.8941 370.043 27.9885 369.943 28.0778C369.797 28.2078 369.646 28.3303 369.497 28.4527C369.399 28.5318 369.302 28.6134 369.202 28.6925C369.033 28.8226 368.858 28.945 368.681 29.0674C368.594 29.1286 368.509 29.1924 368.422 29.2511C368.155 29.4296 367.884 29.598 367.607 29.7586L376.943 35.1533C377.222 34.9926 377.494 34.8243 377.758 34.6457C377.846 34.5871 377.93 34.5233 378.017 34.4621C378.192 34.3396 378.369 34.2172 378.538 34.0846C378.638 34.0081 378.733 33.9264 378.833 33.8448C378.984 33.7224 379.133 33.6 379.279 33.4699C379.379 33.3806 379.479 33.2862 379.577 33.1944C379.669 33.1077 379.764 33.0261 379.854 32.9368C379.936 32.8552 380.018 32.7735 380.098 32.6919C380.316 32.4649 380.528 32.2354 380.736 31.9981C380.744 31.9905 380.749 31.9803 380.757 31.9726C380.877 31.8349 380.99 31.6895 381.106 31.5492C381.198 31.437 381.293 31.3299 381.38 31.2151C381.385 31.2074 381.393 31.1998 381.398 31.1896C381.439 31.136 381.477 31.0799 381.519 31.0263C381.644 30.8605 381.77 30.6947 381.89 30.5238C381.913 30.4932 381.934 30.4601 381.955 30.4269C382.006 30.353 382.055 30.2764 382.106 30.2025C382.18 30.0928 382.255 29.9857 382.326 29.876C382.403 29.7561 382.478 29.6362 382.552 29.5163C382.603 29.4322 382.655 29.3454 382.706 29.2613C382.719 29.2383 382.732 29.2154 382.745 29.1924C382.829 29.047 382.911 28.9016 382.991 28.7537C383.004 28.7307 383.016 28.7103 383.027 28.6874C383.029 28.6823 383.032 28.6772 383.034 28.6721C383.124 28.5037 383.209 28.3354 383.291 28.167C383.296 28.1543 383.304 28.1415 383.309 28.1288C383.327 28.0931 383.34 28.0599 383.358 28.0242C383.417 27.9018 383.473 27.7768 383.527 27.6543C383.54 27.6263 383.552 27.6008 383.565 27.5727C383.578 27.5447 383.588 27.5141 383.601 27.486C383.655 27.3585 383.709 27.2309 383.758 27.1034C383.77 27.0703 383.786 27.0345 383.799 27.0014C383.804 26.9886 383.809 26.9759 383.814 26.9606C383.883 26.782 383.947 26.6035 384.009 26.4224C384.012 26.4122 384.017 26.4045 384.019 26.3943C384.06 26.2693 384.101 26.1444 384.14 26.0168C384.171 25.9173 384.199 25.8204 384.224 25.7209C384.23 25.7056 384.232 25.6903 384.235 25.675C384.296 25.448 384.353 25.2261 384.401 25.0017C384.407 24.9838 384.412 24.9634 384.417 24.9455C384.425 24.9098 384.43 24.8767 384.437 24.841C384.455 24.7517 384.473 24.6624 384.489 24.5731C384.509 24.5145 384.519 24.4507 384.53 24.3869Z" fill="#A69CFC"/>
<path d="M388.803 5.56301C388.859 5.57576 388.916 5.58851 388.97 5.60126C389.039 5.61912 389.111 5.63697 389.177 5.65483C389.231 5.67013 389.285 5.68544 389.339 5.70074C389.4 5.7186 389.465 5.739 389.526 5.7594C389.58 5.77726 389.634 5.79511 389.688 5.81552C389.749 5.83847 389.808 5.86144 389.867 5.88439C389.919 5.9048 389.972 5.9252 390.024 5.94816C390.08 5.97367 390.137 5.99917 390.193 6.02468C390.244 6.04763 390.296 6.07059 390.344 6.09609C390.401 6.12415 390.455 6.15221 390.508 6.18282C390.57 6.21597 390.632 6.24659 390.691 6.2823H390.688C390.688 6.2823 390.688 6.2823 390.691 6.2823L381.354 0.887627C381.331 0.874874 381.308 0.862127 381.285 0.846824C381.249 0.826418 381.211 0.808561 381.172 0.788155C381.118 0.760098 381.062 0.729491 381.006 0.701434C380.954 0.675927 380.906 0.652971 380.854 0.630015C380.798 0.604509 380.741 0.576446 380.682 0.553491C380.667 0.545838 380.654 0.540741 380.639 0.533089C380.603 0.517785 380.564 0.505028 380.528 0.489724C380.47 0.466768 380.408 0.441264 380.346 0.420859C380.293 0.400453 380.239 0.385151 380.185 0.367297C380.123 0.346891 380.062 0.326483 379.998 0.308629C379.977 0.303527 379.957 0.295879 379.936 0.288227C379.903 0.278024 379.869 0.27037 379.836 0.262718C379.767 0.244864 379.697 0.224461 379.628 0.209157C379.574 0.196403 379.518 0.183644 379.461 0.17089C379.39 0.155586 379.318 0.140287 379.246 0.127533C379.215 0.122432 379.187 0.114778 379.156 0.109677C379.136 0.107126 379.115 0.104576 379.095 0.102025C378.933 0.0765185 378.769 0.0510146 378.6 0.0331599C378.512 0.0255079 378.423 0.0178516 378.336 0.0127502C378.31 0.0101996 378.282 0.0102048 378.256 0.0102048C378.192 0.00765418 378.125 0.00510383 378.061 0.00255316C377.987 2.49094e-06 377.912 0 377.835 0C377.769 0 377.702 0.00255316 377.635 0.00255316C377.594 0.00255316 377.553 0.00254787 377.51 0.00509853C377.479 0.0076492 377.446 0.0101996 377.415 0.0127502C377.328 0.0178516 377.24 0.0229548 377.151 0.0306068C377.081 0.0357081 377.012 0.0433567 376.943 0.0510087C376.853 0.0612114 376.761 0.0739684 376.668 0.0867218C376.62 0.0943738 376.573 0.0969263 376.525 0.104578C376.507 0.107129 376.486 0.112225 376.468 0.114775C376.284 0.142833 376.096 0.175998 375.909 0.216808C375.901 0.219359 375.894 0.221907 375.884 0.221907C375.701 0.260167 375.517 0.306076 375.329 0.354539C375.309 0.35964 375.286 0.364741 375.265 0.369842C375.201 0.387697 375.135 0.408102 375.07 0.425957C375.004 0.443812 374.937 0.46422 374.87 0.484625C374.77 0.515233 374.67 0.548391 374.57 0.578999C374.506 0.599404 374.445 0.619815 374.38 0.64022C374.268 0.67848 374.15 0.721836 374.034 0.762647C373.983 0.780502 373.932 0.798357 373.878 0.818762C373.711 0.882529 373.542 0.948846 373.37 1.01771H373.367C373.162 1.10189 372.954 1.19371 372.744 1.28808C372.68 1.31614 372.613 1.3493 372.549 1.37991C372.4 1.44878 372.249 1.5202 372.098 1.59417C372.023 1.62988 371.949 1.66814 371.872 1.7064C371.721 1.78292 371.567 1.86199 371.41 1.94361C371.341 1.97932 371.274 2.01502 371.205 2.05328C370.985 2.17317 370.759 2.2956 370.533 2.42569C370.202 2.61699 369.877 2.81594 369.556 3.01999C369.487 3.06335 369.417 3.10926 369.348 3.15262C369.035 3.35667 368.727 3.56583 368.422 3.78519C368.374 3.8209 368.325 3.85661 368.276 3.89232C367.999 4.09382 367.725 4.30297 367.455 4.51468C367.404 4.55549 367.35 4.5963 367.299 4.63711C367.006 4.87177 366.719 5.11664 366.434 5.36661C366.373 5.42017 366.311 5.47628 366.25 5.5324C365.973 5.78236 365.696 6.03743 365.426 6.30014C365.414 6.3129 365.401 6.32565 365.388 6.33586C365.383 6.34096 365.38 6.34351 365.375 6.34861C365.093 6.62663 364.816 6.91231 364.544 7.20564C364.462 7.29491 364.38 7.38673 364.298 7.47601C364.175 7.61119 364.049 7.74638 363.926 7.88411C363.841 7.98104 363.757 8.08306 363.672 8.18254C363.621 8.24375 363.567 8.30497 363.516 8.36619C363.295 8.62891 363.077 8.89672 362.864 9.16965C362.815 9.23086 362.769 9.29208 362.723 9.35329C362.449 9.71039 362.182 10.0726 361.923 10.4399C361.92 10.4424 361.918 10.4475 361.915 10.4501C361.643 10.8378 361.379 11.228 361.123 11.6259C361.117 11.6336 361.112 11.6412 361.107 11.6489C360.984 11.8427 360.866 12.0392 360.748 12.2356C360.635 12.4218 360.517 12.6028 360.407 12.7916C360.402 12.7992 360.397 12.8069 360.394 12.8146C360.207 13.1334 360.03 13.4573 359.853 13.7813C359.82 13.845 359.781 13.9062 359.748 13.97C359.748 13.9726 359.745 13.9726 359.745 13.9751C359.535 14.3679 359.335 14.7633 359.14 15.1637C359.137 15.1688 359.135 15.1739 359.135 15.1765C359.042 15.3678 358.958 15.5616 358.868 15.7529C358.768 15.9723 358.663 16.1891 358.565 16.411C358.563 16.4161 358.56 16.4212 358.558 16.4263C358.368 16.8599 358.188 17.3012 358.017 17.745C358.014 17.7501 358.011 17.7577 358.009 17.7628C357.847 18.1837 357.691 18.6071 357.545 19.0382C357.516 19.1198 357.488 19.2014 357.463 19.283C357.35 19.6172 357.247 19.9488 357.144 20.2829C357.121 20.362 357.098 20.441 357.075 20.5201C357.029 20.6783 356.98 20.8364 356.937 20.9945C356.893 21.1527 356.852 21.3134 356.811 21.4715C356.78 21.5837 356.749 21.6985 356.721 21.8108C356.624 22.1985 356.529 22.5887 356.447 22.9764C356.444 22.9841 356.444 22.9917 356.442 22.9994C356.408 23.1575 356.38 23.3157 356.349 23.4738C356.293 23.7518 356.237 24.0324 356.188 24.3104C356.157 24.489 356.134 24.6675 356.106 24.8461C356.07 25.0858 356.029 25.3281 355.995 25.5679C355.993 25.5883 355.99 25.6112 355.988 25.6317C355.977 25.7107 355.97 25.7898 355.96 25.8689C355.921 26.1928 355.885 26.5193 355.857 26.8432C355.847 26.9733 355.836 27.1008 355.826 27.2309C355.803 27.5192 355.785 27.8099 355.772 28.0982C355.767 28.2206 355.759 28.343 355.754 28.4629C355.739 28.8634 355.731 29.2664 355.731 29.6694L365.067 35.064C365.067 34.661 365.075 34.2606 365.09 33.8576C365.096 33.7351 365.101 33.6127 365.108 33.4928C365.121 33.202 365.139 32.9138 365.162 32.6256C365.173 32.4955 365.183 32.368 365.193 32.2379C365.221 31.914 365.257 31.5875 365.296 31.2635C365.306 31.1845 365.314 31.1054 365.324 31.0263C365.357 30.7662 365.401 30.506 365.439 30.2458C365.468 30.0673 365.491 29.8862 365.521 29.7076C365.57 29.4296 365.627 29.1516 365.68 28.8736C365.711 28.7154 365.739 28.5547 365.773 28.3966C365.857 28.0012 365.952 27.6033 366.052 27.208C366.081 27.0957 366.111 26.981 366.142 26.8687C366.227 26.5524 366.314 26.2336 366.406 25.9173C366.429 25.8383 366.452 25.7592 366.476 25.6801C366.601 25.2644 366.735 24.8512 366.876 24.4354C367.024 23.9992 367.183 23.5682 367.348 23.1422C367.519 22.6984 367.702 22.2571 367.889 21.8235C367.989 21.594 368.097 21.3695 368.202 21.1425C368.289 20.9537 368.374 20.7599 368.463 20.5737C368.661 20.1656 368.866 19.7651 369.079 19.3672C369.112 19.3034 369.151 19.2422 369.184 19.1785C369.364 18.8469 369.548 18.5153 369.741 18.1888C369.851 18.0001 369.969 17.819 370.082 17.6328C370.207 17.4287 370.328 17.2247 370.459 17.0232C370.715 16.6252 370.977 16.235 371.251 15.8473C371.513 15.4775 371.782 15.1102 372.059 14.748C372.318 14.4087 372.585 14.0822 372.854 13.7583C372.906 13.6971 372.957 13.6359 373.011 13.5747C373.216 13.3323 373.426 13.0977 373.637 12.8656C373.719 12.7737 373.801 12.6819 373.883 12.5926C374.16 12.2968 374.439 12.006 374.727 11.7229C374.74 11.7101 374.752 11.6974 374.765 11.6872C375.035 11.4244 375.309 11.1694 375.589 10.9194C375.65 10.8633 375.712 10.8097 375.773 10.7536C376.058 10.5036 376.345 10.2588 376.638 10.0241C376.689 9.98331 376.743 9.9425 376.794 9.89914C377.063 9.68488 377.335 9.47828 377.612 9.27678C377.661 9.24107 377.71 9.20535 377.758 9.16965C378.064 8.95029 378.371 8.74114 378.684 8.53708C378.754 8.49117 378.823 8.44781 378.895 8.4019C379.218 8.19785 379.541 7.99634 379.872 7.80759C380.098 7.67751 380.321 7.55508 380.544 7.43519C380.613 7.39693 380.68 7.36377 380.749 7.32806C380.903 7.24644 381.057 7.16737 381.211 7.09085C381.285 7.05259 381.36 7.01688 381.434 6.97862C381.585 6.90465 381.737 6.83324 381.885 6.76437C381.949 6.73376 382.016 6.70315 382.08 6.67509C382.291 6.58072 382.498 6.48889 382.704 6.40472C382.875 6.3333 383.045 6.26699 383.214 6.20323C383.265 6.18282 383.317 6.16497 383.37 6.14711C383.486 6.10375 383.601 6.06294 383.717 6.02468C383.781 6.00427 383.842 5.98387 383.906 5.96346C384.006 5.9303 384.106 5.89715 384.207 5.86909C384.273 5.84868 384.34 5.83083 384.407 5.81042C384.494 5.78491 384.581 5.76196 384.666 5.739C384.853 5.69054 385.038 5.64462 385.22 5.60636C385.227 5.60381 385.235 5.60126 385.245 5.60126C385.435 5.56045 385.62 5.5273 385.804 5.49924C385.871 5.48904 385.938 5.47883 386.005 5.47118C386.097 5.45842 386.187 5.44568 386.279 5.43802C386.348 5.43037 386.417 5.42527 386.487 5.41762C386.574 5.40996 386.664 5.40231 386.748 5.39976C386.823 5.39466 386.897 5.39211 386.969 5.38956C387.036 5.38701 387.102 5.38701 387.169 5.38701C387.246 5.38701 387.32 5.38701 387.395 5.38956C387.459 5.39211 387.525 5.39211 387.59 5.39721C387.705 5.40231 387.823 5.40997 387.936 5.42272C388.105 5.44058 388.269 5.46353 388.431 5.49159C388.482 5.49924 388.531 5.50944 388.582 5.5171C388.662 5.53495 388.731 5.5477 388.803 5.56301Z" fill="#A69CFC"/>
<path d="M379.877 7.82032C383.045 6.00169 385.733 5.20333 387.941 5.42524C390.149 5.6497 391.829 6.69292 392.981 8.55491C394.133 10.4194 394.71 12.8987 394.717 15.9901C394.728 19.4259 393.943 22.7468 392.368 25.9428C391.098 28.519 389.472 30.9294 387.487 33.1714C388.618 33.0719 389.659 33.1357 390.611 33.3627C392.34 33.7785 393.666 34.8089 394.597 36.4541C395.525 38.1044 395.992 40.4434 396 43.4786C396.01 46.9705 395.356 50.4292 394.043 53.8522C392.727 57.2752 390.847 60.4482 388.408 63.3713C385.966 66.2918 383.021 68.7455 379.572 70.7249C377.045 72.1736 374.778 72.9312 372.77 72.995C370.761 73.0587 369.063 72.5129 367.676 71.36C366.286 70.2071 365.219 68.6129 364.47 66.5724C363.721 64.537 363.341 62.2005 363.336 59.5657L373.319 53.8344C373.324 55.7831 373.629 57.242 374.234 58.2138C374.84 59.1856 375.655 59.6932 376.679 59.7366C377.704 59.78 378.777 59.479 379.9 58.8337C381.103 58.1424 382.155 57.2829 383.055 56.2473C383.958 55.2143 384.666 53.9746 385.181 52.531C385.699 51.0873 385.958 49.5339 385.953 47.8734C385.951 46.6134 385.766 45.5702 385.402 44.7463C385.037 43.9225 384.483 43.3384 383.74 42.9889C382.996 42.642 382.062 42.5885 380.939 42.8333C379.815 43.0782 378.489 43.6368 376.968 44.5117L376.961 41.6753L376.943 35.1456C378.105 34.4773 379.156 33.6586 380.1 32.6893C381.039 31.7201 381.86 30.6615 382.56 29.5137C383.26 28.3659 383.788 27.2003 384.147 26.0193C384.504 24.8409 384.684 23.7059 384.681 22.6167C384.678 21.4715 384.494 20.5456 384.132 19.834C383.768 19.1274 383.245 18.7244 382.562 18.6275C381.88 18.5331 380.998 18.7958 379.915 19.4182C378.31 20.339 376.989 21.7572 375.95 23.6727C374.911 25.5908 374.396 27.6058 374.401 29.7254L365.078 35.0793C365.067 31.5288 365.67 27.9833 366.886 24.4456C368.102 20.9078 369.828 17.6812 372.067 14.7581C374.306 11.8376 376.909 9.52671 379.877 7.82032Z" fill="#F7F8F9"/>
<path d="M321.986 165.508C321.981 165.619 321.973 165.729 321.963 165.84C321.952 165.935 321.94 166.032 321.927 166.127C321.911 166.238 321.896 166.346 321.875 166.456C321.857 166.554 321.837 166.649 321.814 166.746C321.791 166.854 321.765 166.959 321.737 167.067C321.711 167.165 321.683 167.26 321.652 167.357C321.619 167.463 321.585 167.571 321.547 167.676C321.513 167.771 321.477 167.866 321.439 167.958C321.395 168.069 321.349 168.179 321.3 168.29C321.259 168.382 321.215 168.475 321.172 168.567C321.118 168.677 321.061 168.785 321.002 168.896C320.938 169.011 320.877 169.129 320.807 169.245C320.792 169.271 320.776 169.299 320.758 169.325C320.656 169.492 320.548 169.658 320.435 169.823C320.414 169.854 320.391 169.884 320.371 169.915C320.255 170.08 320.132 170.244 320.004 170.406C319.981 170.437 319.952 170.467 319.929 170.498C319.816 170.639 319.695 170.778 319.572 170.917C319.539 170.955 319.505 170.994 319.47 171.03C319.323 171.189 319.172 171.348 319.013 171.505C318.984 171.533 318.953 171.561 318.923 171.59C318.802 171.708 318.676 171.823 318.548 171.939C318.445 172.031 318.34 172.124 318.232 172.214C318.132 172.298 318.032 172.383 317.929 172.465C317.816 172.555 317.703 172.645 317.585 172.735C317.477 172.817 317.369 172.899 317.259 172.979C317.138 173.066 317.012 173.154 316.887 173.241C316.771 173.32 316.656 173.4 316.537 173.477C316.406 173.562 316.273 173.647 316.139 173.729C315.973 173.834 315.806 173.937 315.631 174.04L249.961 212.211C249.632 212.401 249.296 212.583 248.952 212.758C248.854 212.809 248.754 212.858 248.654 212.907C248.387 213.038 248.114 213.166 247.84 213.29C247.747 213.331 247.655 213.374 247.562 213.416C247.203 213.572 246.841 213.721 246.469 213.862C246.405 213.888 246.338 213.909 246.271 213.934C245.958 214.05 245.639 214.163 245.318 214.268C245.187 214.312 245.054 214.355 244.923 214.396C244.746 214.453 244.569 214.507 244.389 214.558C244.237 214.602 244.089 214.646 243.935 214.689C243.752 214.741 243.57 214.787 243.388 214.836C243.234 214.874 243.082 214.915 242.928 214.951C242.743 214.997 242.556 215.039 242.368 215.08C242.214 215.113 242.06 215.149 241.904 215.182C241.714 215.221 241.521 215.259 241.328 215.295C241.182 215.324 241.036 215.352 240.887 215.378C240.476 215.449 240.063 215.516 239.647 215.575C239.588 215.583 239.529 215.591 239.467 215.598C239.105 215.647 238.74 215.691 238.376 215.729C238.237 215.745 238.096 215.758 237.957 215.77C237.724 215.791 237.487 215.812 237.251 215.829C237.102 215.84 236.956 215.85 236.807 215.86C236.56 215.876 236.317 215.886 236.07 215.896C235.931 215.901 235.793 215.909 235.654 215.914C235.441 215.922 235.228 215.925 235.015 215.927C234.866 215.93 234.714 215.932 234.565 215.932C234.337 215.932 234.111 215.93 233.882 215.925C233.746 215.922 233.61 215.922 233.474 215.919C233.266 215.914 233.056 215.904 232.848 215.894C232.701 215.889 232.555 215.883 232.409 215.876C232.183 215.863 231.957 215.845 231.731 215.829C231.603 215.819 231.474 215.814 231.346 215.804C231.071 215.781 230.799 215.752 230.527 215.724C230.45 215.716 230.37 215.709 230.293 215.701C229.941 215.663 229.592 215.616 229.245 215.568C229.189 215.56 229.133 215.55 229.076 215.542C228.778 215.498 228.48 215.452 228.185 215.401C228.062 215.38 227.941 215.354 227.818 215.331C227.589 215.29 227.363 215.249 227.138 215.203C227.019 215.18 226.904 215.152 226.788 215.126C226.542 215.072 226.295 215.018 226.051 214.959C225.915 214.926 225.779 214.892 225.643 214.856C225.42 214.8 225.199 214.741 224.978 214.682C224.852 214.646 224.729 214.61 224.603 214.574C224.254 214.471 223.908 214.366 223.566 214.253C223.504 214.232 223.443 214.214 223.384 214.194C222.991 214.06 222.606 213.919 222.226 213.77C222.072 213.708 221.918 213.647 221.764 213.585C221.643 213.536 221.52 213.485 221.402 213.433C221.23 213.359 221.06 213.282 220.891 213.205C220.78 213.154 220.667 213.105 220.559 213.053C220.375 212.966 220.192 212.874 220.01 212.781C219.92 212.735 219.83 212.694 219.743 212.648C219.476 212.506 219.211 212.363 218.952 212.214L152.853 174.045C148.529 171.549 146.372 168.272 146.38 165L146 299.063C145.99 302.334 148.149 305.611 152.473 308.107L218.572 346.276C218.831 346.425 219.093 346.569 219.363 346.71C219.45 346.757 219.543 346.8 219.633 346.846C219.815 346.939 219.995 347.031 220.179 347.119C220.29 347.17 220.403 347.221 220.513 347.27C220.683 347.347 220.85 347.424 221.022 347.499C221.142 347.55 221.266 347.599 221.386 347.65C221.502 347.699 221.617 347.748 221.735 347.794C221.771 347.809 221.81 347.82 221.846 347.835C222.226 347.984 222.613 348.125 223.006 348.259C223.068 348.279 223.13 348.297 223.189 348.318C223.53 348.431 223.877 348.539 224.226 348.639C224.285 348.657 224.339 348.675 224.398 348.693C224.465 348.711 224.534 348.729 224.601 348.747C224.822 348.808 225.042 348.867 225.266 348.924C225.402 348.957 225.535 348.993 225.671 349.027C225.915 349.086 226.162 349.14 226.408 349.194C226.501 349.214 226.591 349.237 226.686 349.255C226.711 349.26 226.737 349.266 226.76 349.271C226.983 349.317 227.209 349.358 227.435 349.399C227.559 349.422 227.682 349.448 227.808 349.468C228.105 349.52 228.406 349.566 228.706 349.61C228.758 349.617 228.809 349.628 228.86 349.633C228.863 349.633 228.865 349.633 228.868 349.633C229.215 349.682 229.566 349.725 229.916 349.766C229.993 349.774 230.07 349.782 230.144 349.789C230.419 349.818 230.694 349.846 230.971 349.869C230.979 349.869 230.984 349.872 230.991 349.872C231.112 349.882 231.233 349.887 231.353 349.897C231.579 349.913 231.805 349.931 232.034 349.944C232.18 349.951 232.327 349.956 232.473 349.961C232.681 349.969 232.891 349.979 233.099 349.987C233.117 349.987 233.133 349.99 233.151 349.99C233.269 349.992 233.384 349.992 233.503 349.992C233.731 349.995 233.962 350 234.191 350C234.34 350 234.488 349.995 234.637 349.995C234.85 349.992 235.064 349.99 235.279 349.982C235.318 349.982 235.359 349.982 235.397 349.979C235.497 349.977 235.595 349.969 235.695 349.964C235.942 349.954 236.188 349.941 236.432 349.928C236.581 349.918 236.727 349.908 236.876 349.897C237.112 349.879 237.346 349.861 237.582 349.838C237.665 349.831 237.747 349.825 237.829 349.818C237.885 349.813 237.942 349.802 238.001 349.797C238.365 349.759 238.73 349.715 239.092 349.666C239.151 349.658 239.213 349.651 239.272 349.643C239.688 349.584 240.101 349.517 240.512 349.445C240.55 349.438 240.589 349.432 240.627 349.427C240.735 349.407 240.843 349.384 240.954 349.363C241.146 349.327 241.339 349.289 241.529 349.25C241.683 349.217 241.837 349.183 241.993 349.147C242.181 349.106 242.368 349.063 242.553 349.019C242.707 348.98 242.861 348.942 243.013 348.903C243.195 348.857 243.377 348.808 243.56 348.757C243.711 348.716 243.863 348.672 244.014 348.626C244.194 348.572 244.371 348.518 244.548 348.464C244.625 348.441 244.705 348.418 244.782 348.392C244.838 348.374 244.89 348.354 244.946 348.336C245.267 348.231 245.583 348.118 245.896 348.002C245.963 347.976 246.03 347.956 246.094 347.93C246.464 347.789 246.828 347.64 247.188 347.483C247.28 347.442 247.372 347.401 247.465 347.357C247.74 347.234 248.012 347.106 248.279 346.975C248.379 346.926 248.479 346.877 248.577 346.826C248.921 346.651 249.257 346.469 249.586 346.279L315.256 308.107C315.346 308.056 315.436 308.002 315.523 307.948C315.605 307.899 315.682 307.845 315.765 307.797C315.898 307.714 316.032 307.63 316.163 307.545C316.281 307.468 316.396 307.388 316.512 307.309C316.638 307.221 316.761 307.137 316.881 307.049C316.992 306.967 317.1 306.888 317.208 306.805C317.323 306.715 317.439 306.628 317.552 306.538C317.654 306.456 317.754 306.371 317.855 306.287C317.962 306.194 318.068 306.104 318.17 306.012C318.214 305.973 318.26 305.937 318.301 305.899C318.386 305.822 318.466 305.742 318.548 305.663C318.576 305.634 318.607 305.606 318.635 305.578C318.794 305.421 318.946 305.262 319.092 305.103C319.128 305.064 319.161 305.026 319.195 304.987C319.318 304.848 319.436 304.71 319.552 304.569C319.577 304.538 319.603 304.507 319.626 304.476C319.636 304.463 319.649 304.448 319.662 304.435C319.778 304.286 319.888 304.137 319.993 303.988C320.016 303.957 320.037 303.927 320.058 303.896C320.171 303.731 320.281 303.564 320.381 303.398C320.396 303.372 320.412 303.344 320.43 303.318C320.468 303.254 320.507 303.192 320.543 303.128C320.574 303.074 320.597 303.02 320.625 302.969C320.684 302.858 320.74 302.75 320.794 302.64C320.841 302.547 320.882 302.455 320.923 302.363C320.972 302.252 321.018 302.142 321.061 302.031C321.082 301.983 321.105 301.931 321.123 301.882C321.141 301.839 321.151 301.792 321.167 301.749C321.205 301.644 321.239 301.538 321.272 301.43C321.303 301.333 321.331 301.238 321.357 301.14C321.385 301.035 321.411 300.927 321.434 300.819C321.447 300.763 321.465 300.704 321.475 300.647C321.483 300.609 321.485 300.57 321.493 300.532C321.513 300.421 321.529 300.313 321.544 300.203C321.557 300.108 321.57 300.01 321.58 299.915C321.59 299.805 321.598 299.694 321.603 299.584C321.606 299.52 321.616 299.456 321.616 299.389C321.619 299.325 321.619 299.26 321.619 299.196L321.999 165.134C322.004 165.249 321.993 165.38 321.986 165.508Z" fill="url(#paint2_linear_140_3520)"/>
<path d="M315.514 155.997C324.123 160.971 324.167 169.032 315.614 174.006L249.801 212.27C241.248 217.242 227.338 217.244 218.729 212.27L152.486 174.006C143.877 169.032 143.833 160.971 152.386 155.997L218.198 117.729C226.752 112.758 240.662 112.756 249.271 117.729L315.514 155.997Z" fill="url(#paint3_linear_140_3520)"/>
<path d="M236.518 157.467L227.148 152.019L244.052 142.26L253.425 147.706L236.518 157.467Z" fill="#A69CFC"/>
<path d="M241.544 129.32C241.578 129.119 241.609 128.919 241.635 128.72C241.64 128.684 241.647 128.646 241.653 128.61C241.655 128.599 241.655 128.586 241.658 128.576C241.673 128.458 241.686 128.339 241.699 128.221C241.709 128.131 241.72 128.043 241.727 127.953C241.74 127.829 241.748 127.706 241.758 127.582C241.763 127.5 241.774 127.415 241.779 127.332C241.787 127.196 241.792 127.059 241.799 126.923C241.802 126.853 241.807 126.784 241.81 126.714C241.815 126.508 241.82 126.302 241.817 126.096C241.815 125.172 241.691 124.317 241.447 123.529C241.202 122.746 240.836 122.131 240.352 121.685C240.283 121.621 240.211 121.564 240.139 121.508C240.064 121.454 239.989 121.402 239.909 121.356L230.536 115.91C230.694 116.002 230.843 116.111 230.979 116.237C231.463 116.682 231.829 117.295 232.074 118.08C232.318 118.868 232.442 119.723 232.445 120.648C232.445 120.854 232.442 121.06 232.437 121.266C232.434 121.335 232.429 121.405 232.427 121.474C232.421 121.611 232.416 121.747 232.406 121.884C232.401 121.966 232.393 122.051 232.385 122.133C232.375 122.257 232.367 122.381 232.354 122.504C232.347 122.594 232.334 122.685 232.326 122.772C232.313 122.891 232.3 123.006 232.285 123.125C232.28 123.174 232.269 123.223 232.264 123.274C232.239 123.472 232.208 123.673 232.174 123.872C232.161 123.949 232.148 124.026 232.133 124.103C232.099 124.289 232.063 124.472 232.025 124.657C232.012 124.724 231.999 124.793 231.984 124.86C231.932 125.095 231.878 125.329 231.819 125.563C231.765 125.774 231.708 125.988 231.649 126.205C231.639 126.238 231.628 126.271 231.621 126.305C231.564 126.508 231.505 126.712 231.44 126.918C231.415 127 231.389 127.083 231.363 127.162C231.312 127.325 231.26 127.487 231.206 127.649C231.175 127.742 231.144 127.834 231.113 127.925C231.059 128.087 231.003 128.249 230.943 128.411C230.91 128.504 230.879 128.594 230.845 128.687C230.781 128.867 230.712 129.047 230.642 129.23C230.614 129.307 230.585 129.382 230.557 129.457C230.495 129.619 230.428 129.786 230.361 129.951C230.33 130.031 230.3 130.108 230.266 130.188C230.166 130.433 230.063 130.682 229.957 130.932C229.834 131.221 229.705 131.519 229.576 131.821C229.514 131.962 229.452 132.106 229.388 132.251C229.355 132.328 229.321 132.408 229.285 132.485C229.185 132.714 229.082 132.948 228.979 133.183C228.976 133.19 228.971 133.198 228.968 133.206C228.86 133.45 228.749 133.7 228.639 133.95C228.603 134.03 228.567 134.11 228.531 134.19C228.451 134.367 228.371 134.547 228.291 134.728C228.25 134.82 228.209 134.913 228.165 135.006C228.088 135.176 228.01 135.348 227.933 135.521C227.887 135.621 227.843 135.722 227.797 135.822C227.714 136.002 227.632 136.185 227.547 136.37C227.506 136.461 227.465 136.551 227.423 136.643C227.297 136.919 227.171 137.194 227.042 137.478L208.284 176.365L217.656 181.811L236.415 142.924C236.544 142.643 236.67 142.365 236.796 142.092C236.84 141.999 236.881 141.907 236.922 141.814C237.005 141.631 237.087 141.451 237.17 141.271C237.216 141.168 237.262 141.067 237.306 140.967C237.383 140.797 237.458 140.629 237.535 140.462C237.579 140.364 237.623 140.266 237.667 140.169C237.746 139.993 237.824 139.818 237.901 139.646C237.937 139.563 237.976 139.481 238.012 139.399C238.117 139.159 238.223 138.922 238.326 138.688C238.339 138.657 238.354 138.626 238.367 138.595C238.467 138.369 238.563 138.147 238.661 137.928C238.694 137.854 238.725 137.782 238.756 137.709C238.805 137.596 238.856 137.48 238.905 137.37C238.921 137.336 238.933 137.303 238.949 137.269C239.08 136.968 239.206 136.672 239.33 136.381C239.436 136.131 239.539 135.884 239.639 135.639C239.672 135.557 239.703 135.477 239.737 135.395C239.801 135.232 239.868 135.07 239.93 134.908C239.938 134.89 239.945 134.872 239.951 134.854C239.974 134.795 239.994 134.735 240.018 134.676C240.087 134.493 240.154 134.313 240.218 134.133C240.252 134.04 240.285 133.95 240.316 133.857C240.375 133.693 240.432 133.53 240.486 133.368C240.504 133.317 240.522 133.265 240.54 133.214C240.553 133.172 240.566 133.134 240.579 133.093C240.633 132.928 240.684 132.766 240.736 132.603C240.762 132.521 240.787 132.439 240.813 132.359C240.875 132.153 240.934 131.949 240.993 131.746C241.001 131.718 241.011 131.687 241.019 131.656C241.019 131.651 241.022 131.648 241.022 131.643C241.081 131.427 241.138 131.213 241.192 131.002C241.251 130.767 241.305 130.533 241.357 130.299C241.362 130.278 241.367 130.258 241.372 130.237C241.382 130.191 241.39 130.144 241.398 130.098C241.436 129.912 241.472 129.727 241.506 129.542C241.519 129.475 241.532 129.397 241.544 129.32Z" fill="#A69CFC"/>
<path d="M236.261 109.058C238.877 107.549 241.192 106.777 243.208 106.74C245.224 106.707 246.908 107.24 248.263 108.34C249.614 109.442 250.637 110.92 251.329 112.781C252.019 114.641 252.37 116.726 252.377 119.039C252.388 122.335 251.829 125.682 250.711 129.076C249.591 132.475 248.129 135.822 246.324 139.123L236.518 157.465L253.423 147.706L253.461 161.147L217.659 181.819L236.418 142.932C237.54 140.491 238.511 138.307 239.333 136.384C240.151 134.465 240.772 132.67 241.192 131.01C241.611 129.349 241.817 127.711 241.812 126.091C241.81 125.167 241.686 124.312 241.441 123.524C241.197 122.741 240.831 122.126 240.347 121.68C239.863 121.238 239.255 121.006 238.529 120.993C237.806 120.978 236.958 121.248 235.993 121.807C234.703 122.551 233.57 123.668 232.586 125.164C231.603 126.658 230.861 128.391 230.364 130.356C229.864 132.323 229.62 134.406 229.625 136.6L219.603 142.386C219.59 138.05 220.203 133.731 221.442 129.426C222.68 125.121 224.552 121.173 227.063 117.581C229.571 113.994 232.638 111.151 236.261 109.058Z" fill="#F7F8F9"/>
<path d="M237.509 108.383C237.553 108.36 237.6 108.337 237.643 108.314C237.836 108.218 238.03 108.126 238.22 108.038C238.264 108.017 238.305 107.999 238.346 107.981C238.498 107.912 238.65 107.848 238.802 107.783C238.861 107.757 238.923 107.732 238.982 107.708C239.065 107.675 239.147 107.642 239.23 107.611C239.299 107.582 239.371 107.557 239.441 107.531C239.523 107.5 239.606 107.472 239.685 107.443C239.755 107.42 239.822 107.394 239.891 107.371C239.974 107.343 240.054 107.317 240.133 107.291C240.2 107.271 240.267 107.248 240.334 107.227C240.417 107.201 240.496 107.181 240.576 107.157C240.638 107.139 240.7 107.121 240.759 107.106C240.947 107.057 241.132 107.011 241.315 106.972C241.356 106.964 241.398 106.954 241.439 106.946C241.601 106.913 241.761 106.884 241.92 106.859C241.951 106.854 241.982 106.848 242.011 106.843C242.165 106.82 242.32 106.799 242.471 106.784C242.505 106.781 242.538 106.779 242.572 106.776C242.69 106.766 242.809 106.756 242.925 106.751C243.022 106.745 243.118 106.74 243.213 106.74C243.391 106.738 243.566 106.74 243.738 106.745C243.785 106.748 243.831 106.748 243.875 106.751C243.998 106.756 244.117 106.766 244.238 106.776C244.302 106.781 244.367 106.787 244.431 106.794C244.557 106.807 244.681 106.825 244.804 106.843C244.851 106.851 244.9 106.856 244.946 106.864C245.111 106.892 245.273 106.926 245.43 106.962C245.469 106.969 245.505 106.982 245.543 106.99C245.664 107.021 245.785 107.052 245.904 107.088C245.953 107.103 246.002 107.119 246.053 107.134C246.159 107.17 246.264 107.206 246.37 107.245C246.416 107.263 246.465 107.281 246.512 107.299C246.638 107.351 246.761 107.405 246.882 107.461C246.903 107.472 246.921 107.479 246.942 107.487C247.094 107.562 247.24 107.639 247.387 107.724L238.014 102.278C237.988 102.262 237.963 102.247 237.937 102.234C237.816 102.167 237.695 102.103 237.571 102.044C237.551 102.033 237.533 102.026 237.512 102.018C237.414 101.971 237.316 101.925 237.219 101.884C237.193 101.874 237.167 101.866 237.144 101.856C237.097 101.838 237.049 101.819 237.002 101.801C236.899 101.763 236.794 101.724 236.685 101.691C236.637 101.675 236.588 101.657 236.536 101.644C236.508 101.637 236.479 101.624 236.449 101.616C236.358 101.59 236.268 101.567 236.176 101.547C236.137 101.536 236.101 101.526 236.062 101.516C235.913 101.48 235.761 101.449 235.607 101.423C235.596 101.42 235.586 101.42 235.578 101.418C235.532 101.41 235.483 101.405 235.437 101.397C235.313 101.379 235.189 101.361 235.063 101.348C234.999 101.341 234.935 101.335 234.87 101.33C234.798 101.325 234.729 101.315 234.656 101.312C234.607 101.31 234.556 101.307 234.507 101.307C234.461 101.305 234.414 101.302 234.371 101.302C234.198 101.297 234.023 101.294 233.845 101.297C233.771 101.299 233.696 101.299 233.619 101.305C233.598 101.305 233.575 101.307 233.554 101.31C233.438 101.315 233.32 101.325 233.202 101.335C233.168 101.338 233.135 101.341 233.101 101.343C232.949 101.359 232.797 101.379 232.64 101.402C232.632 101.405 232.622 101.405 232.614 101.405C232.594 101.408 232.571 101.413 232.55 101.418C232.39 101.444 232.231 101.472 232.069 101.505C232.027 101.513 231.986 101.521 231.945 101.531C231.762 101.57 231.577 101.616 231.389 101.665C231.378 101.668 231.366 101.67 231.355 101.673C231.306 101.686 231.255 101.701 231.206 101.717C231.126 101.74 231.046 101.763 230.964 101.786C230.897 101.807 230.83 101.827 230.763 101.85C230.683 101.876 230.601 101.902 230.521 101.93C230.454 101.953 230.385 101.977 230.315 102.002C230.233 102.031 230.153 102.062 230.07 102.09C230.001 102.116 229.931 102.144 229.859 102.17C229.777 102.201 229.694 102.234 229.612 102.268C229.584 102.28 229.553 102.291 229.524 102.304C229.494 102.316 229.463 102.332 229.434 102.342C229.282 102.407 229.133 102.471 228.979 102.54C228.937 102.559 228.894 102.577 228.852 102.597C228.662 102.685 228.469 102.777 228.276 102.873C228.232 102.896 228.186 102.919 228.142 102.942C227.985 103.022 227.828 103.102 227.668 103.187C227.611 103.218 227.557 103.246 227.501 103.277C227.3 103.385 227.099 103.498 226.895 103.614C226.651 103.756 226.411 103.9 226.172 104.047C226.095 104.096 226.017 104.145 225.94 104.194C225.78 104.294 225.621 104.397 225.464 104.5C225.374 104.559 225.284 104.621 225.196 104.68C225.052 104.778 224.91 104.876 224.766 104.976C224.673 105.041 224.583 105.108 224.49 105.175C224.354 105.275 224.215 105.376 224.081 105.479C223.991 105.545 223.901 105.615 223.811 105.685C223.674 105.79 223.538 105.898 223.401 106.006C223.316 106.073 223.234 106.14 223.149 106.21C223.002 106.331 222.855 106.454 222.711 106.578C222.644 106.637 222.575 106.694 222.505 106.753C222.294 106.939 222.083 107.127 221.877 107.317C221.869 107.325 221.859 107.333 221.851 107.34C221.653 107.523 221.457 107.711 221.264 107.902C221.251 107.914 221.238 107.927 221.225 107.94C221.192 107.974 221.158 108.01 221.125 108.043C220.934 108.234 220.746 108.427 220.561 108.623C220.497 108.69 220.432 108.759 220.368 108.829C220.164 109.047 219.964 109.269 219.765 109.495C219.747 109.516 219.729 109.534 219.711 109.555C219.706 109.56 219.704 109.565 219.698 109.57C219.518 109.776 219.34 109.987 219.165 110.201C219.15 110.219 219.137 110.237 219.124 110.255C218.965 110.451 218.805 110.652 218.648 110.852C218.643 110.86 218.638 110.865 218.632 110.873C218.478 111.071 218.326 111.272 218.177 111.476C218.171 111.483 218.164 111.494 218.159 111.501C218.017 111.695 217.875 111.893 217.734 112.091C217.721 112.107 217.711 112.125 217.698 112.14C217.386 112.585 217.085 113.039 216.791 113.494C216.791 113.497 216.789 113.497 216.789 113.5C216.745 113.569 216.704 113.644 216.657 113.713C216.42 114.089 216.186 114.468 215.96 114.854C215.954 114.862 215.952 114.869 215.947 114.877C215.875 114.998 215.81 115.124 215.741 115.248C215.56 115.565 215.38 115.879 215.21 116.198C215.197 116.221 215.187 116.244 215.174 116.268C215.081 116.445 214.994 116.626 214.904 116.803C214.772 117.061 214.639 117.316 214.512 117.573C214.494 117.612 214.479 117.648 214.461 117.686C214.358 117.903 214.26 118.124 214.162 118.341C214.059 118.565 213.954 118.786 213.856 119.013C213.827 119.08 213.799 119.146 213.771 119.211C213.745 119.273 213.719 119.334 213.694 119.396C213.531 119.785 213.372 120.174 213.22 120.568C213.197 120.625 213.179 120.684 213.155 120.74C213.13 120.81 213.104 120.882 213.076 120.952C212.908 121.4 212.746 121.85 212.594 122.309C212.589 122.327 212.584 122.342 212.579 122.36C212.568 122.391 212.561 122.419 212.55 122.45C212.383 122.957 212.226 123.467 212.076 123.985C212.035 124.126 211.997 124.268 211.955 124.407C211.883 124.665 211.822 124.922 211.755 125.18C211.708 125.355 211.659 125.53 211.616 125.707C211.507 126.148 211.404 126.588 211.309 127.026C211.294 127.095 211.276 127.165 211.26 127.234C211.258 127.242 211.258 127.247 211.255 127.252C211.152 127.731 211.062 128.208 210.974 128.687C210.959 128.767 210.944 128.846 210.931 128.929C210.848 129.397 210.774 129.866 210.707 130.335C210.694 130.422 210.681 130.51 210.671 130.6C210.653 130.731 210.632 130.863 210.616 130.994C210.591 131.2 210.57 131.406 210.547 131.612C210.521 131.831 210.495 132.047 210.472 132.266C210.441 132.58 210.416 132.894 210.39 133.208C210.374 133.414 210.354 133.618 210.341 133.824C210.318 134.171 210.302 134.519 210.287 134.869C210.279 135.042 210.269 135.212 210.264 135.384C210.248 135.904 210.238 136.425 210.241 136.945L219.613 142.391C219.611 141.871 219.621 141.35 219.637 140.83C219.642 140.658 219.652 140.488 219.66 140.315C219.675 139.968 219.691 139.617 219.714 139.27C219.727 139.064 219.747 138.86 219.763 138.654C219.789 138.34 219.814 138.026 219.845 137.712C219.868 137.493 219.894 137.274 219.92 137.058C219.958 136.721 219.997 136.383 220.046 136.046C220.059 135.958 220.072 135.868 220.082 135.781C220.149 135.312 220.224 134.846 220.306 134.377C220.322 134.298 220.334 134.215 220.35 134.135C220.437 133.651 220.53 133.167 220.636 132.683C220.651 132.614 220.669 132.547 220.682 132.477C220.777 132.037 220.88 131.596 220.988 131.156C221.032 130.981 221.081 130.806 221.125 130.631C221.228 130.232 221.334 129.833 221.447 129.433C221.596 128.918 221.753 128.406 221.921 127.901C221.931 127.87 221.939 127.84 221.949 127.811C222.106 127.337 222.273 126.869 222.446 126.403C222.472 126.333 222.497 126.261 222.523 126.192C222.696 125.738 222.873 125.29 223.061 124.847C223.087 124.786 223.113 124.724 223.139 124.662C223.265 124.369 223.399 124.08 223.53 123.789C223.63 123.57 223.726 123.351 223.829 123.135C223.97 122.836 224.122 122.543 224.272 122.249C224.362 122.072 224.449 121.891 224.542 121.714C224.725 121.371 224.915 121.031 225.106 120.694C225.175 120.57 225.242 120.447 225.312 120.323C225.541 119.929 225.78 119.543 226.023 119.159C226.066 119.09 226.107 119.015 226.154 118.946C226.447 118.487 226.749 118.034 227.063 117.586C227.215 117.37 227.367 117.156 227.521 116.947C227.526 116.94 227.534 116.929 227.539 116.922C227.694 116.711 227.853 116.502 228.01 116.299C228.167 116.098 228.325 115.899 228.487 115.704C228.502 115.686 228.515 115.668 228.531 115.65C228.706 115.436 228.883 115.227 229.064 115.019C229.084 114.993 229.107 114.97 229.131 114.944C229.329 114.718 229.53 114.496 229.733 114.277C229.797 114.208 229.862 114.141 229.926 114.071C230.112 113.876 230.3 113.682 230.49 113.492C230.536 113.445 230.583 113.397 230.629 113.353C230.822 113.162 231.021 112.974 231.219 112.789C231.227 112.781 231.234 112.776 231.239 112.768C231.445 112.578 231.657 112.39 231.868 112.204C231.935 112.145 232.004 112.088 232.074 112.029C232.218 111.906 232.365 111.782 232.511 111.661C232.594 111.592 232.679 111.525 232.764 111.458C232.9 111.349 233.034 111.241 233.173 111.136C233.263 111.066 233.353 110.999 233.444 110.93C233.58 110.827 233.717 110.726 233.853 110.626C233.946 110.559 234.036 110.495 234.129 110.428C234.27 110.327 234.414 110.229 234.559 110.132C234.649 110.07 234.736 110.01 234.826 109.951C234.983 109.846 235.143 109.745 235.305 109.645C235.383 109.596 235.46 109.547 235.537 109.498C235.777 109.351 236.016 109.205 236.261 109.065C236.464 108.947 236.667 108.836 236.866 108.728C236.922 108.697 236.979 108.669 237.033 108.638C237.195 108.545 237.352 108.463 237.509 108.383Z" fill="#A69CFC"/>
<path d="M175.988 266.51C175.983 266.62 175.975 266.73 175.965 266.84C175.955 266.935 175.942 267.033 175.929 267.127C175.913 267.238 175.898 267.345 175.877 267.455C175.859 267.553 175.839 267.648 175.816 267.745C175.793 267.853 175.767 267.958 175.739 268.063C175.713 268.16 175.685 268.255 175.654 268.352C175.621 268.457 175.587 268.562 175.549 268.67C175.515 268.765 175.479 268.86 175.441 268.952C175.397 269.062 175.351 269.172 175.302 269.282C175.261 269.375 175.217 269.467 175.173 269.559C175.119 269.669 175.063 269.777 175.004 269.887C174.94 270.002 174.878 270.12 174.809 270.236C174.793 270.264 174.778 270.289 174.76 270.318C174.657 270.484 174.549 270.651 174.436 270.815C174.415 270.845 174.392 270.876 174.369 270.907C174.254 271.071 174.13 271.235 174.002 271.396C173.979 271.427 173.95 271.458 173.927 271.489C173.814 271.63 173.693 271.768 173.57 271.906C173.537 271.945 173.503 271.983 173.467 272.022C173.321 272.18 173.169 272.339 173.01 272.498C172.982 272.526 172.951 272.555 172.923 272.58C172.802 272.698 172.673 272.813 172.545 272.929C172.442 273.021 172.337 273.113 172.229 273.203C172.129 273.287 172.028 273.372 171.926 273.454C171.813 273.544 171.7 273.633 171.581 273.723C171.473 273.805 171.365 273.887 171.255 273.966C171.134 274.054 171.008 274.141 170.882 274.228C170.767 274.307 170.651 274.387 170.533 274.464C170.402 274.548 170.268 274.633 170.135 274.715C169.968 274.817 169.801 274.922 169.629 275.025L103.909 313.112C103.58 313.301 103.244 313.483 102.899 313.657C102.802 313.709 102.702 313.757 102.601 313.806C102.334 313.937 102.062 314.065 101.787 314.188C101.694 314.229 101.602 314.272 101.509 314.313C101.15 314.47 100.787 314.618 100.415 314.759C100.351 314.785 100.281 314.805 100.217 314.831C99.9035 314.946 99.5874 315.059 99.2663 315.164C99.1352 315.208 99.0016 315.251 98.868 315.292C98.6907 315.349 98.5134 315.402 98.3335 315.454C98.1819 315.497 98.0329 315.541 97.8787 315.584C97.6963 315.636 97.5139 315.682 97.3314 315.73C97.1798 315.769 97.0257 315.81 96.8715 315.846C96.6865 315.892 96.4989 315.933 96.3114 315.974C96.1572 316.007 96.003 316.043 95.8489 316.074C95.6587 316.112 95.466 316.151 95.2733 316.187C95.1268 316.215 94.9804 316.243 94.8314 316.269C94.4202 316.34 94.0066 316.407 93.5903 316.466C93.5338 316.473 93.4747 316.481 93.4181 316.489C93.0533 316.538 92.6884 316.581 92.321 316.62C92.1822 316.635 92.0409 316.648 91.9022 316.661C91.6683 316.681 91.4319 316.702 91.1981 316.719C91.0491 316.73 90.9001 316.74 90.751 316.75C90.5069 316.766 90.2603 316.776 90.0136 316.786C89.8749 316.791 89.7361 316.799 89.5948 316.804C89.3815 316.812 89.1683 316.814 88.9576 316.817C88.806 316.819 88.6569 316.822 88.5053 316.822C88.2792 316.822 88.0505 316.819 87.8244 316.814C87.6882 316.812 87.5521 316.812 87.4159 316.809C87.2077 316.804 86.9996 316.794 86.7915 316.784C86.645 316.778 86.496 316.773 86.3495 316.766C86.1234 316.753 85.8973 316.735 85.6712 316.719C85.5427 316.709 85.4143 316.704 85.2858 316.694C85.0186 316.671 84.7513 316.645 84.4867 316.617C84.4019 316.609 84.3145 316.602 84.2297 316.591C83.8777 316.553 83.5283 316.507 83.1814 316.458C83.13 316.45 83.0812 316.443 83.0324 316.435C82.7266 316.391 82.4234 316.343 82.1228 316.292C81.9994 316.271 81.8787 316.245 81.7553 316.222C81.5266 316.181 81.3005 316.14 81.0744 316.094C80.9562 316.071 80.8406 316.043 80.725 316.017C80.4783 315.964 80.2316 315.91 79.985 315.851C79.8488 315.818 79.7152 315.784 79.579 315.748C79.3555 315.692 79.1345 315.633 78.9135 315.572C78.7876 315.536 78.6643 315.5 78.5384 315.464C78.1889 315.361 77.842 315.256 77.5003 315.144C77.4386 315.123 77.377 315.105 77.3179 315.085C76.9247 314.951 76.5393 314.811 76.1565 314.662C76.0023 314.603 75.8481 314.539 75.6965 314.477C75.5758 314.429 75.4524 314.377 75.3317 314.326C75.1595 314.252 74.9925 314.175 74.8229 314.098C74.7124 314.047 74.5994 313.998 74.4889 313.947C74.3039 313.86 74.124 313.768 73.9442 313.678C73.8542 313.632 73.7617 313.588 73.6718 313.542C73.4046 313.401 73.1399 313.258 72.8804 313.109L6.73204 275.022C2.40763 272.531 0.246703 269.262 0.254411 266L3.64896e-05 355.175C-0.0102414 358.44 2.15068 361.707 6.47766 364.198L72.626 402.285C72.8855 402.433 73.1476 402.577 73.4174 402.718C73.5073 402.764 73.5998 402.807 73.6898 402.853C73.8696 402.946 74.0495 403.035 74.2345 403.122C74.345 403.174 74.458 403.225 74.5685 403.274C74.7381 403.351 74.9051 403.427 75.0773 403.502C75.1981 403.553 75.3188 403.602 75.4396 403.653C75.5578 403.702 75.6708 403.75 75.789 403.799C75.825 403.814 75.8635 403.825 75.9021 403.84C76.2824 403.989 76.6704 404.129 77.0609 404.263C77.1226 404.283 77.1842 404.301 77.2433 404.322C77.5851 404.434 77.932 404.542 78.2814 404.642C78.3405 404.66 78.3945 404.678 78.4536 404.696C78.5204 404.714 78.5872 404.732 78.654 404.75C78.875 404.811 79.0959 404.87 79.3195 404.926C79.4557 404.96 79.5893 404.996 79.7255 405.029C79.9696 405.088 80.2162 405.142 80.4655 405.195C80.558 405.216 80.6479 405.239 80.7404 405.257C80.7661 405.262 80.7892 405.267 80.8149 405.272C81.041 405.318 81.2671 405.359 81.4958 405.4C81.6191 405.423 81.7399 405.447 81.8633 405.47C82.1613 405.521 82.4619 405.567 82.7626 405.611C82.814 405.618 82.8653 405.628 82.9167 405.634C82.9193 405.634 82.9219 405.634 82.9244 405.634C83.2713 405.682 83.6208 405.726 83.9728 405.767C84.0601 405.777 84.1475 405.782 84.2349 405.792C84.4995 405.821 84.7642 405.846 85.0288 405.869C85.0365 405.869 85.0443 405.872 85.0494 405.872C85.1727 405.882 85.2961 405.887 85.4194 405.897C85.6429 405.913 85.8665 405.931 86.0926 405.944C86.2391 405.951 86.3855 405.956 86.532 405.962C86.7401 405.969 86.9508 405.979 87.1589 405.987C87.1769 405.987 87.1949 405.99 87.2103 405.99C87.3285 405.992 87.4441 405.992 87.5623 405.992C87.791 405.995 88.0197 406 88.2484 406C88.3974 406 88.5464 405.995 88.6955 405.995C88.9087 405.992 89.122 405.99 89.3353 405.982C89.3738 405.982 89.4149 405.982 89.456 405.98C89.5562 405.977 89.6539 405.969 89.7541 405.964C90.0008 405.954 90.2474 405.941 90.4915 405.928C90.6405 405.918 90.787 405.908 90.936 405.897C91.1724 405.88 91.4062 405.862 91.6426 405.839C91.7249 405.831 91.8071 405.826 91.8919 405.818C91.9484 405.813 92.0049 405.803 92.064 405.798C92.4315 405.759 92.7963 405.716 93.1612 405.667C93.2177 405.659 93.2768 405.654 93.3334 405.644C93.7496 405.585 94.1633 405.518 94.5744 405.447C94.6129 405.439 94.6515 405.434 94.69 405.429C94.798 405.408 94.9059 405.385 95.0138 405.365C95.2065 405.329 95.3966 405.29 95.5893 405.252C95.7435 405.218 95.8977 405.185 96.0518 405.152C96.2394 405.111 96.427 405.067 96.612 405.024C96.7662 404.985 96.9178 404.947 97.0719 404.908C97.2544 404.862 97.4368 404.814 97.6192 404.762C97.7708 404.721 97.9224 404.678 98.074 404.632C98.2539 404.578 98.4312 404.524 98.6085 404.47C98.6856 404.447 98.7652 404.424 98.8423 404.399C98.8988 404.381 98.9502 404.36 99.0067 404.342C99.3279 404.237 99.6465 404.124 99.96 404.009C100.024 403.986 100.091 403.963 100.158 403.937C100.528 403.796 100.893 403.648 101.252 403.491C101.345 403.45 101.437 403.409 101.53 403.366C101.805 403.243 102.077 403.115 102.344 402.984C102.445 402.935 102.545 402.887 102.643 402.835C102.987 402.661 103.323 402.479 103.652 402.29L169.372 364.203C169.462 364.151 169.551 364.098 169.639 364.044C169.721 363.995 169.798 363.941 169.88 363.893C170.014 363.808 170.148 363.726 170.279 363.642C170.397 363.565 170.512 363.485 170.628 363.406C170.754 363.319 170.877 363.234 170.998 363.147C171.109 363.068 171.216 362.986 171.324 362.904C171.44 362.814 171.556 362.727 171.669 362.637C171.771 362.555 171.872 362.471 171.972 362.386C172.08 362.294 172.185 362.204 172.288 362.112C172.329 362.073 172.375 362.037 172.419 361.999C172.504 361.922 172.583 361.843 172.666 361.763C172.694 361.735 172.725 361.707 172.753 361.679C172.912 361.522 173.064 361.364 173.21 361.205C173.244 361.166 173.277 361.128 173.313 361.092C173.436 360.954 173.557 360.815 173.67 360.674C173.696 360.644 173.722 360.615 173.745 360.585C173.755 360.572 173.768 360.556 173.778 360.544C173.894 360.395 174.004 360.246 174.112 360.095C174.135 360.064 174.156 360.034 174.179 360.003C174.292 359.839 174.403 359.672 174.503 359.506C174.518 359.48 174.534 359.452 174.552 359.424C174.59 359.36 174.629 359.298 174.665 359.234C174.696 359.18 174.719 359.127 174.747 359.075C174.806 358.965 174.863 358.858 174.916 358.747C174.963 358.655 175.004 358.563 175.045 358.471C175.094 358.36 175.14 358.25 175.184 358.14C175.204 358.091 175.227 358.04 175.245 357.992C175.263 357.948 175.274 357.902 175.289 357.858C175.328 357.753 175.361 357.648 175.394 357.541C175.425 357.443 175.454 357.348 175.479 357.251C175.507 357.143 175.533 357.038 175.556 356.931C175.569 356.874 175.587 356.815 175.597 356.759C175.605 356.721 175.608 356.682 175.615 356.644C175.636 356.534 175.651 356.426 175.667 356.316C175.68 356.221 175.692 356.124 175.703 356.029C175.713 355.919 175.721 355.808 175.726 355.698C175.728 355.634 175.739 355.57 175.739 355.506C175.741 355.442 175.741 355.378 175.741 355.314L175.996 266.136C176.006 266.251 175.996 266.379 175.988 266.51Z" fill="url(#paint4_linear_140_3520)"/>
<path d="M169.515 256.995C178.122 261.966 178.168 270.03 169.615 275.004L103.801 313.271C95.2474 318.243 81.3368 318.243 72.7295 313.271L6.4855 275.004C-2.12179 270.032 -2.16811 261.971 6.38514 256.997L72.1994 218.73C80.7526 213.758 94.6632 213.756 103.271 218.73L169.515 256.995Z" fill="url(#paint5_linear_140_3520)"/>
<path d="M85.4309 274L76.3152 268.623L76.1849 222.328L85.3007 227.702L85.4309 274Z" fill="#A69CFC"/>
<path d="M94.8296 207.377L94.9999 268.392L85.4308 274L85.3006 227.702L75.1506 237.334L75.1156 224.754L94.8296 207.377Z" fill="#F7F8F9"/>
<path d="M75.1507 237.334L66.0349 231.96L65.9999 219.378L75.1156 224.754L75.1507 237.334Z" fill="#A69CFC"/>
<path d="M75.1157 224.754L66 219.377L85.714 202L94.8297 207.377L75.1157 224.754Z" fill="#A69CFC"/>
<defs>
<linearGradient id="paint0_linear_140_3520" x1="380.999" y1="262.598" x2="380.999" y2="69.612" gradientUnits="userSpaceOnUse">
<stop offset="8e-08" stop-color="white"/>
<stop offset="1" stop-color="#3024FA"/>
</linearGradient>
<linearGradient id="paint1_linear_140_3520" x1="381" y1="115" x2="381" y2="13.0009" gradientUnits="userSpaceOnUse">
<stop stop-color="#A69CFC"/>
<stop offset="0.9995" stop-color="#3024FA"/>
</linearGradient>
<linearGradient id="paint2_linear_140_3520" x1="234.004" y1="318.863" x2="234.004" y2="171.429" gradientUnits="userSpaceOnUse">
<stop offset="8e-08" stop-color="white"/>
<stop offset="1" stop-color="#3024FA"/>
</linearGradient>
<linearGradient id="paint3_linear_140_3520" x1="234.001" y1="216" x2="234.001" y2="114.001" gradientUnits="userSpaceOnUse">
<stop stop-color="#A69CFC"/>
<stop offset="0.9995" stop-color="#3024FA"/>
</linearGradient>
<linearGradient id="paint4_linear_140_3520" x1="88.0057" y1="377.986" x2="88.0057" y2="275.339" gradientUnits="userSpaceOnUse">
<stop offset="8e-08" stop-color="white"/>
<stop offset="1" stop-color="#3024FA"/>
</linearGradient>
<linearGradient id="paint5_linear_140_3520" x1="88.001" y1="317" x2="88.001" y2="215" gradientUnits="userSpaceOnUse">
<stop stop-color="#A69CFC"/>
<stop offset="0.9995" stop-color="#3024FA"/>
</linearGradient>
</defs>
</svg>
