<svg width="270" height="566" viewBox="0 0 270 566" fill="none" xmlns="http://www.w3.org/2000/svg">
<rect width="270" height="566" rx="20" fill="#DBDBFF"/>
<path d="M144.199 30V38.3066H141.026C139.575 38.2743 138.162 38.7735 137.054 39.7103C135.945 40.6472 135.217 41.957 135.007 43.3933C134.926 44.1876 135.012 44.9902 135.259 45.7494C135.507 46.5085 135.911 47.2074 136.445 47.8009C136.979 48.3944 137.631 48.8695 138.36 49.1954C139.089 49.5213 139.878 49.6909 140.676 49.6933H144.175V53.6133C144.175 54.195 144.406 54.7529 144.818 55.1642C145.229 55.5755 145.787 55.8066 146.368 55.8066H150.287V58.9799C150.256 60.4346 150.758 61.8505 151.7 62.9598C152.641 64.069 153.956 64.7948 155.396 64.9999C156.191 65.0814 156.993 64.9956 157.752 64.748C158.511 64.5003 159.21 64.0964 159.803 63.5623C160.397 63.0281 160.871 62.3755 161.197 61.6465C161.523 60.9176 161.693 60.1284 161.695 59.3299V55.8299H170V30H144.199Z" fill="#3024FA"/>
<path d="M146.788 69.6666V78.1832C146.818 79.643 146.341 81.068 145.44 82.2163C144.538 83.3647 143.267 84.1656 141.842 84.4832C140.944 84.6623 140.017 84.6403 139.128 84.4186C138.239 84.197 137.411 83.7813 136.701 83.2013C135.992 82.6214 135.42 81.8916 135.026 81.0643C134.633 80.237 134.427 79.3328 134.424 78.4165V69.6666H130.341V65.5832H121.85C120.387 65.6138 118.959 65.1382 117.807 64.2368C116.655 63.3354 115.85 62.0636 115.528 60.6366C115.368 59.7464 115.405 58.8321 115.635 57.9576C115.866 57.0831 116.284 56.2696 116.862 55.5739C117.44 54.8782 118.163 54.3172 118.98 53.9302C119.797 53.5432 120.689 53.3394 121.593 53.3333H130.341V44C126.406 43.6688 122.445 44.1742 118.719 45.4829C114.993 46.7917 111.586 48.8742 108.721 51.5936C105.857 54.313 103.601 57.6078 102.1 61.2615C100.599 64.9152 99.8884 68.8452 100.014 72.7932C100.307 79.9151 103.267 86.6664 108.306 91.7066C113.345 96.7468 120.095 99.7071 127.215 99.9998H128.009C131.89 100.013 135.731 99.2195 139.289 97.6688C142.847 96.118 146.044 93.8443 148.676 90.9919C151.309 88.1394 153.319 84.7707 154.581 81.0995C155.842 77.4283 156.326 73.5349 156.003 69.6666H146.788ZM124.393 92.0432H122.06C118.39 91.91 114.907 90.3922 112.31 87.7951C109.713 85.1979 108.196 81.7138 108.063 78.0432V75.7099L112.728 75.5932V77.9265C112.842 80.3653 113.861 82.6738 115.587 84.4001C117.313 86.1264 119.621 87.1462 122.06 87.2599H124.393V92.0432Z" fill="#3024FA"/>
<path d="M22.28 152V138H23.76V150.72H31.6V152H22.28ZM40.3373 152V149.68L40.2773 149.3V145.42C40.2773 144.527 40.024 143.84 39.5173 143.36C39.024 142.88 38.284 142.64 37.2973 142.64C36.6173 142.64 35.9707 142.753 35.3573 142.98C34.744 143.207 34.224 143.507 33.7973 143.88L33.1573 142.82C33.6907 142.367 34.3307 142.02 35.0773 141.78C35.824 141.527 36.6107 141.4 37.4373 141.4C38.7973 141.4 39.844 141.74 40.5773 142.42C41.324 143.087 41.6973 144.107 41.6973 145.48V152H40.3373ZM36.7173 152.1C35.9307 152.1 35.244 151.973 34.6573 151.72C34.084 151.453 33.644 151.093 33.3373 150.64C33.0307 150.173 32.8773 149.64 32.8773 149.04C32.8773 148.493 33.004 148 33.2573 147.56C33.524 147.107 33.9507 146.747 34.5373 146.48C35.1373 146.2 35.9373 146.06 36.9373 146.06H40.5573V147.12H36.9773C35.964 147.12 35.2573 147.3 34.8573 147.66C34.4707 148.02 34.2773 148.467 34.2773 149C34.2773 149.6 34.5107 150.08 34.9773 150.44C35.444 150.8 36.0973 150.98 36.9373 150.98C37.7373 150.98 38.424 150.8 38.9973 150.44C39.584 150.067 40.0107 149.533 40.2773 148.84L40.5973 149.82C40.3307 150.513 39.864 151.067 39.1973 151.48C38.544 151.893 37.7173 152.1 36.7173 152.1ZM56.2086 152.1C55.3019 152.1 54.4819 151.893 53.7486 151.48C53.0153 151.053 52.4286 150.447 51.9886 149.66C51.5619 148.86 51.3486 147.887 51.3486 146.74C51.3486 145.593 51.5619 144.627 51.9886 143.84C52.4153 143.04 52.9953 142.433 53.7286 142.02C54.4619 141.607 55.2886 141.4 56.2086 141.4C57.2086 141.4 58.1019 141.627 58.8886 142.08C59.6886 142.52 60.3153 143.147 60.7686 143.96C61.2219 144.76 61.4486 145.687 61.4486 146.74C61.4486 147.807 61.2219 148.74 60.7686 149.54C60.3153 150.34 59.6886 150.967 58.8886 151.42C58.1019 151.873 57.2086 152.1 56.2086 152.1ZM50.7886 155.88V141.5H52.1486V144.66L52.0086 146.76L52.2086 148.88V155.88H50.7886ZM56.1086 150.84C56.8553 150.84 57.5219 150.673 58.1086 150.34C58.6953 149.993 59.1619 149.513 59.5086 148.9C59.8553 148.273 60.0286 147.553 60.0286 146.74C60.0286 145.927 59.8553 145.213 59.5086 144.6C59.1619 143.987 58.6953 143.507 58.1086 143.16C57.5219 142.813 56.8553 142.64 56.1086 142.64C55.3619 142.64 54.6886 142.813 54.0886 143.16C53.5019 143.507 53.0353 143.987 52.6886 144.6C52.3553 145.213 52.1886 145.927 52.1886 146.74C52.1886 147.553 52.3553 148.273 52.6886 148.9C53.0353 149.513 53.5019 149.993 54.0886 150.34C54.6886 150.673 55.3619 150.84 56.1086 150.84ZM68.6233 152.1C67.6099 152.1 66.6966 151.873 65.8833 151.42C65.0833 150.953 64.4499 150.32 63.9833 149.52C63.5166 148.707 63.2833 147.78 63.2833 146.74C63.2833 145.687 63.5166 144.76 63.9833 143.96C64.4499 143.16 65.0833 142.533 65.8833 142.08C66.6833 141.627 67.5966 141.4 68.6233 141.4C69.6633 141.4 70.5833 141.627 71.3833 142.08C72.1966 142.533 72.8299 143.16 73.2833 143.96C73.7499 144.76 73.9833 145.687 73.9833 146.74C73.9833 147.78 73.7499 148.707 73.2833 149.52C72.8299 150.32 72.1966 150.953 71.3833 151.42C70.5699 151.873 69.6499 152.1 68.6233 152.1ZM68.6233 150.84C69.3833 150.84 70.0566 150.673 70.6433 150.34C71.2299 149.993 71.6899 149.513 72.0233 148.9C72.3699 148.273 72.5433 147.553 72.5433 146.74C72.5433 145.913 72.3699 145.193 72.0233 144.58C71.6899 143.967 71.2299 143.493 70.6433 143.16C70.0566 142.813 69.3899 142.64 68.6433 142.64C67.8966 142.64 67.2299 142.813 66.6433 143.16C66.0566 143.493 65.5899 143.967 65.2433 144.58C64.8966 145.193 64.7233 145.913 64.7233 146.74C64.7233 147.553 64.8966 148.273 65.2433 148.9C65.5899 149.513 66.0566 149.993 66.6433 150.34C67.2299 150.673 67.8899 150.84 68.6233 150.84ZM82.3023 152.1C81.3823 152.1 80.5557 151.893 79.8223 151.48C79.089 151.053 78.509 150.44 78.0823 149.64C77.6557 148.84 77.4423 147.873 77.4423 146.74C77.4423 145.593 77.6557 144.627 78.0823 143.84C78.5223 143.04 79.109 142.433 79.8423 142.02C80.5757 141.607 81.3957 141.4 82.3023 141.4C83.3023 141.4 84.1957 141.627 84.9823 142.08C85.7823 142.52 86.409 143.14 86.8623 143.94C87.3157 144.74 87.5423 145.673 87.5423 146.74C87.5423 147.793 87.3157 148.727 86.8623 149.54C86.409 150.34 85.7823 150.967 84.9823 151.42C84.1957 151.873 83.3023 152.1 82.3023 152.1ZM76.8823 152V137.16H78.3023V144.6L78.1023 146.72L78.2423 148.84V152H76.8823ZM82.2023 150.84C82.949 150.84 83.6157 150.673 84.2023 150.34C84.789 149.993 85.2557 149.513 85.6023 148.9C85.949 148.273 86.1223 147.553 86.1223 146.74C86.1223 145.913 85.949 145.193 85.6023 144.58C85.2557 143.967 84.789 143.493 84.2023 143.16C83.6157 142.813 82.949 142.64 82.2023 142.64C81.4557 142.64 80.7823 142.813 80.1823 143.16C79.5957 143.493 79.129 143.967 78.7823 144.58C78.449 145.193 78.2823 145.913 78.2823 146.74C78.2823 147.553 78.449 148.273 78.7823 148.9C79.129 149.513 79.5957 149.993 80.1823 150.34C80.7823 150.673 81.4557 150.84 82.2023 150.84ZM90.437 152V141.5H91.797V144.36L91.657 143.86C91.9504 143.06 92.4437 142.453 93.137 142.04C93.8304 141.613 94.6904 141.4 95.717 141.4V142.78C95.6637 142.78 95.6104 142.78 95.557 142.78C95.5037 142.767 95.4504 142.76 95.397 142.76C94.2904 142.76 93.4237 143.1 92.797 143.78C92.1704 144.447 91.857 145.4 91.857 146.64V152H90.437ZM102.67 152.1C101.577 152.1 100.617 151.873 99.7905 151.42C98.9638 150.953 98.3171 150.32 97.8505 149.52C97.3838 148.707 97.1505 147.78 97.1505 146.74C97.1505 145.7 97.3705 144.78 97.8105 143.98C98.2638 143.18 98.8771 142.553 99.6505 142.1C100.437 141.633 101.317 141.4 102.29 141.4C103.277 141.4 104.15 141.627 104.91 142.08C105.684 142.52 106.29 143.147 106.73 143.96C107.17 144.76 107.39 145.687 107.39 146.74C107.39 146.807 107.384 146.88 107.37 146.96C107.37 147.027 107.37 147.1 107.37 147.18H98.2305V146.12H106.61L106.05 146.54C106.05 145.78 105.884 145.107 105.55 144.52C105.23 143.92 104.79 143.453 104.23 143.12C103.67 142.787 103.024 142.62 102.29 142.62C101.57 142.62 100.924 142.787 100.35 143.12C99.7771 143.453 99.3305 143.92 99.0105 144.52C98.6905 145.12 98.5305 145.807 98.5305 146.58V146.8C98.5305 147.6 98.7038 148.307 99.0505 148.92C99.4105 149.52 99.9038 149.993 100.53 150.34C101.17 150.673 101.897 150.84 102.71 150.84C103.35 150.84 103.944 150.727 104.49 150.5C105.05 150.273 105.53 149.927 105.93 149.46L106.73 150.38C106.264 150.94 105.677 151.367 104.97 151.66C104.277 151.953 103.51 152.1 102.67 152.1ZM109.043 152V151.06L116.043 142.2L116.343 142.68H109.163V141.5H117.463V142.42L110.483 151.3L110.123 150.82H117.603V152H109.043ZM126.978 152V149.68L126.918 149.3V145.42C126.918 144.527 126.665 143.84 126.158 143.36C125.665 142.88 124.925 142.64 123.938 142.64C123.258 142.64 122.611 142.753 121.998 142.98C121.385 143.207 120.865 143.507 120.438 143.88L119.798 142.82C120.331 142.367 120.971 142.02 121.718 141.78C122.465 141.527 123.251 141.4 124.078 141.4C125.438 141.4 126.485 141.74 127.218 142.42C127.965 143.087 128.338 144.107 128.338 145.48V152H126.978ZM123.358 152.1C122.571 152.1 121.885 151.973 121.298 151.72C120.725 151.453 120.285 151.093 119.978 150.64C119.671 150.173 119.518 149.64 119.518 149.04C119.518 148.493 119.645 148 119.898 147.56C120.165 147.107 120.591 146.747 121.178 146.48C121.778 146.2 122.578 146.06 123.578 146.06H127.198V147.12H123.618C122.605 147.12 121.898 147.3 121.498 147.66C121.111 148.02 120.918 148.467 120.918 149C120.918 149.6 121.151 150.08 121.618 150.44C122.085 150.8 122.738 150.98 123.578 150.98C124.378 150.98 125.065 150.8 125.638 150.44C126.225 150.067 126.651 149.533 126.918 148.84L127.238 149.82C126.971 150.513 126.505 151.067 125.838 151.48C125.185 151.893 124.358 152.1 123.358 152.1ZM141.889 152.1C140.796 152.1 139.836 151.873 139.009 151.42C138.183 150.953 137.536 150.32 137.069 149.52C136.603 148.707 136.369 147.78 136.369 146.74C136.369 145.7 136.589 144.78 137.029 143.98C137.483 143.18 138.096 142.553 138.869 142.1C139.656 141.633 140.536 141.4 141.509 141.4C142.496 141.4 143.369 141.627 144.129 142.08C144.903 142.52 145.509 143.147 145.949 143.96C146.389 144.76 146.609 145.687 146.609 146.74C146.609 146.807 146.603 146.88 146.589 146.96C146.589 147.027 146.589 147.1 146.589 147.18H137.449V146.12H145.829L145.269 146.54C145.269 145.78 145.103 145.107 144.769 144.52C144.449 143.92 144.009 143.453 143.449 143.12C142.889 142.787 142.243 142.62 141.509 142.62C140.789 142.62 140.143 142.787 139.569 143.12C138.996 143.453 138.549 143.92 138.229 144.52C137.909 145.12 137.749 145.807 137.749 146.58V146.8C137.749 147.6 137.923 148.307 138.269 148.92C138.629 149.52 139.123 149.993 139.749 150.34C140.389 150.673 141.116 150.84 141.929 150.84C142.569 150.84 143.163 150.727 143.709 150.5C144.269 150.273 144.749 149.927 145.149 149.46L145.949 150.38C145.483 150.94 144.896 151.367 144.189 151.66C143.496 151.953 142.729 152.1 141.889 152.1ZM152.32 152.1C151.453 152.1 150.633 151.98 149.86 151.74C149.086 151.487 148.48 151.173 148.04 150.8L148.68 149.68C149.106 150 149.653 150.28 150.32 150.52C150.986 150.747 151.686 150.86 152.42 150.86C153.42 150.86 154.14 150.707 154.58 150.4C155.02 150.08 155.24 149.66 155.24 149.14C155.24 148.753 155.113 148.453 154.86 148.24C154.62 148.013 154.3 147.847 153.9 147.74C153.5 147.62 153.053 147.52 152.56 147.44C152.066 147.36 151.573 147.267 151.08 147.16C150.6 147.053 150.16 146.9 149.76 146.7C149.36 146.487 149.033 146.2 148.78 145.84C148.54 145.48 148.42 145 148.42 144.4C148.42 143.827 148.58 143.313 148.9 142.86C149.22 142.407 149.686 142.053 150.3 141.8C150.926 141.533 151.686 141.4 152.58 141.4C153.26 141.4 153.94 141.493 154.62 141.68C155.3 141.853 155.86 142.087 156.3 142.38L155.68 143.52C155.213 143.2 154.713 142.973 154.18 142.84C153.646 142.693 153.113 142.62 152.58 142.62C151.633 142.62 150.933 142.787 150.48 143.12C150.04 143.44 149.82 143.853 149.82 144.36C149.82 144.76 149.94 145.073 150.18 145.3C150.433 145.527 150.76 145.707 151.16 145.84C151.573 145.96 152.02 146.06 152.5 146.14C152.993 146.22 153.48 146.32 153.96 146.44C154.453 146.547 154.9 146.7 155.3 146.9C155.713 147.087 156.04 147.36 156.28 147.72C156.533 148.067 156.66 148.527 156.66 149.1C156.66 149.713 156.486 150.247 156.14 150.7C155.806 151.14 155.313 151.487 154.66 151.74C154.02 151.98 153.24 152.1 152.32 152.1ZM168.84 152.1C167.946 152.1 167.166 151.933 166.5 151.6C165.833 151.267 165.313 150.767 164.94 150.1C164.58 149.433 164.4 148.6 164.4 147.6V141.5H165.82V147.44C165.82 148.56 166.093 149.407 166.64 149.98C167.2 150.54 167.98 150.82 168.98 150.82C169.713 150.82 170.346 150.673 170.88 150.38C171.426 150.073 171.84 149.633 172.12 149.06C172.413 148.487 172.56 147.8 172.56 147V141.5H173.98V152H172.62V149.12L172.84 149.64C172.506 150.413 171.986 151.02 171.28 151.46C170.586 151.887 169.773 152.1 168.84 152.1ZM183.297 141.4C184.15 141.4 184.897 141.567 185.537 141.9C186.19 142.22 186.697 142.713 187.057 143.38C187.43 144.047 187.617 144.887 187.617 145.9V152H186.197V146.04C186.197 144.933 185.917 144.1 185.357 143.54C184.81 142.967 184.037 142.68 183.037 142.68C182.29 142.68 181.637 142.833 181.077 143.14C180.53 143.433 180.104 143.867 179.797 144.44C179.504 145 179.357 145.68 179.357 146.48V152H177.937V141.5H179.297V144.38L179.077 143.84C179.41 143.08 179.944 142.487 180.677 142.06C181.41 141.62 182.284 141.4 183.297 141.4ZM27.4 181.1C26.4933 181.1 25.6733 180.893 24.94 180.48C24.2067 180.053 23.62 179.447 23.18 178.66C22.7533 177.86 22.54 176.887 22.54 175.74C22.54 174.593 22.7533 173.627 23.18 172.84C23.6067 172.04 24.1867 171.433 24.92 171.02C25.6533 170.607 26.48 170.4 27.4 170.4C28.4 170.4 29.2933 170.627 30.08 171.08C30.88 171.52 31.5067 172.147 31.96 172.96C32.4133 173.76 32.64 174.687 32.64 175.74C32.64 176.807 32.4133 177.74 31.96 178.54C31.5067 179.34 30.88 179.967 30.08 180.42C29.2933 180.873 28.4 181.1 27.4 181.1ZM21.98 184.88V170.5H23.34V173.66L23.2 175.76L23.4 177.88V184.88H21.98ZM27.3 179.84C28.0467 179.84 28.7133 179.673 29.3 179.34C29.8867 178.993 30.3533 178.513 30.7 177.9C31.0467 177.273 31.22 176.553 31.22 175.74C31.22 174.927 31.0467 174.213 30.7 173.6C30.3533 172.987 29.8867 172.507 29.3 172.16C28.7133 171.813 28.0467 171.64 27.3 171.64C26.5533 171.64 25.88 171.813 25.28 172.16C24.6933 172.507 24.2267 172.987 23.88 173.6C23.5467 174.213 23.38 174.927 23.38 175.74C23.38 176.553 23.5467 177.273 23.88 177.9C24.2267 178.513 24.6933 178.993 25.28 179.34C25.88 179.673 26.5533 179.84 27.3 179.84ZM35.5347 181V170.5H36.8947V173.36L36.7547 172.86C37.048 172.06 37.5414 171.453 38.2347 171.04C38.928 170.613 39.788 170.4 40.8147 170.4V171.78C40.7614 171.78 40.708 171.78 40.6547 171.78C40.6014 171.767 40.548 171.76 40.4947 171.76C39.388 171.76 38.5214 172.1 37.8947 172.78C37.268 173.447 36.9547 174.4 36.9547 175.64V181H35.5347ZM47.5881 181.1C46.5748 181.1 45.6615 180.873 44.8481 180.42C44.0481 179.953 43.4148 179.32 42.9481 178.52C42.4815 177.707 42.2481 176.78 42.2481 175.74C42.2481 174.687 42.4815 173.76 42.9481 172.96C43.4148 172.16 44.0481 171.533 44.8481 171.08C45.6481 170.627 46.5615 170.4 47.5881 170.4C48.6281 170.4 49.5481 170.627 50.3481 171.08C51.1615 171.533 51.7948 172.16 52.2481 172.96C52.7148 173.76 52.9481 174.687 52.9481 175.74C52.9481 176.78 52.7148 177.707 52.2481 178.52C51.7948 179.32 51.1615 179.953 50.3481 180.42C49.5348 180.873 48.6148 181.1 47.5881 181.1ZM47.5881 179.84C48.3481 179.84 49.0215 179.673 49.6081 179.34C50.1948 178.993 50.6548 178.513 50.9881 177.9C51.3348 177.273 51.5081 176.553 51.5081 175.74C51.5081 174.913 51.3348 174.193 50.9881 173.58C50.6548 172.967 50.1948 172.493 49.6081 172.16C49.0215 171.813 48.3548 171.64 47.6081 171.64C46.8615 171.64 46.1948 171.813 45.6081 172.16C45.0215 172.493 44.5548 172.967 44.2081 173.58C43.8615 174.193 43.6881 174.913 43.6881 175.74C43.6881 176.553 43.8615 177.273 44.2081 177.9C44.5548 178.513 45.0215 178.993 45.6081 179.34C46.1948 179.673 46.8548 179.84 47.5881 179.84ZM61.2672 181.1C60.3472 181.1 59.5205 180.893 58.7872 180.48C58.0539 180.053 57.4739 179.44 57.0472 178.64C56.6205 177.84 56.4072 176.873 56.4072 175.74C56.4072 174.593 56.6205 173.627 57.0472 172.84C57.4872 172.04 58.0739 171.433 58.8072 171.02C59.5405 170.607 60.3605 170.4 61.2672 170.4C62.2672 170.4 63.1605 170.627 63.9472 171.08C64.7472 171.52 65.3739 172.14 65.8272 172.94C66.2805 173.74 66.5072 174.673 66.5072 175.74C66.5072 176.793 66.2805 177.727 65.8272 178.54C65.3739 179.34 64.7472 179.967 63.9472 180.42C63.1605 180.873 62.2672 181.1 61.2672 181.1ZM55.8472 181V166.16H57.2672V173.6L57.0672 175.72L57.2072 177.84V181H55.8472ZM61.1672 179.84C61.9139 179.84 62.5805 179.673 63.1672 179.34C63.7539 178.993 64.2205 178.513 64.5672 177.9C64.9139 177.273 65.0872 176.553 65.0872 175.74C65.0872 174.913 64.9139 174.193 64.5672 173.58C64.2205 172.967 63.7539 172.493 63.1672 172.16C62.5805 171.813 61.9139 171.64 61.1672 171.64C60.4205 171.64 59.7472 171.813 59.1472 172.16C58.5605 172.493 58.0939 172.967 57.7472 173.58C57.4139 174.193 57.2472 174.913 57.2472 175.74C57.2472 176.553 57.4139 177.273 57.7472 177.9C58.0939 178.513 58.5605 178.993 59.1472 179.34C59.7472 179.673 60.4205 179.84 61.1672 179.84ZM69.4019 181V166.16H70.8219V181H69.4019ZM79.233 181.1C78.1396 181.1 77.1796 180.873 76.353 180.42C75.5263 179.953 74.8796 179.32 74.413 178.52C73.9463 177.707 73.713 176.78 73.713 175.74C73.713 174.7 73.933 173.78 74.373 172.98C74.8263 172.18 75.4396 171.553 76.213 171.1C76.9996 170.633 77.8796 170.4 78.853 170.4C79.8396 170.4 80.713 170.627 81.473 171.08C82.2463 171.52 82.853 172.147 83.293 172.96C83.733 173.76 83.953 174.687 83.953 175.74C83.953 175.807 83.9463 175.88 83.933 175.96C83.933 176.027 83.933 176.1 83.933 176.18H74.793V175.12H83.173L82.613 175.54C82.613 174.78 82.4463 174.107 82.113 173.52C81.793 172.92 81.353 172.453 80.793 172.12C80.233 171.787 79.5863 171.62 78.853 171.62C78.133 171.62 77.4863 171.787 76.913 172.12C76.3396 172.453 75.893 172.92 75.573 173.52C75.253 174.12 75.093 174.807 75.093 175.58V175.8C75.093 176.6 75.2663 177.307 75.613 177.92C75.973 178.52 76.4663 178.993 77.093 179.34C77.733 179.673 78.4596 179.84 79.273 179.84C79.913 179.84 80.5063 179.727 81.053 179.5C81.613 179.273 82.093 178.927 82.493 178.46L83.293 179.38C82.8263 179.94 82.2396 180.367 81.533 180.66C80.8396 180.953 80.073 181.1 79.233 181.1ZM99.9633 170.4C100.817 170.4 101.557 170.567 102.183 170.9C102.823 171.22 103.317 171.713 103.663 172.38C104.023 173.047 104.203 173.887 104.203 174.9V181H102.783V175.04C102.783 173.933 102.517 173.1 101.983 172.54C101.463 171.967 100.723 171.68 99.7633 171.68C99.0433 171.68 98.4166 171.833 97.8833 172.14C97.3633 172.433 96.9566 172.867 96.6633 173.44C96.3833 174 96.2433 174.68 96.2433 175.48V181H94.8233V175.04C94.8233 173.933 94.5566 173.1 94.0233 172.54C93.4899 171.967 92.7433 171.68 91.7833 171.68C91.0766 171.68 90.4566 171.833 89.9233 172.14C89.3899 172.433 88.9766 172.867 88.6833 173.44C88.4033 174 88.2633 174.68 88.2633 175.48V181H86.8433V170.5H88.2033V173.34L87.9833 172.84C88.3033 172.08 88.8166 171.487 89.5233 171.06C90.2433 170.62 91.0899 170.4 92.0633 170.4C93.0899 170.4 93.9633 170.66 94.6833 171.18C95.4033 171.687 95.8699 172.453 96.0833 173.48L95.5233 173.26C95.8299 172.407 96.3699 171.72 97.1433 171.2C97.9299 170.667 98.8699 170.4 99.9633 170.4ZM114.634 181V178.68L114.574 178.3V174.42C114.574 173.527 114.321 172.84 113.814 172.36C113.321 171.88 112.581 171.64 111.594 171.64C110.914 171.64 110.268 171.753 109.654 171.98C109.041 172.207 108.521 172.507 108.094 172.88L107.454 171.82C107.988 171.367 108.628 171.02 109.374 170.78C110.121 170.527 110.908 170.4 111.734 170.4C113.094 170.4 114.141 170.74 114.874 171.42C115.621 172.087 115.994 173.107 115.994 174.48V181H114.634ZM111.014 181.1C110.228 181.1 109.541 180.973 108.954 180.72C108.381 180.453 107.941 180.093 107.634 179.64C107.328 179.173 107.174 178.64 107.174 178.04C107.174 177.493 107.301 177 107.554 176.56C107.821 176.107 108.248 175.747 108.834 175.48C109.434 175.2 110.234 175.06 111.234 175.06H114.854V176.12H111.274C110.261 176.12 109.554 176.3 109.154 176.66C108.768 177.02 108.574 177.467 108.574 178C108.574 178.6 108.808 179.08 109.274 179.44C109.741 179.8 110.394 179.98 111.234 179.98C112.034 179.98 112.721 179.8 113.294 179.44C113.881 179.067 114.308 178.533 114.574 177.84L114.894 178.82C114.628 179.513 114.161 180.067 113.494 180.48C112.841 180.893 112.014 181.1 111.014 181.1ZM138.205 170.4C139.059 170.4 139.799 170.567 140.425 170.9C141.065 171.22 141.559 171.713 141.905 172.38C142.265 173.047 142.445 173.887 142.445 174.9V181H141.025V175.04C141.025 173.933 140.759 173.1 140.225 172.54C139.705 171.967 138.965 171.68 138.005 171.68C137.285 171.68 136.659 171.833 136.125 172.14C135.605 172.433 135.199 172.867 134.905 173.44C134.625 174 134.485 174.68 134.485 175.48V181H133.065V175.04C133.065 173.933 132.799 173.1 132.265 172.54C131.732 171.967 130.985 171.68 130.025 171.68C129.319 171.68 128.699 171.833 128.165 172.14C127.632 172.433 127.219 172.867 126.925 173.44C126.645 174 126.505 174.68 126.505 175.48V181H125.085V170.5H126.445V173.34L126.225 172.84C126.545 172.08 127.059 171.487 127.765 171.06C128.485 170.62 129.332 170.4 130.305 170.4C131.332 170.4 132.205 170.66 132.925 171.18C133.645 171.687 134.112 172.453 134.325 173.48L133.765 173.26C134.072 172.407 134.612 171.72 135.385 171.2C136.172 170.667 137.112 170.4 138.205 170.4ZM150.636 181.1C149.743 181.1 148.963 180.933 148.296 180.6C147.63 180.267 147.11 179.767 146.736 179.1C146.376 178.433 146.196 177.6 146.196 176.6V170.5H147.616V176.44C147.616 177.56 147.89 178.407 148.436 178.98C148.996 179.54 149.776 179.82 150.776 179.82C151.51 179.82 152.143 179.673 152.676 179.38C153.223 179.073 153.636 178.633 153.916 178.06C154.21 177.487 154.356 176.8 154.356 176V170.5H155.776V181H154.416V178.12L154.636 178.64C154.303 179.413 153.783 180.02 153.076 180.46C152.383 180.887 151.57 181.1 150.636 181.1ZM165.094 170.4C165.947 170.4 166.694 170.567 167.334 170.9C167.987 171.22 168.494 171.713 168.854 172.38C169.227 173.047 169.414 173.887 169.414 174.9V181H167.994V175.04C167.994 173.933 167.714 173.1 167.154 172.54C166.607 171.967 165.834 171.68 164.834 171.68C164.087 171.68 163.434 171.833 162.874 172.14C162.327 172.433 161.901 172.867 161.594 173.44C161.301 174 161.154 174.68 161.154 175.48V181H159.734V170.5H161.094V173.38L160.874 172.84C161.207 172.08 161.741 171.487 162.474 171.06C163.207 170.62 164.081 170.4 165.094 170.4ZM177.43 181.1C176.43 181.1 175.53 180.873 174.73 180.42C173.943 179.967 173.323 179.34 172.87 178.54C172.416 177.727 172.19 176.793 172.19 175.74C172.19 174.673 172.416 173.74 172.87 172.94C173.323 172.14 173.943 171.52 174.73 171.08C175.53 170.627 176.43 170.4 177.43 170.4C178.35 170.4 179.17 170.607 179.89 171.02C180.623 171.433 181.203 172.04 181.63 172.84C182.07 173.627 182.29 174.593 182.29 175.74C182.29 176.873 182.076 177.84 181.65 178.64C181.223 179.44 180.643 180.053 179.91 180.48C179.19 180.893 178.363 181.1 177.43 181.1ZM177.53 179.84C178.276 179.84 178.943 179.673 179.53 179.34C180.13 178.993 180.596 178.513 180.93 177.9C181.276 177.273 181.45 176.553 181.45 175.74C181.45 174.913 181.276 174.193 180.93 173.58C180.596 172.967 180.13 172.493 179.53 172.16C178.943 171.813 178.276 171.64 177.53 171.64C176.796 171.64 176.136 171.813 175.55 172.16C174.963 172.493 174.496 172.967 174.15 173.58C173.803 174.193 173.63 174.913 173.63 175.74C173.63 176.553 173.803 177.273 174.15 177.9C174.496 178.513 174.963 178.993 175.55 179.34C176.136 179.673 176.796 179.84 177.53 179.84ZM181.49 181V177.84L181.63 175.72L181.43 173.6V166.16H182.85V181H181.49ZM186.804 181V170.5H188.224V181H186.804ZM187.524 168.18C187.231 168.18 186.984 168.08 186.784 167.88C186.584 167.68 186.484 167.44 186.484 167.16C186.484 166.88 186.584 166.647 186.784 166.46C186.984 166.26 187.231 166.16 187.524 166.16C187.818 166.16 188.064 166.253 188.264 166.44C188.464 166.627 188.564 166.86 188.564 167.14C188.564 167.433 188.464 167.68 188.264 167.88C188.078 168.08 187.831 168.18 187.524 168.18ZM198.755 181V178.68L198.695 178.3V174.42C198.695 173.527 198.442 172.84 197.935 172.36C197.442 171.88 196.702 171.64 195.715 171.64C195.035 171.64 194.389 171.753 193.775 171.98C193.162 172.207 192.642 172.507 192.215 172.88L191.575 171.82C192.109 171.367 192.749 171.02 193.495 170.78C194.242 170.527 195.029 170.4 195.855 170.4C197.215 170.4 198.262 170.74 198.995 171.42C199.742 172.087 200.115 173.107 200.115 174.48V181H198.755ZM195.135 181.1C194.349 181.1 193.662 180.973 193.075 180.72C192.502 180.453 192.062 180.093 191.755 179.64C191.449 179.173 191.295 178.64 191.295 178.04C191.295 177.493 191.422 177 191.675 176.56C191.942 176.107 192.369 175.747 192.955 175.48C193.555 175.2 194.355 175.06 195.355 175.06H198.975V176.12H195.395C194.382 176.12 193.675 176.3 193.275 176.66C192.889 177.02 192.695 177.467 192.695 178C192.695 178.6 192.929 179.08 193.395 179.44C193.862 179.8 194.515 179.98 195.355 179.98C196.155 179.98 196.842 179.8 197.415 179.44C198.002 179.067 198.429 178.533 198.695 177.84L199.015 178.82C198.749 179.513 198.282 180.067 197.615 180.48C196.962 180.893 196.135 181.1 195.135 181.1ZM203.972 181V166.16H205.392V181H203.972ZM26.16 210.1C25.16 210.1 24.26 209.873 23.46 209.42C22.6733 208.967 22.0533 208.34 21.6 207.54C21.1467 206.74 20.92 205.807 20.92 204.74C20.92 203.687 21.1467 202.76 21.6 201.96C22.0533 201.147 22.6733 200.52 23.46 200.08C24.26 199.627 25.16 199.4 26.16 199.4C27.0933 199.4 27.92 199.607 28.64 200.02C29.3733 200.433 29.9533 201.04 30.38 201.84C30.8067 202.627 31.02 203.593 31.02 204.74C31.02 205.887 30.8 206.86 30.36 207.66C29.9333 208.447 29.3533 209.053 28.62 209.48C27.9 209.893 27.08 210.1 26.16 210.1ZM26.26 208.84C27.0067 208.84 27.6733 208.673 28.26 208.34C28.86 207.993 29.3267 207.513 29.66 206.9C30.0067 206.273 30.18 205.553 30.18 204.74C30.18 203.927 30.0067 203.213 29.66 202.6C29.3267 201.987 28.86 201.507 28.26 201.16C27.6733 200.813 27.0067 200.64 26.26 200.64C25.5267 200.64 24.8667 200.813 24.28 201.16C23.6933 201.507 23.2267 201.987 22.88 202.6C22.5333 203.213 22.36 203.927 22.36 204.74C22.36 205.553 22.5333 206.273 22.88 206.9C23.2267 207.513 23.6933 207.993 24.28 208.34C24.8667 208.673 25.5267 208.84 26.26 208.84ZM30.16 213.88V206.88L30.36 204.76L30.22 202.66V199.5H31.58V213.88H30.16ZM39.8747 210.1C38.9814 210.1 38.2014 209.933 37.5347 209.6C36.868 209.267 36.348 208.767 35.9747 208.1C35.6147 207.433 35.4347 206.6 35.4347 205.6V199.5H36.8547V205.44C36.8547 206.56 37.128 207.407 37.6747 207.98C38.2347 208.54 39.0147 208.82 40.0147 208.82C40.748 208.82 41.3814 208.673 41.9147 208.38C42.4614 208.073 42.8747 207.633 43.1547 207.06C43.448 206.487 43.5947 205.8 43.5947 205V199.5H45.0147V210H43.6547V207.12L43.8747 207.64C43.5414 208.413 43.0214 209.02 42.3147 209.46C41.6214 209.887 40.808 210.1 39.8747 210.1ZM53.4322 210.1C52.3389 210.1 51.3789 209.873 50.5522 209.42C49.7255 208.953 49.0789 208.32 48.6122 207.52C48.1455 206.707 47.9122 205.78 47.9122 204.74C47.9122 203.7 48.1322 202.78 48.5722 201.98C49.0255 201.18 49.6389 200.553 50.4122 200.1C51.1989 199.633 52.0789 199.4 53.0522 199.4C54.0389 199.4 54.9122 199.627 55.6722 200.08C56.4455 200.52 57.0522 201.147 57.4922 201.96C57.9322 202.76 58.1522 203.687 58.1522 204.74C58.1522 204.807 58.1455 204.88 58.1322 204.96C58.1322 205.027 58.1322 205.1 58.1322 205.18H48.9922V204.12H57.3722L56.8122 204.54C56.8122 203.78 56.6455 203.107 56.3122 202.52C55.9922 201.92 55.5522 201.453 54.9922 201.12C54.4322 200.787 53.7855 200.62 53.0522 200.62C52.3322 200.62 51.6855 200.787 51.1122 201.12C50.5389 201.453 50.0922 201.92 49.7722 202.52C49.4522 203.12 49.2922 203.807 49.2922 204.58V204.8C49.2922 205.6 49.4655 206.307 49.8122 206.92C50.1722 207.52 50.6655 207.993 51.2922 208.34C51.9322 208.673 52.6589 208.84 53.4722 208.84C54.1122 208.84 54.7055 208.727 55.2522 208.5C55.8122 208.273 56.2922 207.927 56.6922 207.46L57.4922 208.38C57.0255 208.94 56.4389 209.367 55.7322 209.66C55.0389 209.953 54.2722 210.1 53.4322 210.1ZM70.4569 210.1C69.4569 210.1 68.5569 209.873 67.7569 209.42C66.9702 208.967 66.3502 208.34 65.8969 207.54C65.4435 206.74 65.2169 205.807 65.2169 204.74C65.2169 203.687 65.4435 202.76 65.8969 201.96C66.3502 201.147 66.9702 200.52 67.7569 200.08C68.5569 199.627 69.4569 199.4 70.4569 199.4C71.3902 199.4 72.2169 199.607 72.9369 200.02C73.6702 200.433 74.2502 201.04 74.6769 201.84C75.1035 202.627 75.3169 203.593 75.3169 204.74C75.3169 205.887 75.0969 206.86 74.6569 207.66C74.2302 208.447 73.6502 209.053 72.9169 209.48C72.1969 209.893 71.3769 210.1 70.4569 210.1ZM70.5569 208.84C71.3035 208.84 71.9702 208.673 72.5569 208.34C73.1569 207.993 73.6235 207.513 73.9569 206.9C74.3035 206.273 74.4769 205.553 74.4769 204.74C74.4769 203.927 74.3035 203.213 73.9569 202.6C73.6235 201.987 73.1569 201.507 72.5569 201.16C71.9702 200.813 71.3035 200.64 70.5569 200.64C69.8235 200.64 69.1635 200.813 68.5769 201.16C67.9902 201.507 67.5235 201.987 67.1769 202.6C66.8302 203.213 66.6569 203.927 66.6569 204.74C66.6569 205.553 66.8302 206.273 67.1769 206.9C67.5235 207.513 67.9902 207.993 68.5769 208.34C69.1635 208.673 69.8235 208.84 70.5569 208.84ZM74.4569 213.88V206.88L74.6569 204.76L74.5169 202.66V199.5H75.8769V213.88H74.4569ZM84.1716 210.1C83.2782 210.1 82.4982 209.933 81.8316 209.6C81.1649 209.267 80.6449 208.767 80.2716 208.1C79.9116 207.433 79.7316 206.6 79.7316 205.6V199.5H81.1516V205.44C81.1516 206.56 81.4249 207.407 81.9716 207.98C82.5316 208.54 83.3116 208.82 84.3116 208.82C85.0449 208.82 85.6782 208.673 86.2116 208.38C86.7582 208.073 87.1716 207.633 87.4516 207.06C87.7449 206.487 87.8916 205.8 87.8916 205V199.5H89.3116V210H87.9516V207.12L88.1716 207.64C87.8382 208.413 87.3182 209.02 86.6116 209.46C85.9182 209.887 85.1049 210.1 84.1716 210.1ZM97.7291 210.1C96.6357 210.1 95.6757 209.873 94.8491 209.42C94.0224 208.953 93.3757 208.32 92.9091 207.52C92.4424 206.707 92.2091 205.78 92.2091 204.74C92.2091 203.7 92.4291 202.78 92.8691 201.98C93.3224 201.18 93.9357 200.553 94.7091 200.1C95.4957 199.633 96.3757 199.4 97.3491 199.4C98.3357 199.4 99.2091 199.627 99.9691 200.08C100.742 200.52 101.349 201.147 101.789 201.96C102.229 202.76 102.449 203.687 102.449 204.74C102.449 204.807 102.442 204.88 102.429 204.96C102.429 205.027 102.429 205.1 102.429 205.18H93.2891V204.12H101.669L101.109 204.54C101.109 203.78 100.942 203.107 100.609 202.52C100.289 201.92 99.8491 201.453 99.2891 201.12C98.7291 200.787 98.0824 200.62 97.3491 200.62C96.6291 200.62 95.9824 200.787 95.4091 201.12C94.8357 201.453 94.3891 201.92 94.0691 202.52C93.7491 203.12 93.5891 203.807 93.5891 204.58V204.8C93.5891 205.6 93.7624 206.307 94.1091 206.92C94.4691 207.52 94.9624 207.993 95.5891 208.34C96.2291 208.673 96.9557 208.84 97.7691 208.84C98.4091 208.84 99.0024 208.727 99.5491 208.5C100.109 208.273 100.589 207.927 100.989 207.46L101.789 208.38C101.322 208.94 100.736 209.367 100.029 209.66C99.3357 209.953 98.5691 210.1 97.7291 210.1ZM105.339 210V199.5H106.699V202.36L106.559 201.86C106.853 201.06 107.346 200.453 108.039 200.04C108.733 199.613 109.593 199.4 110.619 199.4V200.78C110.566 200.78 110.513 200.78 110.459 200.78C110.406 200.767 110.353 200.76 110.299 200.76C109.193 200.76 108.326 201.1 107.699 201.78C107.073 202.447 106.759 203.4 106.759 204.64V210H105.339ZM117.573 210.1C116.479 210.1 115.519 209.873 114.693 209.42C113.866 208.953 113.219 208.32 112.753 207.52C112.286 206.707 112.053 205.78 112.053 204.74C112.053 203.7 112.273 202.78 112.713 201.98C113.166 201.18 113.779 200.553 114.553 200.1C115.339 199.633 116.219 199.4 117.193 199.4C118.179 199.4 119.053 199.627 119.813 200.08C120.586 200.52 121.193 201.147 121.633 201.96C122.073 202.76 122.293 203.687 122.293 204.74C122.293 204.807 122.286 204.88 122.273 204.96C122.273 205.027 122.273 205.1 122.273 205.18H113.133V204.12H121.513L120.953 204.54C120.953 203.78 120.786 203.107 120.453 202.52C120.133 201.92 119.693 201.453 119.133 201.12C118.573 200.787 117.926 200.62 117.193 200.62C116.473 200.62 115.826 200.787 115.253 201.12C114.679 201.453 114.233 201.92 113.913 202.52C113.593 203.12 113.433 203.807 113.433 204.58V204.8C113.433 205.6 113.606 206.307 113.953 206.92C114.313 207.52 114.806 207.993 115.433 208.34C116.073 208.673 116.799 208.84 117.613 208.84C118.253 208.84 118.846 208.727 119.393 208.5C119.953 208.273 120.433 207.927 120.833 207.46L121.633 208.38C121.166 208.94 120.579 209.367 119.873 209.66C119.179 209.953 118.413 210.1 117.573 210.1ZM138.303 199.4C139.156 199.4 139.896 199.567 140.523 199.9C141.163 200.22 141.656 200.713 142.003 201.38C142.363 202.047 142.543 202.887 142.543 203.9V210H141.123V204.04C141.123 202.933 140.856 202.1 140.323 201.54C139.803 200.967 139.063 200.68 138.103 200.68C137.383 200.68 136.756 200.833 136.223 201.14C135.703 201.433 135.296 201.867 135.003 202.44C134.723 203 134.583 203.68 134.583 204.48V210H133.163V204.04C133.163 202.933 132.896 202.1 132.363 201.54C131.83 200.967 131.083 200.68 130.123 200.68C129.416 200.68 128.796 200.833 128.263 201.14C127.73 201.433 127.316 201.867 127.023 202.44C126.743 203 126.603 203.68 126.603 204.48V210H125.183V199.5H126.543V202.34L126.323 201.84C126.643 201.08 127.156 200.487 127.863 200.06C128.583 199.62 129.43 199.4 130.403 199.4C131.43 199.4 132.303 199.66 133.023 200.18C133.743 200.687 134.21 201.453 134.423 202.48L133.863 202.26C134.17 201.407 134.71 200.72 135.483 200.2C136.27 199.667 137.21 199.4 138.303 199.4ZM150.674 210.1C149.661 210.1 148.747 209.873 147.934 209.42C147.134 208.953 146.501 208.32 146.034 207.52C145.567 206.707 145.334 205.78 145.334 204.74C145.334 203.687 145.567 202.76 146.034 201.96C146.501 201.16 147.134 200.533 147.934 200.08C148.734 199.627 149.647 199.4 150.674 199.4C151.714 199.4 152.634 199.627 153.434 200.08C154.247 200.533 154.881 201.16 155.334 201.96C155.801 202.76 156.034 203.687 156.034 204.74C156.034 205.78 155.801 206.707 155.334 207.52C154.881 208.32 154.247 208.953 153.434 209.42C152.621 209.873 151.701 210.1 150.674 210.1ZM150.674 208.84C151.434 208.84 152.107 208.673 152.694 208.34C153.281 207.993 153.741 207.513 154.074 206.9C154.421 206.273 154.594 205.553 154.594 204.74C154.594 203.913 154.421 203.193 154.074 202.58C153.741 201.967 153.281 201.493 152.694 201.16C152.107 200.813 151.441 200.64 150.694 200.64C149.947 200.64 149.281 200.813 148.694 201.16C148.107 201.493 147.641 201.967 147.294 202.58C146.947 203.193 146.774 203.913 146.774 204.74C146.774 205.553 146.947 206.273 147.294 206.9C147.641 207.513 148.107 207.993 148.694 208.34C149.281 208.673 149.941 208.84 150.674 208.84ZM161.753 210.1C160.886 210.1 160.066 209.98 159.293 209.74C158.52 209.487 157.913 209.173 157.473 208.8L158.113 207.68C158.54 208 159.086 208.28 159.753 208.52C160.42 208.747 161.12 208.86 161.853 208.86C162.853 208.86 163.573 208.707 164.013 208.4C164.453 208.08 164.673 207.66 164.673 207.14C164.673 206.753 164.546 206.453 164.293 206.24C164.053 206.013 163.733 205.847 163.333 205.74C162.933 205.62 162.486 205.52 161.993 205.44C161.5 205.36 161.006 205.267 160.513 205.16C160.033 205.053 159.593 204.9 159.193 204.7C158.793 204.487 158.466 204.2 158.213 203.84C157.973 203.48 157.853 203 157.853 202.4C157.853 201.827 158.013 201.313 158.333 200.86C158.653 200.407 159.12 200.053 159.733 199.8C160.36 199.533 161.12 199.4 162.013 199.4C162.693 199.4 163.373 199.493 164.053 199.68C164.733 199.853 165.293 200.087 165.733 200.38L165.113 201.52C164.646 201.2 164.146 200.973 163.613 200.84C163.08 200.693 162.546 200.62 162.013 200.62C161.066 200.62 160.366 200.787 159.913 201.12C159.473 201.44 159.253 201.853 159.253 202.36C159.253 202.76 159.373 203.073 159.613 203.3C159.866 203.527 160.193 203.707 160.593 203.84C161.006 203.96 161.453 204.06 161.933 204.14C162.426 204.22 162.913 204.32 163.393 204.44C163.886 204.547 164.333 204.7 164.733 204.9C165.146 205.087 165.473 205.36 165.713 205.72C165.966 206.067 166.093 206.527 166.093 207.1C166.093 207.713 165.92 208.247 165.573 208.7C165.24 209.14 164.746 209.487 164.093 209.74C163.453 209.98 162.673 210.1 161.753 210.1ZM21.98 239V228.5H23.34V231.36L23.2 230.86C23.4933 230.06 23.9867 229.453 24.68 229.04C25.3733 228.613 26.2333 228.4 27.26 228.4V229.78C27.2067 229.78 27.1533 229.78 27.1 229.78C27.0467 229.767 26.9933 229.76 26.94 229.76C25.8333 229.76 24.9667 230.1 24.34 230.78C23.7133 231.447 23.4 232.4 23.4 233.64V239H21.98ZM34.2134 239.1C33.1201 239.1 32.1601 238.873 31.3334 238.42C30.5068 237.953 29.8601 237.32 29.3934 236.52C28.9268 235.707 28.6934 234.78 28.6934 233.74C28.6934 232.7 28.9134 231.78 29.3534 230.98C29.8068 230.18 30.4201 229.553 31.1934 229.1C31.9801 228.633 32.8601 228.4 33.8334 228.4C34.8201 228.4 35.6934 228.627 36.4534 229.08C37.2268 229.52 37.8334 230.147 38.2734 230.96C38.7134 231.76 38.9334 232.687 38.9334 233.74C38.9334 233.807 38.9268 233.88 38.9134 233.96C38.9134 234.027 38.9134 234.1 38.9134 234.18H29.7734V233.12H38.1534L37.5934 233.54C37.5934 232.78 37.4268 232.107 37.0934 231.52C36.7734 230.92 36.3334 230.453 35.7734 230.12C35.2134 229.787 34.5668 229.62 33.8334 229.62C33.1134 229.62 32.4668 229.787 31.8934 230.12C31.3201 230.453 30.8734 230.92 30.5534 231.52C30.2334 232.12 30.0734 232.807 30.0734 233.58V233.8C30.0734 234.6 30.2468 235.307 30.5934 235.92C30.9534 236.52 31.4468 236.993 32.0734 237.34C32.7134 237.673 33.4401 237.84 34.2534 237.84C34.8934 237.84 35.4868 237.727 36.0334 237.5C36.5934 237.273 37.0734 236.927 37.4734 236.46L38.2734 237.38C37.8068 237.94 37.2201 238.367 36.5134 238.66C35.8201 238.953 35.0534 239.1 34.2134 239.1ZM44.6438 239.1C43.7771 239.1 42.9571 238.98 42.1838 238.74C41.4104 238.487 40.8038 238.173 40.3638 237.8L41.0038 236.68C41.4304 237 41.9771 237.28 42.6438 237.52C43.3104 237.747 44.0104 237.86 44.7438 237.86C45.7438 237.86 46.4638 237.707 46.9038 237.4C47.3438 237.08 47.5638 236.66 47.5638 236.14C47.5638 235.753 47.4371 235.453 47.1838 235.24C46.9438 235.013 46.6238 234.847 46.2238 234.74C45.8238 234.62 45.3771 234.52 44.8838 234.44C44.3904 234.36 43.8971 234.267 43.4038 234.16C42.9238 234.053 42.4838 233.9 42.0838 233.7C41.6838 233.487 41.3571 233.2 41.1038 232.84C40.8638 232.48 40.7438 232 40.7438 231.4C40.7438 230.827 40.9038 230.313 41.2238 229.86C41.5438 229.407 42.0104 229.053 42.6238 228.8C43.2504 228.533 44.0104 228.4 44.9038 228.4C45.5838 228.4 46.2638 228.493 46.9438 228.68C47.6238 228.853 48.1838 229.087 48.6238 229.38L48.0038 230.52C47.5371 230.2 47.0371 229.973 46.5038 229.84C45.9704 229.693 45.4371 229.62 44.9038 229.62C43.9571 229.62 43.2571 229.787 42.8038 230.12C42.3638 230.44 42.1438 230.853 42.1438 231.36C42.1438 231.76 42.2638 232.073 42.5038 232.3C42.7571 232.527 43.0838 232.707 43.4838 232.84C43.8971 232.96 44.3438 233.06 44.8238 233.14C45.3171 233.22 45.8038 233.32 46.2838 233.44C46.7771 233.547 47.2238 233.7 47.6238 233.9C48.0371 234.087 48.3638 234.36 48.6038 234.72C48.8571 235.067 48.9838 235.527 48.9838 236.1C48.9838 236.713 48.8104 237.247 48.4638 237.7C48.1304 238.14 47.6371 238.487 46.9838 238.74C46.3438 238.98 45.5638 239.1 44.6438 239.1ZM55.8694 239.1C54.856 239.1 53.9427 238.873 53.1294 238.42C52.3294 237.953 51.696 237.32 51.2294 236.52C50.7627 235.707 50.5294 234.78 50.5294 233.74C50.5294 232.687 50.7627 231.76 51.2294 230.96C51.696 230.16 52.3294 229.533 53.1294 229.08C53.9294 228.627 54.8427 228.4 55.8694 228.4C56.9094 228.4 57.8294 228.627 58.6294 229.08C59.4427 229.533 60.076 230.16 60.5294 230.96C60.996 231.76 61.2294 232.687 61.2294 233.74C61.2294 234.78 60.996 235.707 60.5294 236.52C60.076 237.32 59.4427 237.953 58.6294 238.42C57.816 238.873 56.896 239.1 55.8694 239.1ZM55.8694 237.84C56.6294 237.84 57.3027 237.673 57.8894 237.34C58.476 236.993 58.936 236.513 59.2694 235.9C59.616 235.273 59.7894 234.553 59.7894 233.74C59.7894 232.913 59.616 232.193 59.2694 231.58C58.936 230.967 58.476 230.493 57.8894 230.16C57.3027 229.813 56.636 229.64 55.8894 229.64C55.1427 229.64 54.476 229.813 53.8894 230.16C53.3027 230.493 52.836 230.967 52.4894 231.58C52.1427 232.193 51.9694 232.913 51.9694 233.74C51.9694 234.553 52.1427 235.273 52.4894 235.9C52.836 236.513 53.3027 236.993 53.8894 237.34C54.476 237.673 55.136 237.84 55.8694 237.84ZM64.1284 239V224.16H65.5484V239H64.1284ZM72.1995 239L67.5395 228.5H69.0195L73.2995 238.24H72.5995L76.9395 228.5H78.3395L73.6595 239H72.1995ZM84.5064 239.1C83.4131 239.1 82.4531 238.873 81.6264 238.42C80.7997 237.953 80.1531 237.32 79.6864 236.52C79.2197 235.707 78.9864 234.78 78.9864 233.74C78.9864 232.7 79.2064 231.78 79.6464 230.98C80.0997 230.18 80.7131 229.553 81.4864 229.1C82.2731 228.633 83.1531 228.4 84.1264 228.4C85.1131 228.4 85.9864 228.627 86.7464 229.08C87.5197 229.52 88.1264 230.147 88.5664 230.96C89.0064 231.76 89.2264 232.687 89.2264 233.74C89.2264 233.807 89.2197 233.88 89.2064 233.96C89.2064 234.027 89.2064 234.1 89.2064 234.18H80.0664V233.12H88.4464L87.8864 233.54C87.8864 232.78 87.7197 232.107 87.3864 231.52C87.0664 230.92 86.6264 230.453 86.0664 230.12C85.5064 229.787 84.8597 229.62 84.1264 229.62C83.4064 229.62 82.7597 229.787 82.1864 230.12C81.6131 230.453 81.1664 230.92 80.8464 231.52C80.5264 232.12 80.3664 232.807 80.3664 233.58V233.8C80.3664 234.6 80.5397 235.307 80.8864 235.92C81.2464 236.52 81.7397 236.993 82.3664 237.34C83.0064 237.673 83.7331 237.84 84.5464 237.84C85.1864 237.84 85.7797 237.727 86.3264 237.5C86.8864 237.273 87.3664 236.927 87.7664 236.46L88.5664 237.38C88.0997 237.94 87.5131 238.367 86.8064 238.66C86.1131 238.953 85.3464 239.1 84.5064 239.1ZM92.1167 239V228.5H93.4767V231.36L93.3367 230.86C93.6301 230.06 94.1234 229.453 94.8167 229.04C95.5101 228.613 96.3701 228.4 97.3967 228.4V229.78C97.3434 229.78 97.2901 229.78 97.2367 229.78C97.1834 229.767 97.1301 229.76 97.0767 229.76C95.9701 229.76 95.1034 230.1 94.4767 230.78C93.8501 231.447 93.5367 232.4 93.5367 233.64V239H92.1167ZM110.798 239.1C109.892 239.1 109.072 238.893 108.338 238.48C107.605 238.053 107.018 237.447 106.578 236.66C106.152 235.86 105.938 234.887 105.938 233.74C105.938 232.593 106.152 231.627 106.578 230.84C107.005 230.04 107.585 229.433 108.318 229.02C109.052 228.607 109.878 228.4 110.798 228.4C111.798 228.4 112.692 228.627 113.478 229.08C114.278 229.52 114.905 230.147 115.358 230.96C115.812 231.76 116.038 232.687 116.038 233.74C116.038 234.807 115.812 235.74 115.358 236.54C114.905 237.34 114.278 237.967 113.478 238.42C112.692 238.873 111.798 239.1 110.798 239.1ZM105.378 242.88V228.5H106.738V231.66L106.598 233.76L106.798 235.88V242.88H105.378ZM110.698 237.84C111.445 237.84 112.112 237.673 112.698 237.34C113.285 236.993 113.752 236.513 114.098 235.9C114.445 235.273 114.618 234.553 114.618 233.74C114.618 232.927 114.445 232.213 114.098 231.6C113.752 230.987 113.285 230.507 112.698 230.16C112.112 229.813 111.445 229.64 110.698 229.64C109.952 229.64 109.278 229.813 108.678 230.16C108.092 230.507 107.625 230.987 107.278 231.6C106.945 232.213 106.778 232.927 106.778 233.74C106.778 234.553 106.945 235.273 107.278 235.9C107.625 236.513 108.092 236.993 108.678 237.34C109.278 237.673 109.952 237.84 110.698 237.84ZM125.455 239V236.68L125.395 236.3V232.42C125.395 231.527 125.141 230.84 124.635 230.36C124.141 229.88 123.401 229.64 122.415 229.64C121.735 229.64 121.088 229.753 120.475 229.98C119.861 230.207 119.341 230.507 118.915 230.88L118.275 229.82C118.808 229.367 119.448 229.02 120.195 228.78C120.941 228.527 121.728 228.4 122.555 228.4C123.915 228.4 124.961 228.74 125.695 229.42C126.441 230.087 126.815 231.107 126.815 232.48V239H125.455ZM121.835 239.1C121.048 239.1 120.361 238.973 119.775 238.72C119.201 238.453 118.761 238.093 118.455 237.64C118.148 237.173 117.995 236.64 117.995 236.04C117.995 235.493 118.121 235 118.375 234.56C118.641 234.107 119.068 233.747 119.655 233.48C120.255 233.2 121.055 233.06 122.055 233.06H125.675V234.12H122.095C121.081 234.12 120.375 234.3 119.975 234.66C119.588 235.02 119.395 235.467 119.395 236C119.395 236.6 119.628 237.08 120.095 237.44C120.561 237.8 121.215 237.98 122.055 237.98C122.855 237.98 123.541 237.8 124.115 237.44C124.701 237.067 125.128 236.533 125.395 235.84L125.715 236.82C125.448 237.513 124.981 238.067 124.315 238.48C123.661 238.893 122.835 239.1 121.835 239.1ZM130.671 239V228.5H132.031V231.36L131.891 230.86C132.185 230.06 132.678 229.453 133.371 229.04C134.065 228.613 134.925 228.4 135.951 228.4V229.78C135.898 229.78 135.845 229.78 135.791 229.78C135.738 229.767 135.685 229.76 135.631 229.76C134.525 229.76 133.658 230.1 133.031 230.78C132.405 231.447 132.091 232.4 132.091 233.64V239H130.671ZM144.341 239V236.68L144.281 236.3V232.42C144.281 231.527 144.028 230.84 143.521 230.36C143.028 229.88 142.288 229.64 141.301 229.64C140.621 229.64 139.975 229.753 139.361 229.98C138.748 230.207 138.228 230.507 137.801 230.88L137.161 229.82C137.695 229.367 138.335 229.02 139.081 228.78C139.828 228.527 140.615 228.4 141.441 228.4C142.801 228.4 143.848 228.74 144.581 229.42C145.328 230.087 145.701 231.107 145.701 232.48V239H144.341ZM140.721 239.1C139.935 239.1 139.248 238.973 138.661 238.72C138.088 238.453 137.648 238.093 137.341 237.64C137.035 237.173 136.881 236.64 136.881 236.04C136.881 235.493 137.008 235 137.261 234.56C137.528 234.107 137.955 233.747 138.541 233.48C139.141 233.2 139.941 233.06 140.941 233.06H144.561V234.12H140.981C139.968 234.12 139.261 234.3 138.861 234.66C138.475 235.02 138.281 235.467 138.281 236C138.281 236.6 138.515 237.08 138.981 237.44C139.448 237.8 140.101 237.98 140.941 237.98C141.741 237.98 142.428 237.8 143.001 237.44C143.588 237.067 144.015 236.533 144.281 235.84L144.601 236.82C144.335 237.513 143.868 238.067 143.201 238.48C142.548 238.893 141.721 239.1 140.721 239.1ZM157.613 239.1C156.746 239.1 155.926 238.98 155.153 238.74C154.379 238.487 153.773 238.173 153.333 237.8L153.973 236.68C154.399 237 154.946 237.28 155.613 237.52C156.279 237.747 156.979 237.86 157.713 237.86C158.713 237.86 159.433 237.707 159.873 237.4C160.313 237.08 160.533 236.66 160.533 236.14C160.533 235.753 160.406 235.453 160.153 235.24C159.913 235.013 159.593 234.847 159.193 234.74C158.793 234.62 158.346 234.52 157.853 234.44C157.359 234.36 156.866 234.267 156.373 234.16C155.893 234.053 155.453 233.9 155.053 233.7C154.653 233.487 154.326 233.2 154.073 232.84C153.833 232.48 153.713 232 153.713 231.4C153.713 230.827 153.873 230.313 154.193 229.86C154.513 229.407 154.979 229.053 155.593 228.8C156.219 228.533 156.979 228.4 157.873 228.4C158.553 228.4 159.233 228.493 159.913 228.68C160.593 228.853 161.153 229.087 161.593 229.38L160.973 230.52C160.506 230.2 160.006 229.973 159.473 229.84C158.939 229.693 158.406 229.62 157.873 229.62C156.926 229.62 156.226 229.787 155.773 230.12C155.333 230.44 155.113 230.853 155.113 231.36C155.113 231.76 155.233 232.073 155.473 232.3C155.726 232.527 156.053 232.707 156.453 232.84C156.866 232.96 157.313 233.06 157.793 233.14C158.286 233.22 158.773 233.32 159.253 233.44C159.746 233.547 160.193 233.7 160.593 233.9C161.006 234.087 161.333 234.36 161.573 234.72C161.826 235.067 161.953 235.527 161.953 236.1C161.953 236.713 161.779 237.247 161.433 237.7C161.099 238.14 160.606 238.487 159.953 238.74C159.313 238.98 158.533 239.1 157.613 239.1ZM164.558 239V228.5H165.978V239H164.558ZM165.278 226.18C164.985 226.18 164.738 226.08 164.538 225.88C164.338 225.68 164.238 225.44 164.238 225.16C164.238 224.88 164.338 224.647 164.538 224.46C164.738 224.26 164.985 224.16 165.278 224.16C165.571 224.16 165.818 224.253 166.018 224.44C166.218 224.627 166.318 224.86 166.318 225.14C166.318 225.433 166.218 225.68 166.018 225.88C165.831 226.08 165.585 226.18 165.278 226.18ZM174.389 239.1C173.296 239.1 172.336 238.873 171.509 238.42C170.683 237.953 170.036 237.32 169.569 236.52C169.103 235.707 168.869 234.78 168.869 233.74C168.869 232.7 169.089 231.78 169.529 230.98C169.983 230.18 170.596 229.553 171.369 229.1C172.156 228.633 173.036 228.4 174.009 228.4C174.996 228.4 175.869 228.627 176.629 229.08C177.403 229.52 178.009 230.147 178.449 230.96C178.889 231.76 179.109 232.687 179.109 233.74C179.109 233.807 179.103 233.88 179.089 233.96C179.089 234.027 179.089 234.1 179.089 234.18H169.949V233.12H178.329L177.769 233.54C177.769 232.78 177.603 232.107 177.269 231.52C176.949 230.92 176.509 230.453 175.949 230.12C175.389 229.787 174.743 229.62 174.009 229.62C173.289 229.62 172.643 229.787 172.069 230.12C171.496 230.453 171.049 230.92 170.729 231.52C170.409 232.12 170.249 232.807 170.249 233.58V233.8C170.249 234.6 170.423 235.307 170.769 235.92C171.129 236.52 171.623 236.993 172.249 237.34C172.889 237.673 173.616 237.84 174.429 237.84C175.069 237.84 175.663 237.727 176.209 237.5C176.769 237.273 177.249 236.927 177.649 236.46L178.449 237.38C177.983 237.94 177.396 238.367 176.689 238.66C175.996 238.953 175.229 239.1 174.389 239.1ZM195.12 228.4C195.973 228.4 196.713 228.567 197.34 228.9C197.98 229.22 198.473 229.713 198.82 230.38C199.18 231.047 199.36 231.887 199.36 232.9V239H197.94V233.04C197.94 231.933 197.673 231.1 197.14 230.54C196.62 229.967 195.88 229.68 194.92 229.68C194.2 229.68 193.573 229.833 193.04 230.14C192.52 230.433 192.113 230.867 191.82 231.44C191.54 232 191.4 232.68 191.4 233.48V239H189.98V233.04C189.98 231.933 189.713 231.1 189.18 230.54C188.646 229.967 187.9 229.68 186.94 229.68C186.233 229.68 185.613 229.833 185.08 230.14C184.546 230.433 184.133 230.867 183.84 231.44C183.56 232 183.42 232.68 183.42 233.48V239H182V228.5H183.36V231.34L183.14 230.84C183.46 230.08 183.973 229.487 184.68 229.06C185.4 228.62 186.246 228.4 187.22 228.4C188.246 228.4 189.12 228.66 189.84 229.18C190.56 229.687 191.026 230.453 191.24 231.48L190.68 231.26C190.986 230.407 191.526 229.72 192.3 229.2C193.086 228.667 194.026 228.4 195.12 228.4ZM208.63 239.1C207.724 239.1 206.904 238.893 206.17 238.48C205.437 238.053 204.85 237.447 204.41 236.66C203.984 235.86 203.77 234.887 203.77 233.74C203.77 232.593 203.984 231.627 204.41 230.84C204.837 230.04 205.417 229.433 206.15 229.02C206.884 228.607 207.71 228.4 208.63 228.4C209.63 228.4 210.524 228.627 211.31 229.08C212.11 229.52 212.737 230.147 213.19 230.96C213.644 231.76 213.87 232.687 213.87 233.74C213.87 234.807 213.644 235.74 213.19 236.54C212.737 237.34 212.11 237.967 211.31 238.42C210.524 238.873 209.63 239.1 208.63 239.1ZM203.21 242.88V228.5H204.57V231.66L204.43 233.76L204.63 235.88V242.88H203.21ZM208.53 237.84C209.277 237.84 209.944 237.673 210.53 237.34C211.117 236.993 211.584 236.513 211.93 235.9C212.277 235.273 212.45 234.553 212.45 233.74C212.45 232.927 212.277 232.213 211.93 231.6C211.584 230.987 211.117 230.507 210.53 230.16C209.944 229.813 209.277 229.64 208.53 229.64C207.784 229.64 207.11 229.813 206.51 230.16C205.924 230.507 205.457 230.987 205.11 231.6C204.777 232.213 204.61 232.927 204.61 233.74C204.61 234.553 204.777 235.273 205.11 235.9C205.457 236.513 205.924 236.993 206.51 237.34C207.11 237.673 207.784 237.84 208.53 237.84ZM216.765 239V228.5H218.125V231.36L217.985 230.86C218.278 230.06 218.772 229.453 219.465 229.04C220.158 228.613 221.018 228.4 222.045 228.4V229.78C221.992 229.78 221.938 229.78 221.885 229.78C221.832 229.767 221.778 229.76 221.725 229.76C220.618 229.76 219.752 230.1 219.125 230.78C218.498 231.447 218.185 232.4 218.185 233.64V239H216.765ZM228.999 239.1C227.905 239.1 226.945 238.873 226.119 238.42C225.292 237.953 224.645 237.32 224.179 236.52C223.712 235.707 223.479 234.78 223.479 233.74C223.479 232.7 223.699 231.78 224.139 230.98C224.592 230.18 225.205 229.553 225.979 229.1C226.765 228.633 227.645 228.4 228.619 228.4C229.605 228.4 230.479 228.627 231.239 229.08C232.012 229.52 232.619 230.147 233.059 230.96C233.499 231.76 233.719 232.687 233.719 233.74C233.719 233.807 233.712 233.88 233.699 233.96C233.699 234.027 233.699 234.1 233.699 234.18H224.559V233.12H232.939L232.379 233.54C232.379 232.78 232.212 232.107 231.879 231.52C231.559 230.92 231.119 230.453 230.559 230.12C229.999 229.787 229.352 229.62 228.619 229.62C227.899 229.62 227.252 229.787 226.679 230.12C226.105 230.453 225.659 230.92 225.339 231.52C225.019 232.12 224.859 232.807 224.859 233.58V233.8C224.859 234.6 225.032 235.307 225.379 235.92C225.739 236.52 226.232 236.993 226.859 237.34C227.499 237.673 228.225 237.84 229.039 237.84C229.679 237.84 230.272 237.727 230.819 237.5C231.379 237.273 231.859 236.927 232.259 236.46L233.059 237.38C232.592 237.94 232.005 238.367 231.299 238.66C230.605 238.953 229.839 239.1 228.999 239.1ZM236.749 239.1C236.456 239.1 236.202 238.993 235.989 238.78C235.789 238.567 235.689 238.307 235.689 238C235.689 237.68 235.789 237.42 235.989 237.22C236.202 237.02 236.456 236.92 236.749 236.92C237.042 236.92 237.289 237.02 237.489 237.22C237.702 237.42 237.809 237.68 237.809 238C237.809 238.307 237.702 238.567 237.489 238.78C237.289 238.993 237.042 239.1 236.749 239.1ZM28.36 268.12C27.3067 268.12 26.3333 267.947 25.44 267.6C24.5467 267.24 23.7733 266.74 23.12 266.1C22.4667 265.46 21.9533 264.707 21.58 263.84C21.22 262.973 21.04 262.027 21.04 261C21.04 259.973 21.22 259.027 21.58 258.16C21.9533 257.293 22.4667 256.54 23.12 255.9C23.7867 255.26 24.5667 254.767 25.46 254.42C26.3533 254.06 27.3267 253.88 28.38 253.88C29.3933 253.88 30.3467 254.053 31.24 254.4C32.1333 254.733 32.8867 255.24 33.5 255.92L32.56 256.86C31.9867 256.273 31.3533 255.853 30.66 255.6C29.9667 255.333 29.22 255.2 28.42 255.2C27.58 255.2 26.8 255.347 26.08 255.64C25.36 255.92 24.7333 256.327 24.2 256.86C23.6667 257.38 23.2467 257.993 22.94 258.7C22.6467 259.393 22.5 260.16 22.5 261C22.5 261.84 22.6467 262.613 22.94 263.32C23.2467 264.013 23.6667 264.627 24.2 265.16C24.7333 265.68 25.36 266.087 26.08 266.38C26.8 266.66 27.58 266.8 28.42 266.8C29.22 266.8 29.9667 266.667 30.66 266.4C31.3533 266.133 31.9867 265.707 32.56 265.12L33.5 266.06C32.8867 266.74 32.1333 267.253 31.24 267.6C30.3467 267.947 29.3867 268.12 28.36 268.12ZM40.3434 268.1C39.4501 268.1 38.6701 267.933 38.0034 267.6C37.3368 267.267 36.8168 266.767 36.4434 266.1C36.0834 265.433 35.9034 264.6 35.9034 263.6V257.5H37.3234V263.44C37.3234 264.56 37.5968 265.407 38.1434 265.98C38.7034 266.54 39.4834 266.82 40.4834 266.82C41.2168 266.82 41.8501 266.673 42.3834 266.38C42.9301 266.073 43.3434 265.633 43.6234 265.06C43.9168 264.487 44.0634 263.8 44.0634 263V257.5H45.4834V268H44.1234V265.12L44.3434 265.64C44.0101 266.413 43.4901 267.02 42.7834 267.46C42.0901 267.887 41.2768 268.1 40.3434 268.1ZM56.0209 268V265.68L55.9609 265.3V261.42C55.9609 260.527 55.7076 259.84 55.2009 259.36C54.7076 258.88 53.9676 258.64 52.9809 258.64C52.3009 258.64 51.6543 258.753 51.0409 258.98C50.4276 259.207 49.9076 259.507 49.4809 259.88L48.8409 258.82C49.3743 258.367 50.0143 258.02 50.7609 257.78C51.5076 257.527 52.2943 257.4 53.1209 257.4C54.4809 257.4 55.5276 257.74 56.2609 258.42C57.0076 259.087 57.3809 260.107 57.3809 261.48V268H56.0209ZM52.4009 268.1C51.6143 268.1 50.9276 267.973 50.3409 267.72C49.7676 267.453 49.3276 267.093 49.0209 266.64C48.7143 266.173 48.5609 265.64 48.5609 265.04C48.5609 264.493 48.6876 264 48.9409 263.56C49.2076 263.107 49.6343 262.747 50.2209 262.48C50.8209 262.2 51.6209 262.06 52.6209 262.06H56.2409V263.12H52.6609C51.6476 263.12 50.9409 263.3 50.5409 263.66C50.1543 264.02 49.9609 264.467 49.9609 265C49.9609 265.6 50.1943 266.08 50.6609 266.44C51.1276 266.8 51.7809 266.98 52.6209 266.98C53.4209 266.98 54.1076 266.8 54.6809 266.44C55.2676 266.067 55.6943 265.533 55.9609 264.84L56.2809 265.82C56.0143 266.513 55.5476 267.067 54.8809 267.48C54.2276 267.893 53.4009 268.1 52.4009 268.1ZM66.5978 257.4C67.4511 257.4 68.1978 257.567 68.8378 257.9C69.4911 258.22 69.9978 258.713 70.3578 259.38C70.7311 260.047 70.9178 260.887 70.9178 261.9V268H69.4978V262.04C69.4978 260.933 69.2178 260.1 68.6578 259.54C68.1111 258.967 67.3378 258.68 66.3378 258.68C65.5911 258.68 64.9378 258.833 64.3778 259.14C63.8311 259.433 63.4045 259.867 63.0978 260.44C62.8045 261 62.6578 261.68 62.6578 262.48V268H61.2378V257.5H62.5978V260.38L62.3778 259.84C62.7111 259.08 63.2445 258.487 63.9778 258.06C64.7111 257.62 65.5845 257.4 66.5978 257.4ZM78.9334 268.1C77.9334 268.1 77.0334 267.873 76.2334 267.42C75.4468 266.967 74.8268 266.34 74.3734 265.54C73.9201 264.727 73.6934 263.793 73.6934 262.74C73.6934 261.673 73.9201 260.74 74.3734 259.94C74.8268 259.14 75.4468 258.52 76.2334 258.08C77.0334 257.627 77.9334 257.4 78.9334 257.4C79.8534 257.4 80.6734 257.607 81.3934 258.02C82.1268 258.433 82.7068 259.04 83.1334 259.84C83.5734 260.627 83.7934 261.593 83.7934 262.74C83.7934 263.873 83.5801 264.84 83.1534 265.64C82.7268 266.44 82.1468 267.053 81.4134 267.48C80.6934 267.893 79.8668 268.1 78.9334 268.1ZM79.0334 266.84C79.7801 266.84 80.4468 266.673 81.0334 266.34C81.6334 265.993 82.1001 265.513 82.4334 264.9C82.7801 264.273 82.9534 263.553 82.9534 262.74C82.9534 261.913 82.7801 261.193 82.4334 260.58C82.1001 259.967 81.6334 259.493 81.0334 259.16C80.4468 258.813 79.7801 258.64 79.0334 258.64C78.3001 258.64 77.6401 258.813 77.0534 259.16C76.4668 259.493 76.0001 259.967 75.6534 260.58C75.3068 261.193 75.1334 261.913 75.1334 262.74C75.1334 263.553 75.3068 264.273 75.6534 264.9C76.0001 265.513 76.4668 265.993 77.0534 266.34C77.6401 266.673 78.3001 266.84 79.0334 266.84ZM82.9934 268V264.84L83.1334 262.72L82.9334 260.6V253.16H84.3534V268H82.9934ZM92.5881 268.1C91.5748 268.1 90.6615 267.873 89.8481 267.42C89.0481 266.953 88.4148 266.32 87.9481 265.52C87.4815 264.707 87.2481 263.78 87.2481 262.74C87.2481 261.687 87.4815 260.76 87.9481 259.96C88.4148 259.16 89.0481 258.533 89.8481 258.08C90.6481 257.627 91.5615 257.4 92.5881 257.4C93.6281 257.4 94.5481 257.627 95.3481 258.08C96.1615 258.533 96.7948 259.16 97.2481 259.96C97.7148 260.76 97.9481 261.687 97.9481 262.74C97.9481 263.78 97.7148 264.707 97.2481 265.52C96.7948 266.32 96.1615 266.953 95.3481 267.42C94.5348 267.873 93.6148 268.1 92.5881 268.1ZM92.5881 266.84C93.3481 266.84 94.0215 266.673 94.6081 266.34C95.1948 265.993 95.6548 265.513 95.9881 264.9C96.3348 264.273 96.5081 263.553 96.5081 262.74C96.5081 261.913 96.3348 261.193 95.9881 260.58C95.6548 259.967 95.1948 259.493 94.6081 259.16C94.0215 258.813 93.3548 258.64 92.6081 258.64C91.8615 258.64 91.1948 258.813 90.6081 259.16C90.0215 259.493 89.5548 259.967 89.2081 260.58C88.8615 261.193 88.6881 261.913 88.6881 262.74C88.6881 263.553 88.8615 264.273 89.2081 264.9C89.5548 265.513 90.0215 265.993 90.6081 266.34C91.1948 266.673 91.8548 266.84 92.5881 266.84ZM106.082 268V257.5H107.502V268H106.082ZM106.802 255.18C106.508 255.18 106.262 255.08 106.062 254.88C105.862 254.68 105.762 254.44 105.762 254.16C105.762 253.88 105.862 253.647 106.062 253.46C106.262 253.26 106.508 253.16 106.802 253.16C107.095 253.16 107.342 253.253 107.542 253.44C107.742 253.627 107.842 253.86 107.842 254.14C107.842 254.433 107.742 254.68 107.542 254.88C107.355 255.08 107.108 255.18 106.802 255.18ZM116.813 257.4C117.666 257.4 118.413 257.567 119.053 257.9C119.706 258.22 120.213 258.713 120.573 259.38C120.946 260.047 121.133 260.887 121.133 261.9V268H119.713V262.04C119.713 260.933 119.433 260.1 118.873 259.54C118.326 258.967 117.553 258.68 116.553 258.68C115.806 258.68 115.153 258.833 114.593 259.14C114.046 259.433 113.619 259.867 113.313 260.44C113.019 261 112.873 261.68 112.873 262.48V268H111.453V257.5H112.813V260.38L112.593 259.84C112.926 259.08 113.459 258.487 114.193 258.06C114.926 257.62 115.799 257.4 116.813 257.4ZM127.473 268L122.813 257.5H124.293L128.573 267.24H127.873L132.213 257.5H133.613L128.933 268H127.473ZM135.613 268V257.5H137.033V268H135.613ZM136.333 255.18C136.039 255.18 135.793 255.08 135.593 254.88C135.393 254.68 135.293 254.44 135.293 254.16C135.293 253.88 135.393 253.647 135.593 253.46C135.793 253.26 136.039 253.16 136.333 253.16C136.626 253.16 136.873 253.253 137.073 253.44C137.273 253.627 137.373 253.86 137.373 254.14C137.373 254.433 137.273 254.68 137.073 254.88C136.886 255.08 136.639 255.18 136.333 255.18ZM145.444 268.1C144.351 268.1 143.391 267.873 142.564 267.42C141.737 266.953 141.091 266.32 140.624 265.52C140.157 264.707 139.924 263.78 139.924 262.74C139.924 261.7 140.144 260.78 140.584 259.98C141.037 259.18 141.651 258.553 142.424 258.1C143.211 257.633 144.091 257.4 145.064 257.4C146.051 257.4 146.924 257.627 147.684 258.08C148.457 258.52 149.064 259.147 149.504 259.96C149.944 260.76 150.164 261.687 150.164 262.74C150.164 262.807 150.157 262.88 150.144 262.96C150.144 263.027 150.144 263.1 150.144 263.18H141.004V262.12H149.384L148.824 262.54C148.824 261.78 148.657 261.107 148.324 260.52C148.004 259.92 147.564 259.453 147.004 259.12C146.444 258.787 145.797 258.62 145.064 258.62C144.344 258.62 143.697 258.787 143.124 259.12C142.551 259.453 142.104 259.92 141.784 260.52C141.464 261.12 141.304 261.807 141.304 262.58V262.8C141.304 263.6 141.477 264.307 141.824 264.92C142.184 265.52 142.677 265.993 143.304 266.34C143.944 266.673 144.671 266.84 145.484 266.84C146.124 266.84 146.717 266.727 147.264 266.5C147.824 266.273 148.304 265.927 148.704 265.46L149.504 266.38C149.037 266.94 148.451 267.367 147.744 267.66C147.051 267.953 146.284 268.1 145.444 268.1ZM153.054 268V257.5H154.414V260.36L154.274 259.86C154.568 259.06 155.061 258.453 155.754 258.04C156.448 257.613 157.308 257.4 158.334 257.4V258.78C158.281 258.78 158.228 258.78 158.174 258.78C158.121 258.767 158.068 258.76 158.014 258.76C156.908 258.76 156.041 259.1 155.414 259.78C154.788 260.447 154.474 261.4 154.474 262.64V268H153.054ZM164.695 268.1C163.708 268.1 162.948 267.833 162.415 267.3C161.881 266.767 161.615 266.013 161.615 265.04V255.18H163.035V264.96C163.035 265.573 163.188 266.047 163.495 266.38C163.815 266.713 164.268 266.88 164.855 266.88C165.481 266.88 166.001 266.7 166.415 266.34L166.915 267.36C166.635 267.613 166.295 267.8 165.895 267.92C165.508 268.04 165.108 268.1 164.695 268.1ZM159.735 258.68V257.5H166.235V258.68H159.735ZM173.588 268.1C172.495 268.1 171.535 267.873 170.708 267.42C169.882 266.953 169.235 266.32 168.768 265.52C168.302 264.707 168.068 263.78 168.068 262.74C168.068 261.7 168.288 260.78 168.728 259.98C169.182 259.18 169.795 258.553 170.568 258.1C171.355 257.633 172.235 257.4 173.208 257.4C174.195 257.4 175.068 257.627 175.828 258.08C176.602 258.52 177.208 259.147 177.648 259.96C178.088 260.76 178.308 261.687 178.308 262.74C178.308 262.807 178.302 262.88 178.288 262.96C178.288 263.027 178.288 263.1 178.288 263.18H169.148V262.12H177.528L176.968 262.54C176.968 261.78 176.802 261.107 176.468 260.52C176.148 259.92 175.708 259.453 175.148 259.12C174.588 258.787 173.942 258.62 173.208 258.62C172.488 258.62 171.842 258.787 171.268 259.12C170.695 259.453 170.248 259.92 169.928 260.52C169.608 261.12 169.448 261.807 169.448 262.58V262.8C169.448 263.6 169.622 264.307 169.968 264.92C170.328 265.52 170.822 265.993 171.448 266.34C172.088 266.673 172.815 266.84 173.628 266.84C174.268 266.84 174.862 266.727 175.408 266.5C175.968 266.273 176.448 265.927 176.848 265.46L177.648 266.38C177.182 266.94 176.595 267.367 175.888 267.66C175.195 267.953 174.428 268.1 173.588 268.1ZM184.019 268.1C183.152 268.1 182.332 267.98 181.559 267.74C180.785 267.487 180.179 267.173 179.739 266.8L180.379 265.68C180.805 266 181.352 266.28 182.019 266.52C182.685 266.747 183.385 266.86 184.119 266.86C185.119 266.86 185.839 266.707 186.279 266.4C186.719 266.08 186.939 265.66 186.939 265.14C186.939 264.753 186.812 264.453 186.559 264.24C186.319 264.013 185.999 263.847 185.599 263.74C185.199 263.62 184.752 263.52 184.259 263.44C183.765 263.36 183.272 263.267 182.779 263.16C182.299 263.053 181.859 262.9 181.459 262.7C181.059 262.487 180.732 262.2 180.479 261.84C180.239 261.48 180.119 261 180.119 260.4C180.119 259.827 180.279 259.313 180.599 258.86C180.919 258.407 181.385 258.053 181.999 257.8C182.625 257.533 183.385 257.4 184.279 257.4C184.959 257.4 185.639 257.493 186.319 257.68C186.999 257.853 187.559 258.087 187.999 258.38L187.379 259.52C186.912 259.2 186.412 258.973 185.879 258.84C185.345 258.693 184.812 258.62 184.279 258.62C183.332 258.62 182.632 258.787 182.179 259.12C181.739 259.44 181.519 259.853 181.519 260.36C181.519 260.76 181.639 261.073 181.879 261.3C182.132 261.527 182.459 261.707 182.859 261.84C183.272 261.96 183.719 262.06 184.199 262.14C184.692 262.22 185.179 262.32 185.659 262.44C186.152 262.547 186.599 262.7 186.999 262.9C187.412 263.087 187.739 263.36 187.979 263.72C188.232 264.067 188.359 264.527 188.359 265.1C188.359 265.713 188.185 266.247 187.839 266.7C187.505 267.14 187.012 267.487 186.359 267.74C185.719 267.98 184.939 268.1 184.019 268.1ZM200.559 268.1C199.519 268.1 198.585 267.873 197.759 267.42C196.945 266.953 196.305 266.32 195.839 265.52C195.372 264.707 195.139 263.78 195.139 262.74C195.139 261.687 195.372 260.76 195.839 259.96C196.305 259.16 196.945 258.533 197.759 258.08C198.585 257.627 199.519 257.4 200.559 257.4C201.452 257.4 202.259 257.573 202.979 257.92C203.699 258.267 204.265 258.787 204.679 259.48L203.619 260.2C203.259 259.667 202.812 259.273 202.279 259.02C201.745 258.767 201.165 258.64 200.539 258.64C199.792 258.64 199.119 258.813 198.519 259.16C197.919 259.493 197.445 259.967 197.099 260.58C196.752 261.193 196.579 261.913 196.579 262.74C196.579 263.567 196.752 264.287 197.099 264.9C197.445 265.513 197.919 265.993 198.519 266.34C199.119 266.673 199.792 266.84 200.539 266.84C201.165 266.84 201.745 266.713 202.279 266.46C202.812 266.207 203.259 265.82 203.619 265.3L204.679 266.02C204.265 266.7 203.699 267.22 202.979 267.58C202.259 267.927 201.452 268.1 200.559 268.1ZM211.573 268.1C210.559 268.1 209.646 267.873 208.833 267.42C208.033 266.953 207.399 266.32 206.933 265.52C206.466 264.707 206.233 263.78 206.233 262.74C206.233 261.687 206.466 260.76 206.933 259.96C207.399 259.16 208.033 258.533 208.833 258.08C209.633 257.627 210.546 257.4 211.573 257.4C212.613 257.4 213.533 257.627 214.333 258.08C215.146 258.533 215.779 259.16 216.233 259.96C216.699 260.76 216.933 261.687 216.933 262.74C216.933 263.78 216.699 264.707 216.233 265.52C215.779 266.32 215.146 266.953 214.333 267.42C213.519 267.873 212.599 268.1 211.573 268.1ZM211.573 266.84C212.333 266.84 213.006 266.673 213.593 266.34C214.179 265.993 214.639 265.513 214.973 264.9C215.319 264.273 215.493 263.553 215.493 262.74C215.493 261.913 215.319 261.193 214.973 260.58C214.639 259.967 214.179 259.493 213.593 259.16C213.006 258.813 212.339 258.64 211.593 258.64C210.846 258.64 210.179 258.813 209.593 259.16C209.006 259.493 208.539 259.967 208.193 260.58C207.846 261.193 207.673 261.913 207.673 262.74C207.673 263.553 207.846 264.273 208.193 264.9C208.539 265.513 209.006 265.993 209.593 266.34C210.179 266.673 210.839 266.84 211.573 266.84ZM225.192 257.4C226.045 257.4 226.792 257.567 227.432 257.9C228.085 258.22 228.592 258.713 228.952 259.38C229.325 260.047 229.512 260.887 229.512 261.9V268H228.092V262.04C228.092 260.933 227.812 260.1 227.252 259.54C226.705 258.967 225.932 258.68 224.932 258.68C224.185 258.68 223.532 258.833 222.972 259.14C222.425 259.433 221.998 259.867 221.692 260.44C221.398 261 221.252 261.68 221.252 262.48V268H219.832V257.5H221.192V260.38L220.972 259.84C221.305 259.08 221.838 258.487 222.572 258.06C223.305 257.62 224.178 257.4 225.192 257.4ZM27.34 286.4C28.1933 286.4 28.94 286.567 29.58 286.9C30.2333 287.22 30.74 287.713 31.1 288.38C31.4733 289.047 31.66 289.887 31.66 290.9V297H30.24V291.04C30.24 289.933 29.96 289.1 29.4 288.54C28.8533 287.967 28.08 287.68 27.08 287.68C26.3333 287.68 25.68 287.833 25.12 288.14C24.5733 288.433 24.1467 288.867 23.84 289.44C23.5467 290 23.4 290.68 23.4 291.48V297H21.98V286.5H23.34V289.38L23.12 288.84C23.4533 288.08 23.9867 287.487 24.72 287.06C25.4533 286.62 26.3267 286.4 27.34 286.4ZM39.7756 297.1C38.7623 297.1 37.849 296.873 37.0356 296.42C36.2356 295.953 35.6023 295.32 35.1356 294.52C34.669 293.707 34.4356 292.78 34.4356 291.74C34.4356 290.687 34.669 289.76 35.1356 288.96C35.6023 288.16 36.2356 287.533 37.0356 287.08C37.8356 286.627 38.749 286.4 39.7756 286.4C40.8156 286.4 41.7356 286.627 42.5356 287.08C43.349 287.533 43.9823 288.16 44.4356 288.96C44.9023 289.76 45.1356 290.687 45.1356 291.74C45.1356 292.78 44.9023 293.707 44.4356 294.52C43.9823 295.32 43.349 295.953 42.5356 296.42C41.7223 296.873 40.8023 297.1 39.7756 297.1ZM39.7756 295.84C40.5356 295.84 41.209 295.673 41.7956 295.34C42.3823 294.993 42.8423 294.513 43.1756 293.9C43.5223 293.273 43.6956 292.553 43.6956 291.74C43.6956 290.913 43.5223 290.193 43.1756 289.58C42.8423 288.967 42.3823 288.493 41.7956 288.16C41.209 287.813 40.5423 287.64 39.7956 287.64C39.049 287.64 38.3823 287.813 37.7956 288.16C37.209 288.493 36.7423 288.967 36.3956 289.58C36.049 290.193 35.8756 290.913 35.8756 291.74C35.8756 292.553 36.049 293.273 36.3956 293.9C36.7423 294.513 37.209 294.993 37.7956 295.34C38.3823 295.673 39.0423 295.84 39.7756 295.84ZM50.8547 297.1C49.988 297.1 49.168 296.98 48.3947 296.74C47.6214 296.487 47.0147 296.173 46.5747 295.8L47.2147 294.68C47.6414 295 48.188 295.28 48.8547 295.52C49.5214 295.747 50.2214 295.86 50.9547 295.86C51.9547 295.86 52.6747 295.707 53.1147 295.4C53.5547 295.08 53.7747 294.66 53.7747 294.14C53.7747 293.753 53.648 293.453 53.3947 293.24C53.1547 293.013 52.8347 292.847 52.4347 292.74C52.0347 292.62 51.588 292.52 51.0947 292.44C50.6014 292.36 50.108 292.267 49.6147 292.16C49.1347 292.053 48.6947 291.9 48.2947 291.7C47.8947 291.487 47.568 291.2 47.3147 290.84C47.0747 290.48 46.9547 290 46.9547 289.4C46.9547 288.827 47.1147 288.313 47.4347 287.86C47.7547 287.407 48.2214 287.053 48.8347 286.8C49.4614 286.533 50.2214 286.4 51.1147 286.4C51.7947 286.4 52.4747 286.493 53.1547 286.68C53.8347 286.853 54.3947 287.087 54.8347 287.38L54.2147 288.52C53.748 288.2 53.248 287.973 52.7147 287.84C52.1814 287.693 51.648 287.62 51.1147 287.62C50.168 287.62 49.468 287.787 49.0147 288.12C48.5747 288.44 48.3547 288.853 48.3547 289.36C48.3547 289.76 48.4747 290.073 48.7147 290.3C48.968 290.527 49.2947 290.707 49.6947 290.84C50.108 290.96 50.5547 291.06 51.0347 291.14C51.528 291.22 52.0147 291.32 52.4947 291.44C52.988 291.547 53.4347 291.7 53.8347 291.9C54.248 292.087 54.5747 292.36 54.8147 292.72C55.068 293.067 55.1947 293.527 55.1947 294.1C55.1947 294.713 55.0214 295.247 54.6747 295.7C54.3414 296.14 53.848 296.487 53.1947 296.74C52.5547 296.98 51.7747 297.1 50.8547 297.1ZM62.0803 297.1C61.067 297.1 60.1536 296.873 59.3403 296.42C58.5403 295.953 57.907 295.32 57.4403 294.52C56.9736 293.707 56.7403 292.78 56.7403 291.74C56.7403 290.687 56.9736 289.76 57.4403 288.96C57.907 288.16 58.5403 287.533 59.3403 287.08C60.1403 286.627 61.0536 286.4 62.0803 286.4C63.1203 286.4 64.0403 286.627 64.8403 287.08C65.6536 287.533 66.287 288.16 66.7403 288.96C67.207 289.76 67.4403 290.687 67.4403 291.74C67.4403 292.78 67.207 293.707 66.7403 294.52C66.287 295.32 65.6536 295.953 64.8403 296.42C64.027 296.873 63.107 297.1 62.0803 297.1ZM62.0803 295.84C62.8403 295.84 63.5136 295.673 64.1003 295.34C64.687 294.993 65.147 294.513 65.4803 293.9C65.827 293.273 66.0003 292.553 66.0003 291.74C66.0003 290.913 65.827 290.193 65.4803 289.58C65.147 288.967 64.687 288.493 64.1003 288.16C63.5136 287.813 62.847 287.64 62.1003 287.64C61.3536 287.64 60.687 287.813 60.1003 288.16C59.5136 288.493 59.047 288.967 58.7003 289.58C58.3536 290.193 58.1803 290.913 58.1803 291.74C58.1803 292.553 58.3536 293.273 58.7003 293.9C59.047 294.513 59.5136 294.993 60.1003 295.34C60.687 295.673 61.347 295.84 62.0803 295.84ZM73.6594 297.1C72.6727 297.1 71.9127 296.833 71.3794 296.3C70.846 295.767 70.5794 295.013 70.5794 294.04V284.18H71.9994V293.96C71.9994 294.573 72.1527 295.047 72.4594 295.38C72.7794 295.713 73.2327 295.88 73.8194 295.88C74.446 295.88 74.966 295.7 75.3794 295.34L75.8794 296.36C75.5994 296.613 75.2594 296.8 74.8594 296.92C74.4727 297.04 74.0727 297.1 73.6594 297.1ZM68.6994 287.68V286.5H75.1994V287.68H68.6994ZM78.4644 297V286.5H79.8244V289.36L79.6844 288.86C79.9777 288.06 80.471 287.453 81.1644 287.04C81.8577 286.613 82.7177 286.4 83.7444 286.4V287.78C83.691 287.78 83.6377 287.78 83.5844 287.78C83.531 287.767 83.4777 287.76 83.4244 287.76C82.3177 287.76 81.451 288.1 80.8244 288.78C80.1977 289.447 79.8844 290.4 79.8844 291.64V297H78.4644ZM90.5178 297.1C89.5045 297.1 88.5911 296.873 87.7778 296.42C86.9778 295.953 86.3445 295.32 85.8778 294.52C85.4111 293.707 85.1778 292.78 85.1778 291.74C85.1778 290.687 85.4111 289.76 85.8778 288.96C86.3445 288.16 86.9778 287.533 87.7778 287.08C88.5778 286.627 89.4911 286.4 90.5178 286.4C91.5578 286.4 92.4778 286.627 93.2778 287.08C94.0911 287.533 94.7245 288.16 95.1778 288.96C95.6445 289.76 95.8778 290.687 95.8778 291.74C95.8778 292.78 95.6445 293.707 95.1778 294.52C94.7245 295.32 94.0911 295.953 93.2778 296.42C92.4645 296.873 91.5445 297.1 90.5178 297.1ZM90.5178 295.84C91.2778 295.84 91.9511 295.673 92.5378 295.34C93.1245 294.993 93.5845 294.513 93.9178 293.9C94.2645 293.273 94.4378 292.553 94.4378 291.74C94.4378 290.913 94.2645 290.193 93.9178 289.58C93.5845 288.967 93.1245 288.493 92.5378 288.16C91.9511 287.813 91.2845 287.64 90.5378 287.64C89.7911 287.64 89.1245 287.813 88.5378 288.16C87.9511 288.493 87.4845 288.967 87.1378 289.58C86.7911 290.193 86.6178 290.913 86.6178 291.74C86.6178 292.553 86.7911 293.273 87.1378 293.9C87.4845 294.513 87.9511 294.993 88.5378 295.34C89.1245 295.673 89.7845 295.84 90.5178 295.84ZM101.597 297.1C100.73 297.1 99.9102 296.98 99.1369 296.74C98.3635 296.487 97.7569 296.173 97.3169 295.8L97.9569 294.68C98.3835 295 98.9302 295.28 99.5969 295.52C100.264 295.747 100.964 295.86 101.697 295.86C102.697 295.86 103.417 295.707 103.857 295.4C104.297 295.08 104.517 294.66 104.517 294.14C104.517 293.753 104.39 293.453 104.137 293.24C103.897 293.013 103.577 292.847 103.177 292.74C102.777 292.62 102.33 292.52 101.837 292.44C101.344 292.36 100.85 292.267 100.357 292.16C99.8769 292.053 99.4369 291.9 99.0369 291.7C98.6369 291.487 98.3102 291.2 98.0569 290.84C97.8169 290.48 97.6969 290 97.6969 289.4C97.6969 288.827 97.8569 288.313 98.1769 287.86C98.4969 287.407 98.9635 287.053 99.5769 286.8C100.204 286.533 100.964 286.4 101.857 286.4C102.537 286.4 103.217 286.493 103.897 286.68C104.577 286.853 105.137 287.087 105.577 287.38L104.957 288.52C104.49 288.2 103.99 287.973 103.457 287.84C102.924 287.693 102.39 287.62 101.857 287.62C100.91 287.62 100.21 287.787 99.7569 288.12C99.3169 288.44 99.0969 288.853 99.0969 289.36C99.0969 289.76 99.2169 290.073 99.4569 290.3C99.7102 290.527 100.037 290.707 100.437 290.84C100.85 290.96 101.297 291.06 101.777 291.14C102.27 291.22 102.757 291.32 103.237 291.44C103.73 291.547 104.177 291.7 104.577 291.9C104.99 292.087 105.317 292.36 105.557 292.72C105.81 293.067 105.937 293.527 105.937 294.1C105.937 294.713 105.764 295.247 105.417 295.7C105.084 296.14 104.59 296.487 103.937 296.74C103.297 296.98 102.517 297.1 101.597 297.1Z" fill="#131313"/>
</svg>
