<svg width="107" height="17" viewBox="0 0 107 17" fill="none" xmlns="http://www.w3.org/2000/svg">
<path d="M104.649 13.3597V0.890869H107V13.3597H104.649Z" fill="#131313"/>
<path d="M89.3142 13.3597L95.0103 0.890869H97.3249L103.039 13.3597H100.58L95.6794 2.11994H96.6197L91.7373 13.3597H89.3142ZM91.9362 10.4741L92.5691 8.65718H99.4044L100.037 10.4741H91.9362Z" fill="#131313"/>
<path d="M84.0388 3.74072C84.8104 3.74072 85.4915 3.88916 86.0822 4.18604C86.6849 4.48292 87.1551 4.94011 87.4927 5.55761C87.8302 6.16324 87.999 6.947 87.999 7.90888V13.3596H85.7386V8.19388C85.7386 7.35075 85.5518 6.72137 85.178 6.30574C84.8043 5.89012 84.2679 5.6823 83.5687 5.6823C83.0744 5.6823 82.6344 5.78918 82.2486 6.00293C81.8749 6.21668 81.5795 6.53137 81.3625 6.947C81.1576 7.36263 81.0551 7.89107 81.0551 8.53233V13.3596H78.7948V8.19388C78.7948 7.35075 78.6079 6.72137 78.2342 6.30574C77.8605 5.89012 77.324 5.6823 76.6248 5.6823C76.1305 5.6823 75.6905 5.78918 75.3048 6.00293C74.931 6.21668 74.6357 6.53137 74.4187 6.947C74.2138 7.36263 74.1113 7.89107 74.1113 8.53233V13.3596H71.8509V3.8476H74.0028V6.37699L73.623 5.62886C73.9485 5.01136 74.4187 4.54229 75.0335 4.22166C75.6604 3.90104 76.3716 3.74072 77.1673 3.74072C78.0714 3.74072 78.855 3.96041 79.5181 4.39979C80.1932 4.83917 80.6392 5.50417 80.8562 6.39481L79.9702 6.09199C80.2836 5.37949 80.802 4.80948 81.5253 4.38198C82.2486 3.95447 83.0864 3.74072 84.0388 3.74072Z" fill="#131313"/>
<path d="M63.6292 13.4845C62.8095 13.4845 62.0862 13.3361 61.4593 13.0392C60.8324 12.7305 60.3442 12.2673 59.9946 11.6498C59.645 11.0205 59.4702 10.2308 59.4702 9.28076V3.8479H61.7305V8.97794C61.7305 9.83295 61.9234 10.4742 62.3092 10.9017C62.707 11.3173 63.2676 11.5252 63.9909 11.5252C64.5213 11.5252 64.9794 11.4183 65.3652 11.2045C65.763 10.9908 66.0704 10.6701 66.2874 10.2426C66.5165 9.81514 66.631 9.2867 66.631 8.65732V3.8479H68.8914V13.3599H66.7395V10.7948L67.1192 11.5786C66.7937 12.1961 66.3176 12.6711 65.6907 13.0036C65.0638 13.3242 64.3767 13.4845 63.6292 13.4845Z" fill="#131313"/>
<path d="M55.5137 13.4841C54.4527 13.4841 53.6329 13.217 53.0541 12.6826C52.4754 12.1363 52.1861 11.3347 52.1861 10.2779V1.74561H54.4467V10.2244C54.4467 10.6757 54.5612 11.026 54.7903 11.2754C55.0314 11.5247 55.363 11.6494 55.785 11.6494C56.2914 11.6494 56.7134 11.5188 57.0509 11.2576L57.6839 12.8429C57.4187 13.0566 57.0931 13.217 56.7073 13.3238C56.3215 13.4307 55.9236 13.4841 55.5137 13.4841ZM50.5946 5.70001V3.91875H57.0329V5.70001H50.5946Z" fill="#131313"/>
<path d="M44.9785 3.74072C45.7501 3.74072 46.4372 3.88916 47.04 4.18604C47.6548 4.48292 48.137 4.94011 48.4866 5.55761C48.8362 6.16324 49.011 6.947 49.011 7.90888V13.3596H46.7507V8.19388C46.7507 7.35075 46.5457 6.72137 46.1359 6.30574C45.738 5.89012 45.1775 5.6823 44.4541 5.6823C43.9237 5.6823 43.4536 5.78918 43.0437 6.00293C42.6338 6.21668 42.3143 6.53731 42.0853 6.96481C41.8683 7.38044 41.7598 7.90888 41.7598 8.55014V13.3596H39.4994V3.8476H41.6513V6.41262L41.2715 5.62886C41.6091 5.02323 42.0973 4.5601 42.7363 4.23948C43.3872 3.90697 44.1347 3.74072 44.9785 3.74072Z" fill="#131313"/>
<path d="M34.4647 13.3596V11.4358L34.3382 11.0261V7.6595C34.3382 7.00637 34.1392 6.50168 33.7414 6.14543C33.3436 5.7773 32.7408 5.59324 31.9331 5.59324C31.3906 5.59324 30.8542 5.67636 30.3238 5.84261C29.8054 6.00887 29.3654 6.24043 29.0037 6.53731L28.1176 4.91636C28.636 4.52448 29.2508 4.23354 29.9621 4.04354C30.6854 3.84166 31.4328 3.74072 32.2044 3.74072C33.6028 3.74072 34.6817 4.07323 35.4412 4.73823C36.2128 5.39136 36.5985 6.40668 36.5985 7.78419V13.3596H34.4647ZM31.4268 13.4842C30.7035 13.4842 30.0706 13.3655 29.5281 13.128C28.9856 12.8786 28.5637 12.5402 28.2623 12.1127C27.973 11.6733 27.8283 11.1805 27.8283 10.6342C27.8283 10.0998 27.9549 9.6189 28.208 9.19139C28.4733 8.76389 28.9012 8.42545 29.4919 8.17607C30.0826 7.9267 30.8662 7.80201 31.8427 7.80201H34.6456V9.28046H32.0055C31.2339 9.28046 30.7155 9.40514 30.4503 9.65452C30.1851 9.89202 30.0525 10.1889 30.0525 10.5452C30.0525 10.9489 30.2153 11.2695 30.5407 11.507C30.8662 11.7445 31.3183 11.8633 31.897 11.8633C32.4515 11.8633 32.9458 11.7386 33.3798 11.4892C33.8258 11.2398 34.1453 10.8717 34.3382 10.3848L34.7179 11.7208C34.5009 12.2789 34.1091 12.7124 33.5425 13.0211C32.988 13.3299 32.2827 13.4842 31.4268 13.4842Z" fill="#131313"/>
<path d="M20.2938 13.4845C19.474 13.4845 18.7507 13.3361 18.1239 13.0392C17.497 12.7305 17.0087 12.2673 16.6591 11.6498C16.3095 11.0205 16.1347 10.2308 16.1347 9.28076V3.8479H18.3951V8.97794C18.3951 9.83295 18.588 10.4742 18.9738 10.9017C19.3716 11.3173 19.9321 11.5252 20.6555 11.5252C21.1859 11.5252 21.644 11.4183 22.0298 11.2045C22.4276 10.9908 22.735 10.6701 22.952 10.2426C23.181 9.81514 23.2956 9.2867 23.2956 8.65732V3.8479H25.5559V13.3599H23.4041V10.7948L23.7838 11.5786C23.4583 12.1961 22.9821 12.6711 22.3553 13.0036C21.7284 13.3242 21.0412 13.4845 20.2938 13.4845Z" fill="#131313"/>
<path d="M7.13313 13.5378C6.1446 13.5378 5.23443 13.3774 4.40261 13.0568C3.5708 12.7362 2.84748 12.2909 2.23266 11.7209C1.61784 11.139 1.14166 10.4621 0.804112 9.69022C0.466564 8.90647 0.297791 8.05146 0.297791 7.1252C0.297791 6.19894 0.466564 5.34987 0.804112 4.57799C1.14166 3.79423 1.61784 3.11735 2.23266 2.54735C2.84748 1.96547 3.5708 1.51422 4.40261 1.19359C5.23443 0.87296 6.13857 0.712646 7.11505 0.712646C8.10358 0.712646 9.00773 0.87296 9.82749 1.19359C10.6593 1.51422 11.3826 1.95953 11.9974 2.52954C12.6123 3.09954 13.0884 3.77642 13.426 4.56018C13.7635 5.34394 13.9323 6.19894 13.9323 7.1252C13.9323 8.05146 13.7635 8.90647 13.426 9.69022C13.0884 10.474 12.6123 11.1509 11.9974 11.7209C11.3826 12.2909 10.6593 12.7362 9.82749 13.0568C9.00773 13.3774 8.10961 13.5378 7.13313 13.5378ZM11.256 16.085C10.81 16.085 10.376 16.0315 9.95407 15.9246C9.54419 15.8296 9.13431 15.6634 8.72443 15.4259C8.32661 15.2003 7.9107 14.8975 7.47671 14.5174C7.04272 14.1493 6.56654 13.6921 6.04816 13.1459L8.5436 12.5046C8.88115 12.944 9.20061 13.2943 9.502 13.5556C9.81543 13.8287 10.1168 14.0246 10.4061 14.1434C10.6955 14.2621 10.9969 14.3215 11.3103 14.3215C12.1421 14.3215 12.8654 13.989 13.4802 13.324L14.5652 14.6065C13.7213 15.5921 12.6183 16.085 11.256 16.085ZM7.11505 11.5071C7.75398 11.5071 8.34469 11.4002 8.88718 11.1865C9.42966 10.9727 9.89982 10.6699 10.2976 10.278C10.6955 9.87429 11.0029 9.40522 11.2199 8.87084C11.4489 8.33646 11.5634 7.75458 11.5634 7.1252C11.5634 6.48395 11.4489 5.90207 11.2199 5.37956C11.0029 4.84518 10.6955 4.38205 10.2976 3.99017C9.89982 3.58642 9.42966 3.27767 8.88718 3.06392C8.34469 2.85016 7.75398 2.74329 7.11505 2.74329C6.47612 2.74329 5.88541 2.85016 5.34293 3.06392C4.80044 3.27767 4.33028 3.58642 3.93246 3.99017C3.53463 4.38205 3.2212 4.84518 2.99215 5.37956C2.77515 5.90207 2.66665 6.48395 2.66665 7.1252C2.66665 7.75458 2.77515 8.33646 2.99215 8.87084C3.2212 9.40522 3.53463 9.87429 3.93246 10.278C4.33028 10.6699 4.80044 10.9727 5.34293 11.1865C5.88541 11.4002 6.47612 11.5071 7.11505 11.5071Z" fill="#131313"/>
</svg>
